<?xml version="1.0" encoding="utf-8" standalone="no"?>
<!DOCTYPE svg PUBLIC "-//W3C//DTD SVG 1.1//EN"
  "http://www.w3.org/Graphics/SVG/1.1/DTD/svg11.dtd">
<!-- Created with matplotlib (https://matplotlib.org/) -->
<svg height="288pt" version="1.1" viewBox="0 0 432 288" width="432pt" xmlns="http://www.w3.org/2000/svg" xmlns:xlink="http://www.w3.org/1999/xlink">
 <defs>
  <style type="text/css">
*{stroke-linecap:butt;stroke-linejoin:round;}
  </style>
 </defs>
 <g id="figure_1">
  <g id="patch_1">
   <path d="M 0 288 
L 432 288 
L 432 0 
L 0 0 
z
" style="fill:#ffffff;"/>
  </g>
  <g id="axes_1">
   <g id="patch_2">
    <path d="M 54 252 
L 388.8 252 
L 388.8 34.56 
L 54 34.56 
z
" style="fill:#ffffff;"/>
   </g>
   <g id="PathCollection_1">
    <defs>
     <path d="M 0 3 
C 0.795609 3 1.55874 2.683901 2.12132 2.12132 
C 2.683901 1.55874 3 0.795609 3 0 
C 3 -0.795609 2.683901 -1.55874 2.12132 -2.12132 
C 1.55874 -2.683901 0.795609 -3 0 -3 
C -0.795609 -3 -1.55874 -2.683901 -2.12132 -2.12132 
C -2.683901 -1.55874 -3 -0.795609 -3 0 
C -3 0.795609 -2.683901 1.55874 -2.12132 2.12132 
C -1.55874 2.683901 -0.795609 3 0 3 
z
" id="m3b7d99c865" style="stroke:#1f77b4;"/>
    </defs>
    <g clip-path="url(#pa26459d985)">
     <use style="fill:#1f77b4;stroke:#1f77b4;" x="103.189846" xlink:href="#m3b7d99c865" y="217.031131"/>
     <use style="fill:#1f77b4;stroke:#1f77b4;" x="109.113231" xlink:href="#m3b7d99c865" y="222.128077"/>
     <use style="fill:#1f77b4;stroke:#1f77b4;" x="98.296615" xlink:href="#m3b7d99c865" y="219.143157"/>
     <use style="fill:#1f77b4;stroke:#1f77b4;" x="92.630769" xlink:href="#m3b7d99c865" y="217.159751"/>
     <use style="fill:#1f77b4;stroke:#1f77b4;" x="307.160308" xlink:href="#m3b7d99c865" y="189.538484"/>
     <use style="fill:#1f77b4;stroke:#1f77b4;" x="305.615077" xlink:href="#m3b7d99c865" y="186.784468"/>
     <use style="fill:#1f77b4;stroke:#1f77b4;" x="97.008923" xlink:href="#m3b7d99c865" y="226.753881"/>
     <use style="fill:#1f77b4;stroke:#1f77b4;" x="73.572923" xlink:href="#m3b7d99c865" y="226.649087"/>
     <use style="fill:#1f77b4;stroke:#1f77b4;" x="256.425231" xlink:href="#m3b7d99c865" y="189.077432"/>
     <use style="fill:#1f77b4;stroke:#1f77b4;" x="252.047077" xlink:href="#m3b7d99c865" y="199.062609"/>
     <use style="fill:#1f77b4;stroke:#1f77b4;" x="146.456308" xlink:href="#m3b7d99c865" y="199.01012"/>
     <use style="fill:#1f77b4;stroke:#1f77b4;" x="163.968923" xlink:href="#m3b7d99c865" y="206.334938"/>
     <use style="fill:#1f77b4;stroke:#1f77b4;" x="132.549231" xlink:href="#m3b7d99c865" y="203.121737"/>
     <use style="fill:#1f77b4;stroke:#1f77b4;" x="113.233846" xlink:href="#m3b7d99c865" y="206.633156"/>
     <use style="fill:#1f77b4;stroke:#1f77b4;" x="78.981231" xlink:href="#m3b7d99c865" y="230.737252"/>
     <use style="fill:#1f77b4;stroke:#1f77b4;" x="76.405846" xlink:href="#m3b7d99c865" y="229.949089"/>
     <use style="fill:#1f77b4;stroke:#1f77b4;" x="120.187385" xlink:href="#m3b7d99c865" y="217.984042"/>
     <use style="fill:#1f77b4;stroke:#1f77b4;" x="107.310462" xlink:href="#m3b7d99c865" y="215.074862"/>
     <use style="fill:#1f77b4;stroke:#1f77b4;" x="131.776615" xlink:href="#m3b7d99c865" y="198.443477"/>
     <use style="fill:#1f77b4;stroke:#1f77b4;" x="142.335692" xlink:href="#m3b7d99c865" y="205.251148"/>
     <use style="fill:#1f77b4;stroke:#1f77b4;" x="84.389538" xlink:href="#m3b7d99c865" y="227.612733"/>
     <use style="fill:#1f77b4;stroke:#1f77b4;" x="85.934769" xlink:href="#m3b7d99c865" y="230.209069"/>
     <use style="fill:#1f77b4;stroke:#1f77b4;" x="70.997538" xlink:href="#m3b7d99c865" y="217.54209"/>
     <use style="fill:#1f77b4;stroke:#1f77b4;" x="78.723692" xlink:href="#m3b7d99c865" y="220.190613"/>
     <use style="fill:#1f77b4;stroke:#1f77b4;" x="184.056923" xlink:href="#m3b7d99c865" y="198.192376"/>
     <use style="fill:#1f77b4;stroke:#1f77b4;" x="162.938769" xlink:href="#m3b7d99c865" y="199.669564"/>
     <use style="fill:#1f77b4;stroke:#1f77b4;" x="150.319385" xlink:href="#m3b7d99c865" y="196.342404"/>
     <use style="fill:#1f77b4;stroke:#1f77b4;" x="145.941231" xlink:href="#m3b7d99c865" y="199.092246"/>
     <use style="fill:#1f77b4;stroke:#1f77b4;" x="170.922462" xlink:href="#m3b7d99c865" y="176.567635"/>
     <use style="fill:#1f77b4;stroke:#1f77b4;" x="163.711385" xlink:href="#m3b7d99c865" y="184.67881"/>
     <use style="fill:#1f77b4;stroke:#1f77b4;" x="131.519077" xlink:href="#m3b7d99c865" y="209.438329"/>
     <use style="fill:#1f77b4;stroke:#1f77b4;" x="120.187385" xlink:href="#m3b7d99c865" y="215.711974"/>
     <use style="fill:#1f77b4;stroke:#1f77b4;" x="125.595692" xlink:href="#m3b7d99c865" y="223.555485"/>
     <use style="fill:#1f77b4;stroke:#1f77b4;" x="101.902154" xlink:href="#m3b7d99c865" y="225.633857"/>
     <use style="fill:#1f77b4;stroke:#1f77b4;" x="124.565538" xlink:href="#m3b7d99c865" y="186.386106"/>
     <use style="fill:#1f77b4;stroke:#1f77b4;" x="113.748923" xlink:href="#m3b7d99c865" y="195.973652"/>
     <use style="fill:#1f77b4;stroke:#1f77b4;" x="147.486462" xlink:href="#m3b7d99c865" y="194.640413"/>
     <use style="fill:#1f77b4;stroke:#1f77b4;" x="152.122154" xlink:href="#m3b7d99c865" y="200.06748"/>
     <use style="fill:#1f77b4;stroke:#1f77b4;" x="63.786462" xlink:href="#m3b7d99c865" y="239.964484"/>
     <use style="fill:#1f77b4;stroke:#1f77b4;" x="64.044" xlink:href="#m3b7d99c865" y="240.644156"/>
     <use style="fill:#1f77b4;stroke:#1f77b4;" x="182.769231" xlink:href="#m3b7d99c865" y="225.253118"/>
     <use style="fill:#1f77b4;stroke:#1f77b4;" x="157.015385" xlink:href="#m3b7d99c865" y="225.792502"/>
     <use style="fill:#1f77b4;stroke:#1f77b4;" x="115.809231" xlink:href="#m3b7d99c865" y="227.580489"/>
     <use style="fill:#1f77b4;stroke:#1f77b4;" x="108.855692" xlink:href="#m3b7d99c865" y="228.356492"/>
     <use style="fill:#1f77b4;stroke:#1f77b4;" x="93.918462" xlink:href="#m3b7d99c865" y="228.914241"/>
     <use style="fill:#1f77b4;stroke:#1f77b4;" x="81.814154" xlink:href="#m3b7d99c865" y="232.008654"/>
     <use style="fill:#1f77b4;stroke:#1f77b4;" x="111.173538" xlink:href="#m3b7d99c865" y="218.919373"/>
     <use style="fill:#1f77b4;stroke:#1f77b4;" x="107.568" xlink:href="#m3b7d99c865" y="220.039378"/>
     <use style="fill:#1f77b4;stroke:#1f77b4;" x="104.22" xlink:href="#m3b7d99c865" y="228.95744"/>
     <use style="fill:#1f77b4;stroke:#1f77b4;" x="98.554154" xlink:href="#m3b7d99c865" y="230.907278"/>
     <use style="fill:#1f77b4;stroke:#1f77b4;" x="128.943692" xlink:href="#m3b7d99c865" y="194.861956"/>
     <use style="fill:#1f77b4;stroke:#1f77b4;" x="112.461231" xlink:href="#m3b7d99c865" y="199.136575"/>
     <use style="fill:#1f77b4;stroke:#1f77b4;" x="166.544308" xlink:href="#m3b7d99c865" y="196.172433"/>
     <use style="fill:#1f77b4;stroke:#1f77b4;" x="154.697538" xlink:href="#m3b7d99c865" y="209.382514"/>
     <use style="fill:#1f77b4;stroke:#1f77b4;" x="90.570462" xlink:href="#m3b7d99c865" y="211.211126"/>
     <use style="fill:#1f77b4;stroke:#1f77b4;" x="100.099385" xlink:href="#m3b7d99c865" y="214.051678"/>
     <use style="fill:#1f77b4;stroke:#1f77b4;" x="115.036615" xlink:href="#m3b7d99c865" y="212.911448"/>
     <use style="fill:#1f77b4;stroke:#1f77b4;" x="123.277846" xlink:href="#m3b7d99c865" y="219.226992"/>
     <use style="fill:#1f77b4;stroke:#1f77b4;" x="173.497846" xlink:href="#m3b7d99c865" y="216.688625"/>
     <use style="fill:#1f77b4;stroke:#1f77b4;" x="164.741538" xlink:href="#m3b7d99c865" y="220.140847"/>
     <use style="fill:#1f77b4;stroke:#1f77b4;" x="99.326769" xlink:href="#m3b7d99c865" y="220.017034"/>
     <use style="fill:#1f77b4;stroke:#1f77b4;" x="109.113231" xlink:href="#m3b7d99c865" y="219.632346"/>
     <use style="fill:#1f77b4;stroke:#1f77b4;" x="120.187385" xlink:href="#m3b7d99c865" y="182.890688"/>
     <use style="fill:#1f77b4;stroke:#1f77b4;" x="161.136" xlink:href="#m3b7d99c865" y="190.558176"/>
     <use style="fill:#1f77b4;stroke:#1f77b4;" x="138.730154" xlink:href="#m3b7d99c865" y="220.555829"/>
     <use style="fill:#1f77b4;stroke:#1f77b4;" x="116.066769" xlink:href="#m3b7d99c865" y="220.270966"/>
     <use style="fill:#1f77b4;stroke:#1f77b4;" x="143.365846" xlink:href="#m3b7d99c865" y="207.998861"/>
     <use style="fill:#1f77b4;stroke:#1f77b4;" x="150.319385" xlink:href="#m3b7d99c865" y="207.942864"/>
     <use style="fill:#1f77b4;stroke:#1f77b4;" x="103.189846" xlink:href="#m3b7d99c865" y="202.357753"/>
     <use style="fill:#1f77b4;stroke:#1f77b4;" x="100.356923" xlink:href="#m3b7d99c865" y="193.587218"/>
     <use style="fill:#1f77b4;stroke:#1f77b4;" x="86.192308" xlink:href="#m3b7d99c865" y="217.785141"/>
     <use style="fill:#1f77b4;stroke:#1f77b4;" x="111.688615" xlink:href="#m3b7d99c865" y="221.282581"/>
     <use style="fill:#1f77b4;stroke:#1f77b4;" x="68.937231" xlink:href="#m3b7d99c865" y="228.272525"/>
     <use style="fill:#1f77b4;stroke:#1f77b4;" x="75.633231" xlink:href="#m3b7d99c865" y="226.240676"/>
     <use style="fill:#1f77b4;stroke:#1f77b4;" x="110.916" xlink:href="#m3b7d99c865" y="220.085749"/>
     <use style="fill:#1f77b4;stroke:#1f77b4;" x="92.630769" xlink:href="#m3b7d99c865" y="219.017264"/>
     <use style="fill:#1f77b4;stroke:#1f77b4;" x="76.663385" xlink:href="#m3b7d99c865" y="199.148693"/>
     <use style="fill:#1f77b4;stroke:#1f77b4;" x="96.236308" xlink:href="#m3b7d99c865" y="197.144526"/>
     <use style="fill:#1f77b4;stroke:#1f77b4;" x="159.848308" xlink:href="#m3b7d99c865" y="191.347711"/>
     <use style="fill:#1f77b4;stroke:#1f77b4;" x="154.44" xlink:href="#m3b7d99c865" y="194.188523"/>
     <use style="fill:#1f77b4;stroke:#1f77b4;" x="132.034154" xlink:href="#m3b7d99c865" y="211.152175"/>
     <use style="fill:#1f77b4;stroke:#1f77b4;" x="116.581846" xlink:href="#m3b7d99c865" y="215.597708"/>
     <use style="fill:#1f77b4;stroke:#1f77b4;" x="103.704923" xlink:href="#m3b7d99c865" y="211.112705"/>
     <use style="fill:#1f77b4;stroke:#1f77b4;" x="92.115692" xlink:href="#m3b7d99c865" y="208.055002"/>
     <use style="fill:#1f77b4;stroke:#1f77b4;" x="123.277846" xlink:href="#m3b7d99c865" y="210.723316"/>
     <use style="fill:#1f77b4;stroke:#1f77b4;" x="103.962462" xlink:href="#m3b7d99c865" y="210.434228"/>
     <use style="fill:#1f77b4;stroke:#1f77b4;" x="117.869538" xlink:href="#m3b7d99c865" y="202.790986"/>
     <use style="fill:#1f77b4;stroke:#1f77b4;" x="104.735077" xlink:href="#m3b7d99c865" y="203.800914"/>
     <use style="fill:#1f77b4;stroke:#1f77b4;" x="109.113231" xlink:href="#m3b7d99c865" y="220.127042"/>
     <use style="fill:#1f77b4;stroke:#1f77b4;" x="111.173538" xlink:href="#m3b7d99c865" y="218.107597"/>
     <use style="fill:#1f77b4;stroke:#1f77b4;" x="96.236308" xlink:href="#m3b7d99c865" y="223.582628"/>
     <use style="fill:#1f77b4;stroke:#1f77b4;" x="69.709846" xlink:href="#m3b7d99c865" y="223.167617"/>
     <use style="fill:#1f77b4;stroke:#1f77b4;" x="91.085538" xlink:href="#m3b7d99c865" y="230.904725"/>
     <use style="fill:#1f77b4;stroke:#1f77b4;" x="95.721231" xlink:href="#m3b7d99c865" y="230.067204"/>
     <use style="fill:#1f77b4;stroke:#1f77b4;" x="72.542769" xlink:href="#m3b7d99c865" y="230.80372"/>
     <use style="fill:#1f77b4;stroke:#1f77b4;" x="69.194769" xlink:href="#m3b7d99c865" y="231.027242"/>
     <use style="fill:#1f77b4;stroke:#1f77b4;" x="101.129538" xlink:href="#m3b7d99c865" y="230.011796"/>
     <use style="fill:#1f77b4;stroke:#1f77b4;" x="89.540308" xlink:href="#m3b7d99c865" y="229.71613"/>
     <use style="fill:#1f77b4;stroke:#1f77b4;" x="91.600615" xlink:href="#m3b7d99c865" y="223.52796"/>
     <use style="fill:#1f77b4;stroke:#1f77b4;" x="87.222462" xlink:href="#m3b7d99c865" y="226.900573"/>
     <use style="fill:#1f77b4;stroke:#1f77b4;" x="127.913538" xlink:href="#m3b7d99c865" y="223.584466"/>
     <use style="fill:#1f77b4;stroke:#1f77b4;" x="121.217538" xlink:href="#m3b7d99c865" y="226.805204"/>
     <use style="fill:#1f77b4;stroke:#1f77b4;" x="303.554769" xlink:href="#m3b7d99c865" y="70.059893"/>
     <use style="fill:#1f77b4;stroke:#1f77b4;" x="311.538462" xlink:href="#m3b7d99c865" y="80.595258"/>
     <use style="fill:#1f77b4;stroke:#1f77b4;" x="125.338154" xlink:href="#m3b7d99c865" y="226.180788"/>
     <use style="fill:#1f77b4;stroke:#1f77b4;" x="109.370769" xlink:href="#m3b7d99c865" y="228.038934"/>
     <use style="fill:#1f77b4;stroke:#1f77b4;" x="97.008923" xlink:href="#m3b7d99c865" y="229.922067"/>
     <use style="fill:#1f77b4;stroke:#1f77b4;" x="94.176" xlink:href="#m3b7d99c865" y="230.040281"/>
     <use style="fill:#1f77b4;stroke:#1f77b4;" x="85.677231" xlink:href="#m3b7d99c865" y="238.462419"/>
     <use style="fill:#1f77b4;stroke:#1f77b4;" x="77.436" xlink:href="#m3b7d99c865" y="239.553864"/>
     <use style="fill:#1f77b4;stroke:#1f77b4;" x="93.660923" xlink:href="#m3b7d99c865" y="218.383002"/>
     <use style="fill:#1f77b4;stroke:#1f77b4;" x="89.282769" xlink:href="#m3b7d99c865" y="218.384293"/>
     <use style="fill:#1f77b4;stroke:#1f77b4;" x="103.962462" xlink:href="#m3b7d99c865" y="215.741921"/>
     <use style="fill:#1f77b4;stroke:#1f77b4;" x="116.066769" xlink:href="#m3b7d99c865" y="219.306305"/>
     <use style="fill:#1f77b4;stroke:#1f77b4;" x="96.493846" xlink:href="#m3b7d99c865" y="215.363006"/>
     <use style="fill:#1f77b4;stroke:#1f77b4;" x="86.707385" xlink:href="#m3b7d99c865" y="217.597812"/>
     <use style="fill:#1f77b4;stroke:#1f77b4;" x="218.567077" xlink:href="#m3b7d99c865" y="182.366277"/>
     <use style="fill:#1f77b4;stroke:#1f77b4;" x="208.523077" xlink:href="#m3b7d99c865" y="176.006904"/>
     <use style="fill:#1f77b4;stroke:#1f77b4;" x="84.647077" xlink:href="#m3b7d99c865" y="204.968201"/>
     <use style="fill:#1f77b4;stroke:#1f77b4;" x="91.600615" xlink:href="#m3b7d99c865" y="205.735277"/>
     <use style="fill:#1f77b4;stroke:#1f77b4;" x="89.797846" xlink:href="#m3b7d99c865" y="229.997121"/>
     <use style="fill:#1f77b4;stroke:#1f77b4;" x="88.252615" xlink:href="#m3b7d99c865" y="231.058349"/>
     <use style="fill:#1f77b4;stroke:#1f77b4;" x="182.769231" xlink:href="#m3b7d99c865" y="199.31607"/>
     <use style="fill:#1f77b4;stroke:#1f77b4;" x="169.377231" xlink:href="#m3b7d99c865" y="198.502991"/>
     <use style="fill:#1f77b4;stroke:#1f77b4;" x="126.883385" xlink:href="#m3b7d99c865" y="208.916738"/>
     <use style="fill:#1f77b4;stroke:#1f77b4;" x="158.303077" xlink:href="#m3b7d99c865" y="210.160004"/>
     <use style="fill:#1f77b4;stroke:#1f77b4;" x="98.811692" xlink:href="#m3b7d99c865" y="190.704183"/>
     <use style="fill:#1f77b4;stroke:#1f77b4;" x="122.762769" xlink:href="#m3b7d99c865" y="190.386795"/>
     <use style="fill:#1f77b4;stroke:#1f77b4;" x="119.929846" xlink:href="#m3b7d99c865" y="194.616931"/>
     <use style="fill:#1f77b4;stroke:#1f77b4;" x="127.913538" xlink:href="#m3b7d99c865" y="199.043743"/>
     <use style="fill:#1f77b4;stroke:#1f77b4;" x="106.537846" xlink:href="#m3b7d99c865" y="204.891507"/>
     <use style="fill:#1f77b4;stroke:#1f77b4;" x="98.811692" xlink:href="#m3b7d99c865" y="208.104672"/>
     <use style="fill:#1f77b4;stroke:#1f77b4;" x="112.203692" xlink:href="#m3b7d99c865" y="217.408409"/>
     <use style="fill:#1f77b4;stroke:#1f77b4;" x="111.431077" xlink:href="#m3b7d99c865" y="219.253423"/>
     <use style="fill:#1f77b4;stroke:#1f77b4;" x="127.913538" xlink:href="#m3b7d99c865" y="215.278941"/>
     <use style="fill:#1f77b4;stroke:#1f77b4;" x="108.855692" xlink:href="#m3b7d99c865" y="223.089626"/>
     <use style="fill:#1f77b4;stroke:#1f77b4;" x="121.217538" xlink:href="#m3b7d99c865" y="209.619429"/>
     <use style="fill:#1f77b4;stroke:#1f77b4;" x="116.066769" xlink:href="#m3b7d99c865" y="220.398501"/>
     <use style="fill:#1f77b4;stroke:#1f77b4;" x="127.656" xlink:href="#m3b7d99c865" y="158.917237"/>
     <use style="fill:#1f77b4;stroke:#1f77b4;" x="152.122154" xlink:href="#m3b7d99c865" y="30.509376"/>
     <use style="fill:#1f77b4;stroke:#1f77b4;" x="90.828" xlink:href="#m3b7d99c865" y="220.283391"/>
     <use style="fill:#1f77b4;stroke:#1f77b4;" x="68.164615" xlink:href="#m3b7d99c865" y="221.878423"/>
     <use style="fill:#1f77b4;stroke:#1f77b4;" x="99.326769" xlink:href="#m3b7d99c865" y="224.550137"/>
     <use style="fill:#1f77b4;stroke:#1f77b4;" x="97.524" xlink:href="#m3b7d99c865" y="224.499396"/>
     <use style="fill:#1f77b4;stroke:#1f77b4;" x="127.398462" xlink:href="#m3b7d99c865" y="186.456955"/>
     <use style="fill:#1f77b4;stroke:#1f77b4;" x="150.576923" xlink:href="#m3b7d99c865" y="191.55362"/>
     <use style="fill:#1f77b4;stroke:#1f77b4;" x="139.760308" xlink:href="#m3b7d99c865" y="206.334378"/>
     <use style="fill:#1f77b4;stroke:#1f77b4;" x="137.442462" xlink:href="#m3b7d99c865" y="216.086667"/>
     <use style="fill:#1f77b4;stroke:#1f77b4;" x="116.581846" xlink:href="#m3b7d99c865" y="207.495309"/>
     <use style="fill:#1f77b4;stroke:#1f77b4;" x="127.656" xlink:href="#m3b7d99c865" y="206.306071"/>
     <use style="fill:#1f77b4;stroke:#1f77b4;" x="87.222462" xlink:href="#m3b7d99c865" y="227.98431"/>
     <use style="fill:#1f77b4;stroke:#1f77b4;" x="102.159692" xlink:href="#m3b7d99c865" y="226.322565"/>
     <use style="fill:#1f77b4;stroke:#1f77b4;" x="64.559077" xlink:href="#m3b7d99c865" y="244.129614"/>
     <use style="fill:#1f77b4;stroke:#1f77b4;" x="65.589231" xlink:href="#m3b7d99c865" y="244.720981"/>
     <use style="fill:#1f77b4;stroke:#1f77b4;" x="136.669846" xlink:href="#m3b7d99c865" y="221.877108"/>
     <use style="fill:#1f77b4;stroke:#1f77b4;" x="107.568" xlink:href="#m3b7d99c865" y="218.29386"/>
     <use style="fill:#1f77b4;stroke:#1f77b4;" x="139.245231" xlink:href="#m3b7d99c865" y="207.564875"/>
     <use style="fill:#1f77b4;stroke:#1f77b4;" x="132.034154" xlink:href="#m3b7d99c865" y="203.767986"/>
     <use style="fill:#1f77b4;stroke:#1f77b4;" x="82.844308" xlink:href="#m3b7d99c865" y="235.557467"/>
     <use style="fill:#1f77b4;stroke:#1f77b4;" x="76.920923" xlink:href="#m3b7d99c865" y="236.679756"/>
     <use style="fill:#1f77b4;stroke:#1f77b4;" x="59.665846" xlink:href="#m3b7d99c865" y="244.27939"/>
     <use style="fill:#1f77b4;stroke:#1f77b4;" x="62.756308" xlink:href="#m3b7d99c865" y="244.977264"/>
     <use style="fill:#1f77b4;stroke:#1f77b4;" x="98.296615" xlink:href="#m3b7d99c865" y="232.134446"/>
     <use style="fill:#1f77b4;stroke:#1f77b4;" x="115.809231" xlink:href="#m3b7d99c865" y="232.579008"/>
     <use style="fill:#1f77b4;stroke:#1f77b4;" x="110.400923" xlink:href="#m3b7d99c865" y="209.878287"/>
     <use style="fill:#1f77b4;stroke:#1f77b4;" x="116.581846" xlink:href="#m3b7d99c865" y="215.353404"/>
     <use style="fill:#1f77b4;stroke:#1f77b4;" x="91.600615" xlink:href="#m3b7d99c865" y="224.707789"/>
     <use style="fill:#1f77b4;stroke:#1f77b4;" x="80.784" xlink:href="#m3b7d99c865" y="228.946488"/>
     <use style="fill:#1f77b4;stroke:#1f77b4;" x="162.423692" xlink:href="#m3b7d99c865" y="207.708163"/>
     <use style="fill:#1f77b4;stroke:#1f77b4;" x="149.289231" xlink:href="#m3b7d99c865" y="216.198509"/>
     <use style="fill:#1f77b4;stroke:#1f77b4;" x="81.299077" xlink:href="#m3b7d99c865" y="208.752777"/>
     <use style="fill:#1f77b4;stroke:#1f77b4;" x="83.616923" xlink:href="#m3b7d99c865" y="210.430445"/>
     <use style="fill:#1f77b4;stroke:#1f77b4;" x="93.660923" xlink:href="#m3b7d99c865" y="235.754058"/>
     <use style="fill:#1f77b4;stroke:#1f77b4;" x="89.540308" xlink:href="#m3b7d99c865" y="237.656745"/>
     <use style="fill:#1f77b4;stroke:#1f77b4;" x="98.039077" xlink:href="#m3b7d99c865" y="222.999981"/>
     <use style="fill:#1f77b4;stroke:#1f77b4;" x="98.039077" xlink:href="#m3b7d99c865" y="222.824276"/>
     <use style="fill:#1f77b4;stroke:#1f77b4;" x="134.609538" xlink:href="#m3b7d99c865" y="211.617785"/>
     <use style="fill:#1f77b4;stroke:#1f77b4;" x="149.804308" xlink:href="#m3b7d99c865" y="215.153859"/>
     <use style="fill:#1f77b4;stroke:#1f77b4;" x="162.423692" xlink:href="#m3b7d99c865" y="177.874266"/>
     <use style="fill:#1f77b4;stroke:#1f77b4;" x="200.024308" xlink:href="#m3b7d99c865" y="171.916513"/>
     <use style="fill:#1f77b4;stroke:#1f77b4;" x="308.190462" xlink:href="#m3b7d99c865" y="154.603159"/>
     <use style="fill:#1f77b4;stroke:#1f77b4;" x="309.478154" xlink:href="#m3b7d99c865" y="167.148914"/>
     <use style="fill:#1f77b4;stroke:#1f77b4;" x="127.398462" xlink:href="#m3b7d99c865" y="224.392425"/>
     <use style="fill:#1f77b4;stroke:#1f77b4;" x="100.614462" xlink:href="#m3b7d99c865" y="223.449897"/>
     <use style="fill:#1f77b4;stroke:#1f77b4;" x="75.890769" xlink:href="#m3b7d99c865" y="230.795072"/>
     <use style="fill:#1f77b4;stroke:#1f77b4;" x="72.285231" xlink:href="#m3b7d99c865" y="230.691611"/>
     <use style="fill:#1f77b4;stroke:#1f77b4;" x="128.686154" xlink:href="#m3b7d99c865" y="213.54196"/>
     <use style="fill:#1f77b4;stroke:#1f77b4;" x="88.767692" xlink:href="#m3b7d99c865" y="214.94777"/>
     <use style="fill:#1f77b4;stroke:#1f77b4;" x="146.713846" xlink:href="#m3b7d99c865" y="196.150016"/>
     <use style="fill:#1f77b4;stroke:#1f77b4;" x="141.305538" xlink:href="#m3b7d99c865" y="203.523007"/>
     <use style="fill:#1f77b4;stroke:#1f77b4;" x="92.115692" xlink:href="#m3b7d99c865" y="224.758978"/>
     <use style="fill:#1f77b4;stroke:#1f77b4;" x="90.312923" xlink:href="#m3b7d99c865" y="225.905458"/>
     <use style="fill:#1f77b4;stroke:#1f77b4;" x="149.546769" xlink:href="#m3b7d99c865" y="209.178361"/>
     <use style="fill:#1f77b4;stroke:#1f77b4;" x="116.581846" xlink:href="#m3b7d99c865" y="211.829702"/>
     <use style="fill:#1f77b4;stroke:#1f77b4;" x="96.493846" xlink:href="#m3b7d99c865" y="219.133117"/>
     <use style="fill:#1f77b4;stroke:#1f77b4;" x="101.644615" xlink:href="#m3b7d99c865" y="221.515557"/>
     <use style="fill:#1f77b4;stroke:#1f77b4;" x="102.674769" xlink:href="#m3b7d99c865" y="233.585365"/>
     <use style="fill:#1f77b4;stroke:#1f77b4;" x="93.660923" xlink:href="#m3b7d99c865" y="237.10906"/>
     <use style="fill:#1f77b4;stroke:#1f77b4;" x="92.115692" xlink:href="#m3b7d99c865" y="237.54881"/>
     <use style="fill:#1f77b4;stroke:#1f77b4;" x="86.964923" xlink:href="#m3b7d99c865" y="237.814515"/>
     <use style="fill:#1f77b4;stroke:#1f77b4;" x="102.159692" xlink:href="#m3b7d99c865" y="226.897914"/>
     <use style="fill:#1f77b4;stroke:#1f77b4;" x="90.570462" xlink:href="#m3b7d99c865" y="228.639113"/>
     <use style="fill:#1f77b4;stroke:#1f77b4;" x="85.934769" xlink:href="#m3b7d99c865" y="231.853928"/>
     <use style="fill:#1f77b4;stroke:#1f77b4;" x="84.132" xlink:href="#m3b7d99c865" y="234.365717"/>
     <use style="fill:#1f77b4;stroke:#1f77b4;" x="211.098462" xlink:href="#m3b7d99c865" y="196.829911"/>
     <use style="fill:#1f77b4;stroke:#1f77b4;" x="192.040615" xlink:href="#m3b7d99c865" y="197.413222"/>
     <use style="fill:#1f77b4;stroke:#1f77b4;" x="162.938769" xlink:href="#m3b7d99c865" y="187.938282"/>
     <use style="fill:#1f77b4;stroke:#1f77b4;" x="192.813231" xlink:href="#m3b7d99c865" y="191.013507"/>
     <use style="fill:#1f77b4;stroke:#1f77b4;" x="122.505231" xlink:href="#m3b7d99c865" y="201.887648"/>
     <use style="fill:#1f77b4;stroke:#1f77b4;" x="137.7" xlink:href="#m3b7d99c865" y="203.171318"/>
     <use style="fill:#1f77b4;stroke:#1f77b4;" x="60.180923" xlink:href="#m3b7d99c865" y="231.73803"/>
     <use style="fill:#1f77b4;stroke:#1f77b4;" x="71.255077" xlink:href="#m3b7d99c865" y="233.2862"/>
     <use style="fill:#1f77b4;stroke:#1f77b4;" x="134.352" xlink:href="#m3b7d99c865" y="231.104773"/>
     <use style="fill:#1f77b4;stroke:#1f77b4;" x="121.475077" xlink:href="#m3b7d99c865" y="233.336198"/>
     <use style="fill:#1f77b4;stroke:#1f77b4;" x="81.814154" xlink:href="#m3b7d99c865" y="223.953256"/>
     <use style="fill:#1f77b4;stroke:#1f77b4;" x="81.556615" xlink:href="#m3b7d99c865" y="224.18929"/>
     <use style="fill:#1f77b4;stroke:#1f77b4;" x="151.607077" xlink:href="#m3b7d99c865" y="174.028545"/>
     <use style="fill:#1f77b4;stroke:#1f77b4;" x="167.574462" xlink:href="#m3b7d99c865" y="184.902723"/>
     <use style="fill:#1f77b4;stroke:#1f77b4;" x="143.623385" xlink:href="#m3b7d99c865" y="205.851745"/>
     <use style="fill:#1f77b4;stroke:#1f77b4;" x="144.911077" xlink:href="#m3b7d99c865" y="210.356286"/>
     <use style="fill:#1f77b4;stroke:#1f77b4;" x="124.823077" xlink:href="#m3b7d99c865" y="217.254473"/>
     <use style="fill:#1f77b4;stroke:#1f77b4;" x="120.187385" xlink:href="#m3b7d99c865" y="218.242928"/>
     <use style="fill:#1f77b4;stroke:#1f77b4;" x="239.942769" xlink:href="#m3b7d99c865" y="37.178201"/>
     <use style="fill:#1f77b4;stroke:#1f77b4;" x="258.485538" xlink:href="#m3b7d99c865" y="55.064354"/>
     <use style="fill:#1f77b4;stroke:#1f77b4;" x="119.157231" xlink:href="#m3b7d99c865" y="228.785684"/>
     <use style="fill:#1f77b4;stroke:#1f77b4;" x="95.463692" xlink:href="#m3b7d99c865" y="229.822851"/>
     <use style="fill:#1f77b4;stroke:#1f77b4;" x="77.178462" xlink:href="#m3b7d99c865" y="227.492093"/>
     <use style="fill:#1f77b4;stroke:#1f77b4;" x="80.011385" xlink:href="#m3b7d99c865" y="229.703058"/>
     <use style="fill:#1f77b4;stroke:#1f77b4;" x="66.104308" xlink:href="#m3b7d99c865" y="243.386509"/>
     <use style="fill:#1f77b4;stroke:#1f77b4;" x="57.863077" xlink:href="#m3b7d99c865" y="243.71916"/>
     <use style="fill:#1f77b4;stroke:#1f77b4;" x="75.118154" xlink:href="#m3b7d99c865" y="240.330012"/>
     <use style="fill:#1f77b4;stroke:#1f77b4;" x="58.893231" xlink:href="#m3b7d99c865" y="239.719131"/>
     <use style="fill:#1f77b4;stroke:#1f77b4;" x="76.663385" xlink:href="#m3b7d99c865" y="232.080466"/>
     <use style="fill:#1f77b4;stroke:#1f77b4;" x="84.389538" xlink:href="#m3b7d99c865" y="233.511756"/>
     <use style="fill:#1f77b4;stroke:#1f77b4;" x="89.025231" xlink:href="#m3b7d99c865" y="234.407643"/>
     <use style="fill:#1f77b4;stroke:#1f77b4;" x="67.392" xlink:href="#m3b7d99c865" y="235.512475"/>
    </g>
   </g>
   <g id="matplotlib.axis_1">
    <g id="xtick_1">
     <g id="line2d_1">
      <defs>
       <path d="M 0 0 
L 0 3.5 
" id="mcf0766aa81" style="stroke:#000000;stroke-width:0.8;"/>
      </defs>
      <g>
       <use style="stroke:#000000;stroke-width:0.8;" x="54" xlink:href="#mcf0766aa81" y="252"/>
      </g>
     </g>
     <g id="text_1">
      <!-- 0 -->
      <defs>
       <path d="M 31.78125 66.40625 
Q 24.171875 66.40625 20.328125 58.90625 
Q 16.5 51.421875 16.5 36.375 
Q 16.5 21.390625 20.328125 13.890625 
Q 24.171875 6.390625 31.78125 6.390625 
Q 39.453125 6.390625 43.28125 13.890625 
Q 47.125 21.390625 47.125 36.375 
Q 47.125 51.421875 43.28125 58.90625 
Q 39.453125 66.40625 31.78125 66.40625 
z
M 31.78125 74.21875 
Q 44.046875 74.21875 50.515625 64.515625 
Q 56.984375 54.828125 56.984375 36.375 
Q 56.984375 17.96875 50.515625 8.265625 
Q 44.046875 -1.421875 31.78125 -1.421875 
Q 19.53125 -1.421875 13.0625 8.265625 
Q 6.59375 17.96875 6.59375 36.375 
Q 6.59375 54.828125 13.0625 64.515625 
Q 19.53125 74.21875 31.78125 74.21875 
z
" id="DejaVuSans-48"/>
      </defs>
      <g transform="translate(50.81875 266.598437)scale(0.1 -0.1)">
       <use xlink:href="#DejaVuSans-48"/>
      </g>
     </g>
    </g>
    <g id="xtick_2">
     <g id="line2d_2">
      <g>
       <use style="stroke:#000000;stroke-width:0.8;" x="105.507692" xlink:href="#mcf0766aa81" y="252"/>
      </g>
     </g>
     <g id="text_2">
      <!-- 20 -->
      <defs>
       <path d="M 19.1875 8.296875 
L 53.609375 8.296875 
L 53.609375 0 
L 7.328125 0 
L 7.328125 8.296875 
Q 12.9375 14.109375 22.625 23.890625 
Q 32.328125 33.6875 34.8125 36.53125 
Q 39.546875 41.84375 41.421875 45.53125 
Q 43.3125 49.21875 43.3125 52.78125 
Q 43.3125 58.59375 39.234375 62.25 
Q 35.15625 65.921875 28.609375 65.921875 
Q 23.96875 65.921875 18.8125 64.3125 
Q 13.671875 62.703125 7.8125 59.421875 
L 7.8125 69.390625 
Q 13.765625 71.78125 18.9375 73 
Q 24.125 74.21875 28.421875 74.21875 
Q 39.75 74.21875 46.484375 68.546875 
Q 53.21875 62.890625 53.21875 53.421875 
Q 53.21875 48.921875 51.53125 44.890625 
Q 49.859375 40.875 45.40625 35.40625 
Q 44.1875 33.984375 37.640625 27.21875 
Q 31.109375 20.453125 19.1875 8.296875 
z
" id="DejaVuSans-50"/>
      </defs>
      <g transform="translate(99.145192 266.598437)scale(0.1 -0.1)">
       <use xlink:href="#DejaVuSans-50"/>
       <use x="63.623047" xlink:href="#DejaVuSans-48"/>
      </g>
     </g>
    </g>
    <g id="xtick_3">
     <g id="line2d_3">
      <g>
       <use style="stroke:#000000;stroke-width:0.8;" x="157.015385" xlink:href="#mcf0766aa81" y="252"/>
      </g>
     </g>
     <g id="text_3">
      <!-- 40 -->
      <defs>
       <path d="M 37.796875 64.3125 
L 12.890625 25.390625 
L 37.796875 25.390625 
z
M 35.203125 72.90625 
L 47.609375 72.90625 
L 47.609375 25.390625 
L 58.015625 25.390625 
L 58.015625 17.1875 
L 47.609375 17.1875 
L 47.609375 0 
L 37.796875 0 
L 37.796875 17.1875 
L 4.890625 17.1875 
L 4.890625 26.703125 
z
" id="DejaVuSans-52"/>
      </defs>
      <g transform="translate(150.652885 266.598437)scale(0.1 -0.1)">
       <use xlink:href="#DejaVuSans-52"/>
       <use x="63.623047" xlink:href="#DejaVuSans-48"/>
      </g>
     </g>
    </g>
    <g id="xtick_4">
     <g id="line2d_4">
      <g>
       <use style="stroke:#000000;stroke-width:0.8;" x="208.523077" xlink:href="#mcf0766aa81" y="252"/>
      </g>
     </g>
     <g id="text_4">
      <!-- 60 -->
      <defs>
       <path d="M 33.015625 40.375 
Q 26.375 40.375 22.484375 35.828125 
Q 18.609375 31.296875 18.609375 23.390625 
Q 18.609375 15.53125 22.484375 10.953125 
Q 26.375 6.390625 33.015625 6.390625 
Q 39.65625 6.390625 43.53125 10.953125 
Q 47.40625 15.53125 47.40625 23.390625 
Q 47.40625 31.296875 43.53125 35.828125 
Q 39.65625 40.375 33.015625 40.375 
z
M 52.59375 71.296875 
L 52.59375 62.3125 
Q 48.875 64.0625 45.09375 64.984375 
Q 41.3125 65.921875 37.59375 65.921875 
Q 27.828125 65.921875 22.671875 59.328125 
Q 17.53125 52.734375 16.796875 39.40625 
Q 19.671875 43.65625 24.015625 45.921875 
Q 28.375 48.1875 33.59375 48.1875 
Q 44.578125 48.1875 50.953125 41.515625 
Q 57.328125 34.859375 57.328125 23.390625 
Q 57.328125 12.15625 50.6875 5.359375 
Q 44.046875 -1.421875 33.015625 -1.421875 
Q 20.359375 -1.421875 13.671875 8.265625 
Q 6.984375 17.96875 6.984375 36.375 
Q 6.984375 53.65625 15.1875 63.9375 
Q 23.390625 74.21875 37.203125 74.21875 
Q 40.921875 74.21875 44.703125 73.484375 
Q 48.484375 72.75 52.59375 71.296875 
z
" id="DejaVuSans-54"/>
      </defs>
      <g transform="translate(202.160577 266.598437)scale(0.1 -0.1)">
       <use xlink:href="#DejaVuSans-54"/>
       <use x="63.623047" xlink:href="#DejaVuSans-48"/>
      </g>
     </g>
    </g>
    <g id="xtick_5">
     <g id="line2d_5">
      <g>
       <use style="stroke:#000000;stroke-width:0.8;" x="260.030769" xlink:href="#mcf0766aa81" y="252"/>
      </g>
     </g>
     <g id="text_5">
      <!-- 80 -->
      <defs>
       <path d="M 31.78125 34.625 
Q 24.75 34.625 20.71875 30.859375 
Q 16.703125 27.09375 16.703125 20.515625 
Q 16.703125 13.921875 20.71875 10.15625 
Q 24.75 6.390625 31.78125 6.390625 
Q 38.8125 6.390625 42.859375 10.171875 
Q 46.921875 13.96875 46.921875 20.515625 
Q 46.921875 27.09375 42.890625 30.859375 
Q 38.875 34.625 31.78125 34.625 
z
M 21.921875 38.8125 
Q 15.578125 40.375 12.03125 44.71875 
Q 8.5 49.078125 8.5 55.328125 
Q 8.5 64.0625 14.71875 69.140625 
Q 20.953125 74.21875 31.78125 74.21875 
Q 42.671875 74.21875 48.875 69.140625 
Q 55.078125 64.0625 55.078125 55.328125 
Q 55.078125 49.078125 51.53125 44.71875 
Q 48 40.375 41.703125 38.8125 
Q 48.828125 37.15625 52.796875 32.3125 
Q 56.78125 27.484375 56.78125 20.515625 
Q 56.78125 9.90625 50.3125 4.234375 
Q 43.84375 -1.421875 31.78125 -1.421875 
Q 19.734375 -1.421875 13.25 4.234375 
Q 6.78125 9.90625 6.78125 20.515625 
Q 6.78125 27.484375 10.78125 32.3125 
Q 14.796875 37.15625 21.921875 38.8125 
z
M 18.3125 54.390625 
Q 18.3125 48.734375 21.84375 45.5625 
Q 25.390625 42.390625 31.78125 42.390625 
Q 38.140625 42.390625 41.71875 45.5625 
Q 45.3125 48.734375 45.3125 54.390625 
Q 45.3125 60.0625 41.71875 63.234375 
Q 38.140625 66.40625 31.78125 66.40625 
Q 25.390625 66.40625 21.84375 63.234375 
Q 18.3125 60.0625 18.3125 54.390625 
z
" id="DejaVuSans-56"/>
      </defs>
      <g transform="translate(253.668269 266.598437)scale(0.1 -0.1)">
       <use xlink:href="#DejaVuSans-56"/>
       <use x="63.623047" xlink:href="#DejaVuSans-48"/>
      </g>
     </g>
    </g>
    <g id="xtick_6">
     <g id="line2d_6">
      <g>
       <use style="stroke:#000000;stroke-width:0.8;" x="311.538462" xlink:href="#mcf0766aa81" y="252"/>
      </g>
     </g>
     <g id="text_6">
      <!-- 100 -->
      <defs>
       <path d="M 12.40625 8.296875 
L 28.515625 8.296875 
L 28.515625 63.921875 
L 10.984375 60.40625 
L 10.984375 69.390625 
L 28.421875 72.90625 
L 38.28125 72.90625 
L 38.28125 8.296875 
L 54.390625 8.296875 
L 54.390625 0 
L 12.40625 0 
z
" id="DejaVuSans-49"/>
      </defs>
      <g transform="translate(301.994712 266.598437)scale(0.1 -0.1)">
       <use xlink:href="#DejaVuSans-49"/>
       <use x="63.623047" xlink:href="#DejaVuSans-48"/>
       <use x="127.246094" xlink:href="#DejaVuSans-48"/>
      </g>
     </g>
    </g>
    <g id="xtick_7">
     <g id="line2d_7">
      <g>
       <use style="stroke:#000000;stroke-width:0.8;" x="363.046154" xlink:href="#mcf0766aa81" y="252"/>
      </g>
     </g>
     <g id="text_7">
      <!-- 120 -->
      <g transform="translate(353.502404 266.598437)scale(0.1 -0.1)">
       <use xlink:href="#DejaVuSans-49"/>
       <use x="63.623047" xlink:href="#DejaVuSans-50"/>
       <use x="127.246094" xlink:href="#DejaVuSans-48"/>
      </g>
     </g>
    </g>
    <g id="text_8">
     <!-- Actual Rate -->
     <defs>
      <path d="M 34.1875 63.1875 
L 20.796875 26.90625 
L 47.609375 26.90625 
z
M 28.609375 72.90625 
L 39.796875 72.90625 
L 67.578125 0 
L 57.328125 0 
L 50.6875 18.703125 
L 17.828125 18.703125 
L 11.1875 0 
L 0.78125 0 
z
" id="DejaVuSans-65"/>
      <path d="M 48.78125 52.59375 
L 48.78125 44.1875 
Q 44.96875 46.296875 41.140625 47.34375 
Q 37.3125 48.390625 33.40625 48.390625 
Q 24.65625 48.390625 19.8125 42.84375 
Q 14.984375 37.3125 14.984375 27.296875 
Q 14.984375 17.28125 19.8125 11.734375 
Q 24.65625 6.203125 33.40625 6.203125 
Q 37.3125 6.203125 41.140625 7.25 
Q 44.96875 8.296875 48.78125 10.40625 
L 48.78125 2.09375 
Q 45.015625 0.34375 40.984375 -0.53125 
Q 36.96875 -1.421875 32.421875 -1.421875 
Q 20.0625 -1.421875 12.78125 6.34375 
Q 5.515625 14.109375 5.515625 27.296875 
Q 5.515625 40.671875 12.859375 48.328125 
Q 20.21875 56 33.015625 56 
Q 37.15625 56 41.109375 55.140625 
Q 45.0625 54.296875 48.78125 52.59375 
z
" id="DejaVuSans-99"/>
      <path d="M 18.3125 70.21875 
L 18.3125 54.6875 
L 36.8125 54.6875 
L 36.8125 47.703125 
L 18.3125 47.703125 
L 18.3125 18.015625 
Q 18.3125 11.328125 20.140625 9.421875 
Q 21.96875 7.515625 27.59375 7.515625 
L 36.8125 7.515625 
L 36.8125 0 
L 27.59375 0 
Q 17.1875 0 13.234375 3.875 
Q 9.28125 7.765625 9.28125 18.015625 
L 9.28125 47.703125 
L 2.6875 47.703125 
L 2.6875 54.6875 
L 9.28125 54.6875 
L 9.28125 70.21875 
z
" id="DejaVuSans-116"/>
      <path d="M 8.5 21.578125 
L 8.5 54.6875 
L 17.484375 54.6875 
L 17.484375 21.921875 
Q 17.484375 14.15625 20.5 10.265625 
Q 23.53125 6.390625 29.59375 6.390625 
Q 36.859375 6.390625 41.078125 11.03125 
Q 45.3125 15.671875 45.3125 23.6875 
L 45.3125 54.6875 
L 54.296875 54.6875 
L 54.296875 0 
L 45.3125 0 
L 45.3125 8.40625 
Q 42.046875 3.421875 37.71875 1 
Q 33.40625 -1.421875 27.6875 -1.421875 
Q 18.265625 -1.421875 13.375 4.4375 
Q 8.5 10.296875 8.5 21.578125 
z
M 31.109375 56 
z
" id="DejaVuSans-117"/>
      <path d="M 34.28125 27.484375 
Q 23.390625 27.484375 19.1875 25 
Q 14.984375 22.515625 14.984375 16.5 
Q 14.984375 11.71875 18.140625 8.90625 
Q 21.296875 6.109375 26.703125 6.109375 
Q 34.1875 6.109375 38.703125 11.40625 
Q 43.21875 16.703125 43.21875 25.484375 
L 43.21875 27.484375 
z
M 52.203125 31.203125 
L 52.203125 0 
L 43.21875 0 
L 43.21875 8.296875 
Q 40.140625 3.328125 35.546875 0.953125 
Q 30.953125 -1.421875 24.3125 -1.421875 
Q 15.921875 -1.421875 10.953125 3.296875 
Q 6 8.015625 6 15.921875 
Q 6 25.140625 12.171875 29.828125 
Q 18.359375 34.515625 30.609375 34.515625 
L 43.21875 34.515625 
L 43.21875 35.40625 
Q 43.21875 41.609375 39.140625 45 
Q 35.0625 48.390625 27.6875 48.390625 
Q 23 48.390625 18.546875 47.265625 
Q 14.109375 46.140625 10.015625 43.890625 
L 10.015625 52.203125 
Q 14.9375 54.109375 19.578125 55.046875 
Q 24.21875 56 28.609375 56 
Q 40.484375 56 46.34375 49.84375 
Q 52.203125 43.703125 52.203125 31.203125 
z
" id="DejaVuSans-97"/>
      <path d="M 9.421875 75.984375 
L 18.40625 75.984375 
L 18.40625 0 
L 9.421875 0 
z
" id="DejaVuSans-108"/>
      <path id="DejaVuSans-32"/>
      <path d="M 44.390625 34.1875 
Q 47.5625 33.109375 50.5625 29.59375 
Q 53.5625 26.078125 56.59375 19.921875 
L 66.609375 0 
L 56 0 
L 46.6875 18.703125 
Q 43.0625 26.03125 39.671875 28.421875 
Q 36.28125 30.8125 30.421875 30.8125 
L 19.671875 30.8125 
L 19.671875 0 
L 9.8125 0 
L 9.8125 72.90625 
L 32.078125 72.90625 
Q 44.578125 72.90625 50.734375 67.671875 
Q 56.890625 62.453125 56.890625 51.90625 
Q 56.890625 45.015625 53.6875 40.46875 
Q 50.484375 35.9375 44.390625 34.1875 
z
M 19.671875 64.796875 
L 19.671875 38.921875 
L 32.078125 38.921875 
Q 39.203125 38.921875 42.84375 42.21875 
Q 46.484375 45.515625 46.484375 51.90625 
Q 46.484375 58.296875 42.84375 61.546875 
Q 39.203125 64.796875 32.078125 64.796875 
z
" id="DejaVuSans-82"/>
      <path d="M 56.203125 29.59375 
L 56.203125 25.203125 
L 14.890625 25.203125 
Q 15.484375 15.921875 20.484375 11.0625 
Q 25.484375 6.203125 34.421875 6.203125 
Q 39.59375 6.203125 44.453125 7.46875 
Q 49.3125 8.734375 54.109375 11.28125 
L 54.109375 2.78125 
Q 49.265625 0.734375 44.1875 -0.34375 
Q 39.109375 -1.421875 33.890625 -1.421875 
Q 20.796875 -1.421875 13.15625 6.1875 
Q 5.515625 13.8125 5.515625 26.8125 
Q 5.515625 40.234375 12.765625 48.109375 
Q 20.015625 56 32.328125 56 
Q 43.359375 56 49.78125 48.890625 
Q 56.203125 41.796875 56.203125 29.59375 
z
M 47.21875 32.234375 
Q 47.125 39.59375 43.09375 43.984375 
Q 39.0625 48.390625 32.421875 48.390625 
Q 24.90625 48.390625 20.390625 44.140625 
Q 15.875 39.890625 15.1875 32.171875 
z
" id="DejaVuSans-101"/>
     </defs>
     <g transform="translate(192.486719 280.276563)scale(0.1 -0.1)">
      <use xlink:href="#DejaVuSans-65"/>
      <use x="68.392578" xlink:href="#DejaVuSans-99"/>
      <use x="123.373047" xlink:href="#DejaVuSans-116"/>
      <use x="162.582031" xlink:href="#DejaVuSans-117"/>
      <use x="225.960938" xlink:href="#DejaVuSans-97"/>
      <use x="287.240234" xlink:href="#DejaVuSans-108"/>
      <use x="315.023438" xlink:href="#DejaVuSans-32"/>
      <use x="346.810547" xlink:href="#DejaVuSans-82"/>
      <use x="416.261719" xlink:href="#DejaVuSans-97"/>
      <use x="477.541016" xlink:href="#DejaVuSans-116"/>
      <use x="516.75" xlink:href="#DejaVuSans-101"/>
     </g>
    </g>
   </g>
   <g id="matplotlib.axis_2">
    <g id="ytick_1">
     <g id="line2d_8">
      <defs>
       <path d="M 0 0 
L -3.5 0 
" id="m4a28864729" style="stroke:#000000;stroke-width:0.8;"/>
      </defs>
      <g>
       <use style="stroke:#000000;stroke-width:0.8;" x="54" xlink:href="#m4a28864729" y="252"/>
      </g>
     </g>
     <g id="text_9">
      <!-- 0 -->
      <g transform="translate(40.6375 255.799219)scale(0.1 -0.1)">
       <use xlink:href="#DejaVuSans-48"/>
      </g>
     </g>
    </g>
    <g id="ytick_2">
     <g id="line2d_9">
      <g>
       <use style="stroke:#000000;stroke-width:0.8;" x="54" xlink:href="#m4a28864729" y="218.547692"/>
      </g>
     </g>
     <g id="text_10">
      <!-- 20 -->
      <g transform="translate(34.275 222.346911)scale(0.1 -0.1)">
       <use xlink:href="#DejaVuSans-50"/>
       <use x="63.623047" xlink:href="#DejaVuSans-48"/>
      </g>
     </g>
    </g>
    <g id="ytick_3">
     <g id="line2d_10">
      <g>
       <use style="stroke:#000000;stroke-width:0.8;" x="54" xlink:href="#m4a28864729" y="185.095385"/>
      </g>
     </g>
     <g id="text_11">
      <!-- 40 -->
      <g transform="translate(34.275 188.894603)scale(0.1 -0.1)">
       <use xlink:href="#DejaVuSans-52"/>
       <use x="63.623047" xlink:href="#DejaVuSans-48"/>
      </g>
     </g>
    </g>
    <g id="ytick_4">
     <g id="line2d_11">
      <g>
       <use style="stroke:#000000;stroke-width:0.8;" x="54" xlink:href="#m4a28864729" y="151.643077"/>
      </g>
     </g>
     <g id="text_12">
      <!-- 60 -->
      <g transform="translate(34.275 155.442296)scale(0.1 -0.1)">
       <use xlink:href="#DejaVuSans-54"/>
       <use x="63.623047" xlink:href="#DejaVuSans-48"/>
      </g>
     </g>
    </g>
    <g id="ytick_5">
     <g id="line2d_12">
      <g>
       <use style="stroke:#000000;stroke-width:0.8;" x="54" xlink:href="#m4a28864729" y="118.190769"/>
      </g>
     </g>
     <g id="text_13">
      <!-- 80 -->
      <g transform="translate(34.275 121.989988)scale(0.1 -0.1)">
       <use xlink:href="#DejaVuSans-56"/>
       <use x="63.623047" xlink:href="#DejaVuSans-48"/>
      </g>
     </g>
    </g>
    <g id="ytick_6">
     <g id="line2d_13">
      <g>
       <use style="stroke:#000000;stroke-width:0.8;" x="54" xlink:href="#m4a28864729" y="84.738462"/>
      </g>
     </g>
     <g id="text_14">
      <!-- 100 -->
      <g transform="translate(27.9125 88.53768)scale(0.1 -0.1)">
       <use xlink:href="#DejaVuSans-49"/>
       <use x="63.623047" xlink:href="#DejaVuSans-48"/>
       <use x="127.246094" xlink:href="#DejaVuSans-48"/>
      </g>
     </g>
    </g>
    <g id="ytick_7">
     <g id="line2d_14">
      <g>
       <use style="stroke:#000000;stroke-width:0.8;" x="54" xlink:href="#m4a28864729" y="51.286154"/>
      </g>
     </g>
     <g id="text_15">
      <!-- 120 -->
      <g transform="translate(27.9125 55.085373)scale(0.1 -0.1)">
       <use xlink:href="#DejaVuSans-49"/>
       <use x="63.623047" xlink:href="#DejaVuSans-50"/>
       <use x="127.246094" xlink:href="#DejaVuSans-48"/>
      </g>
     </g>
    </g>
    <g id="text_16">
     <!-- Predicted Rate -->
     <defs>
      <path d="M 19.671875 64.796875 
L 19.671875 37.40625 
L 32.078125 37.40625 
Q 38.96875 37.40625 42.71875 40.96875 
Q 46.484375 44.53125 46.484375 51.125 
Q 46.484375 57.671875 42.71875 61.234375 
Q 38.96875 64.796875 32.078125 64.796875 
z
M 9.8125 72.90625 
L 32.078125 72.90625 
Q 44.34375 72.90625 50.609375 67.359375 
Q 56.890625 61.8125 56.890625 51.125 
Q 56.890625 40.328125 50.609375 34.8125 
Q 44.34375 29.296875 32.078125 29.296875 
L 19.671875 29.296875 
L 19.671875 0 
L 9.8125 0 
z
" id="DejaVuSans-80"/>
      <path d="M 41.109375 46.296875 
Q 39.59375 47.171875 37.8125 47.578125 
Q 36.03125 48 33.890625 48 
Q 26.265625 48 22.1875 43.046875 
Q 18.109375 38.09375 18.109375 28.8125 
L 18.109375 0 
L 9.078125 0 
L 9.078125 54.6875 
L 18.109375 54.6875 
L 18.109375 46.1875 
Q 20.953125 51.171875 25.484375 53.578125 
Q 30.03125 56 36.53125 56 
Q 37.453125 56 38.578125 55.875 
Q 39.703125 55.765625 41.0625 55.515625 
z
" id="DejaVuSans-114"/>
      <path d="M 45.40625 46.390625 
L 45.40625 75.984375 
L 54.390625 75.984375 
L 54.390625 0 
L 45.40625 0 
L 45.40625 8.203125 
Q 42.578125 3.328125 38.25 0.953125 
Q 33.9375 -1.421875 27.875 -1.421875 
Q 17.96875 -1.421875 11.734375 6.484375 
Q 5.515625 14.40625 5.515625 27.296875 
Q 5.515625 40.1875 11.734375 48.09375 
Q 17.96875 56 27.875 56 
Q 33.9375 56 38.25 53.625 
Q 42.578125 51.265625 45.40625 46.390625 
z
M 14.796875 27.296875 
Q 14.796875 17.390625 18.875 11.75 
Q 22.953125 6.109375 30.078125 6.109375 
Q 37.203125 6.109375 41.296875 11.75 
Q 45.40625 17.390625 45.40625 27.296875 
Q 45.40625 37.203125 41.296875 42.84375 
Q 37.203125 48.484375 30.078125 48.484375 
Q 22.953125 48.484375 18.875 42.84375 
Q 14.796875 37.203125 14.796875 27.296875 
z
" id="DejaVuSans-100"/>
      <path d="M 9.421875 54.6875 
L 18.40625 54.6875 
L 18.40625 0 
L 9.421875 0 
z
M 9.421875 75.984375 
L 18.40625 75.984375 
L 18.40625 64.59375 
L 9.421875 64.59375 
z
" id="DejaVuSans-105"/>
     </defs>
     <g transform="translate(21.832812 180.110469)rotate(-90)scale(0.1 -0.1)">
      <use xlink:href="#DejaVuSans-80"/>
      <use x="60.287109" xlink:href="#DejaVuSans-114"/>
      <use x="101.369141" xlink:href="#DejaVuSans-101"/>
      <use x="162.892578" xlink:href="#DejaVuSans-100"/>
      <use x="226.369141" xlink:href="#DejaVuSans-105"/>
      <use x="254.152344" xlink:href="#DejaVuSans-99"/>
      <use x="309.132812" xlink:href="#DejaVuSans-116"/>
      <use x="348.341797" xlink:href="#DejaVuSans-101"/>
      <use x="409.865234" xlink:href="#DejaVuSans-100"/>
      <use x="473.341797" xlink:href="#DejaVuSans-32"/>
      <use x="505.128906" xlink:href="#DejaVuSans-82"/>
      <use x="574.580078" xlink:href="#DejaVuSans-97"/>
      <use x="635.859375" xlink:href="#DejaVuSans-116"/>
      <use x="675.068359" xlink:href="#DejaVuSans-101"/>
     </g>
    </g>
   </g>
   <g id="patch_3">
    <path d="M 54 252 
L 54 34.56 
" style="fill:none;stroke:#000000;stroke-linecap:square;stroke-linejoin:miter;stroke-width:0.8;"/>
   </g>
   <g id="patch_4">
    <path d="M 388.8 252 
L 388.8 34.56 
" style="fill:none;stroke:#000000;stroke-linecap:square;stroke-linejoin:miter;stroke-width:0.8;"/>
   </g>
   <g id="patch_5">
    <path d="M 54 252 
L 388.8 252 
" style="fill:none;stroke:#000000;stroke-linecap:square;stroke-linejoin:miter;stroke-width:0.8;"/>
   </g>
   <g id="patch_6">
    <path d="M 54 34.56 
L 388.8 34.56 
" style="fill:none;stroke:#000000;stroke-linecap:square;stroke-linejoin:miter;stroke-width:0.8;"/>
   </g>
   <g id="text_17">
    <!-- Prediction Failure to Graduate Rate vs Actual -->
    <defs>
     <path d="M 30.609375 48.390625 
Q 23.390625 48.390625 19.1875 42.75 
Q 14.984375 37.109375 14.984375 27.296875 
Q 14.984375 17.484375 19.15625 11.84375 
Q 23.34375 6.203125 30.609375 6.203125 
Q 37.796875 6.203125 41.984375 11.859375 
Q 46.1875 17.53125 46.1875 27.296875 
Q 46.1875 37.015625 41.984375 42.703125 
Q 37.796875 48.390625 30.609375 48.390625 
z
M 30.609375 56 
Q 42.328125 56 49.015625 48.375 
Q 55.71875 40.765625 55.71875 27.296875 
Q 55.71875 13.875 49.015625 6.21875 
Q 42.328125 -1.421875 30.609375 -1.421875 
Q 18.84375 -1.421875 12.171875 6.21875 
Q 5.515625 13.875 5.515625 27.296875 
Q 5.515625 40.765625 12.171875 48.375 
Q 18.84375 56 30.609375 56 
z
" id="DejaVuSans-111"/>
     <path d="M 54.890625 33.015625 
L 54.890625 0 
L 45.90625 0 
L 45.90625 32.71875 
Q 45.90625 40.484375 42.875 44.328125 
Q 39.84375 48.1875 33.796875 48.1875 
Q 26.515625 48.1875 22.3125 43.546875 
Q 18.109375 38.921875 18.109375 30.90625 
L 18.109375 0 
L 9.078125 0 
L 9.078125 54.6875 
L 18.109375 54.6875 
L 18.109375 46.1875 
Q 21.34375 51.125 25.703125 53.5625 
Q 30.078125 56 35.796875 56 
Q 45.21875 56 50.046875 50.171875 
Q 54.890625 44.34375 54.890625 33.015625 
z
" id="DejaVuSans-110"/>
     <path d="M 9.8125 72.90625 
L 51.703125 72.90625 
L 51.703125 64.59375 
L 19.671875 64.59375 
L 19.671875 43.109375 
L 48.578125 43.109375 
L 48.578125 34.8125 
L 19.671875 34.8125 
L 19.671875 0 
L 9.8125 0 
z
" id="DejaVuSans-70"/>
     <path d="M 59.515625 10.40625 
L 59.515625 29.984375 
L 43.40625 29.984375 
L 43.40625 38.09375 
L 69.28125 38.09375 
L 69.28125 6.78125 
Q 63.578125 2.734375 56.6875 0.65625 
Q 49.8125 -1.421875 42 -1.421875 
Q 24.90625 -1.421875 15.25 8.5625 
Q 5.609375 18.5625 5.609375 36.375 
Q 5.609375 54.25 15.25 64.234375 
Q 24.90625 74.21875 42 74.21875 
Q 49.125 74.21875 55.546875 72.453125 
Q 61.96875 70.703125 67.390625 67.28125 
L 67.390625 56.78125 
Q 61.921875 61.421875 55.765625 63.765625 
Q 49.609375 66.109375 42.828125 66.109375 
Q 29.4375 66.109375 22.71875 58.640625 
Q 16.015625 51.171875 16.015625 36.375 
Q 16.015625 21.625 22.71875 14.15625 
Q 29.4375 6.6875 42.828125 6.6875 
Q 48.046875 6.6875 52.140625 7.59375 
Q 56.25 8.5 59.515625 10.40625 
z
" id="DejaVuSans-71"/>
     <path d="M 2.984375 54.6875 
L 12.5 54.6875 
L 29.59375 8.796875 
L 46.6875 54.6875 
L 56.203125 54.6875 
L 35.6875 0 
L 23.484375 0 
z
" id="DejaVuSans-118"/>
     <path d="M 44.28125 53.078125 
L 44.28125 44.578125 
Q 40.484375 46.53125 36.375 47.5 
Q 32.28125 48.484375 27.875 48.484375 
Q 21.1875 48.484375 17.84375 46.4375 
Q 14.5 44.390625 14.5 40.28125 
Q 14.5 37.15625 16.890625 35.375 
Q 19.28125 33.59375 26.515625 31.984375 
L 29.59375 31.296875 
Q 39.15625 29.25 43.1875 25.515625 
Q 47.21875 21.78125 47.21875 15.09375 
Q 47.21875 7.46875 41.1875 3.015625 
Q 35.15625 -1.421875 24.609375 -1.421875 
Q 20.21875 -1.421875 15.453125 -0.5625 
Q 10.6875 0.296875 5.421875 2 
L 5.421875 11.28125 
Q 10.40625 8.6875 15.234375 7.390625 
Q 20.0625 6.109375 24.8125 6.109375 
Q 31.15625 6.109375 34.5625 8.28125 
Q 37.984375 10.453125 37.984375 14.40625 
Q 37.984375 18.0625 35.515625 20.015625 
Q 33.0625 21.96875 24.703125 23.78125 
L 21.578125 24.515625 
Q 13.234375 26.265625 9.515625 29.90625 
Q 5.8125 33.546875 5.8125 39.890625 
Q 5.8125 47.609375 11.28125 51.796875 
Q 16.75 56 26.8125 56 
Q 31.78125 56 36.171875 55.265625 
Q 40.578125 54.546875 44.28125 53.078125 
z
" id="DejaVuSans-115"/>
    </defs>
    <g transform="translate(85.890938 28.56)scale(0.12 -0.12)">
     <use xlink:href="#DejaVuSans-80"/>
     <use x="60.287109" xlink:href="#DejaVuSans-114"/>
     <use x="101.369141" xlink:href="#DejaVuSans-101"/>
     <use x="162.892578" xlink:href="#DejaVuSans-100"/>
     <use x="226.369141" xlink:href="#DejaVuSans-105"/>
     <use x="254.152344" xlink:href="#DejaVuSans-99"/>
     <use x="309.132812" xlink:href="#DejaVuSans-116"/>
     <use x="348.341797" xlink:href="#DejaVuSans-105"/>
     <use x="376.125" xlink:href="#DejaVuSans-111"/>
     <use x="437.306641" xlink:href="#DejaVuSans-110"/>
     <use x="500.685547" xlink:href="#DejaVuSans-32"/>
     <use x="532.472656" xlink:href="#DejaVuSans-70"/>
     <use x="589.851562" xlink:href="#DejaVuSans-97"/>
     <use x="651.130859" xlink:href="#DejaVuSans-105"/>
     <use x="678.914062" xlink:href="#DejaVuSans-108"/>
     <use x="706.697266" xlink:href="#DejaVuSans-117"/>
     <use x="770.076172" xlink:href="#DejaVuSans-114"/>
     <use x="811.158203" xlink:href="#DejaVuSans-101"/>
     <use x="872.681641" xlink:href="#DejaVuSans-32"/>
     <use x="904.46875" xlink:href="#DejaVuSans-116"/>
     <use x="943.677734" xlink:href="#DejaVuSans-111"/>
     <use x="1004.859375" xlink:href="#DejaVuSans-32"/>
     <use x="1036.646484" xlink:href="#DejaVuSans-71"/>
     <use x="1114.136719" xlink:href="#DejaVuSans-114"/>
     <use x="1155.25" xlink:href="#DejaVuSans-97"/>
     <use x="1216.529297" xlink:href="#DejaVuSans-100"/>
     <use x="1280.005859" xlink:href="#DejaVuSans-117"/>
     <use x="1343.384766" xlink:href="#DejaVuSans-97"/>
     <use x="1404.664062" xlink:href="#DejaVuSans-116"/>
     <use x="1443.873047" xlink:href="#DejaVuSans-101"/>
     <use x="1505.396484" xlink:href="#DejaVuSans-32"/>
     <use x="1537.183594" xlink:href="#DejaVuSans-82"/>
     <use x="1606.634766" xlink:href="#DejaVuSans-97"/>
     <use x="1667.914062" xlink:href="#DejaVuSans-116"/>
     <use x="1707.123047" xlink:href="#DejaVuSans-101"/>
     <use x="1768.646484" xlink:href="#DejaVuSans-32"/>
     <use x="1800.433594" xlink:href="#DejaVuSans-118"/>
     <use x="1859.613281" xlink:href="#DejaVuSans-115"/>
     <use x="1911.712891" xlink:href="#DejaVuSans-32"/>
     <use x="1943.5" xlink:href="#DejaVuSans-65"/>
     <use x="2011.892578" xlink:href="#DejaVuSans-99"/>
     <use x="2066.873047" xlink:href="#DejaVuSans-116"/>
     <use x="2106.082031" xlink:href="#DejaVuSans-117"/>
     <use x="2169.460938" xlink:href="#DejaVuSans-97"/>
     <use x="2230.740234" xlink:href="#DejaVuSans-108"/>
    </g>
   </g>
  </g>
 </g>
 <defs>
  <clipPath id="pa26459d985">
   <rect height="217.44" width="334.8" x="54" y="34.56"/>
  </clipPath>
 </defs>
</svg>
