<?xml version="1.0" encoding="utf-8" standalone="no"?>
<!DOCTYPE svg PUBLIC "-//W3C//DTD SVG 1.1//EN"
  "http://www.w3.org/Graphics/SVG/1.1/DTD/svg11.dtd">
<!-- Created with matplotlib (https://matplotlib.org/) -->
<svg height="288pt" version="1.1" viewBox="0 0 432 288" width="432pt" xmlns="http://www.w3.org/2000/svg" xmlns:xlink="http://www.w3.org/1999/xlink">
 <defs>
  <style type="text/css">
*{stroke-linecap:butt;stroke-linejoin:round;}
  </style>
 </defs>
 <g id="figure_1">
  <g id="patch_1">
   <path d="M 0 288 
L 432 288 
L 432 0 
L 0 0 
z
" style="fill:#ffffff;"/>
  </g>
  <g id="axes_1">
   <g id="patch_2">
    <path d="M 54 252 
L 388.8 252 
L 388.8 34.56 
L 54 34.56 
z
" style="fill:#ffffff;"/>
   </g>
   <g id="matplotlib.axis_1">
    <g id="xtick_1">
     <g id="line2d_1">
      <defs>
       <path d="M 0 0 
L 0 3.5 
" id="mb0c64336b9" style="stroke:#000000;stroke-width:0.8;"/>
      </defs>
      <g>
       <use style="stroke:#000000;stroke-width:0.8;" x="69.218182" xlink:href="#mb0c64336b9" y="252"/>
      </g>
     </g>
     <g id="text_1">
      <!-- 0 -->
      <defs>
       <path d="M 31.78125 66.40625 
Q 24.171875 66.40625 20.328125 58.90625 
Q 16.5 51.421875 16.5 36.375 
Q 16.5 21.390625 20.328125 13.890625 
Q 24.171875 6.390625 31.78125 6.390625 
Q 39.453125 6.390625 43.28125 13.890625 
Q 47.125 21.390625 47.125 36.375 
Q 47.125 51.421875 43.28125 58.90625 
Q 39.453125 66.40625 31.78125 66.40625 
z
M 31.78125 74.21875 
Q 44.046875 74.21875 50.515625 64.515625 
Q 56.984375 54.828125 56.984375 36.375 
Q 56.984375 17.96875 50.515625 8.265625 
Q 44.046875 -1.421875 31.78125 -1.421875 
Q 19.53125 -1.421875 13.0625 8.265625 
Q 6.59375 17.96875 6.59375 36.375 
Q 6.59375 54.828125 13.0625 64.515625 
Q 19.53125 74.21875 31.78125 74.21875 
z
" id="DejaVuSans-48"/>
      </defs>
      <g transform="translate(66.036932 266.598437)scale(0.1 -0.1)">
       <use xlink:href="#DejaVuSans-48"/>
      </g>
     </g>
    </g>
    <g id="xtick_2">
     <g id="line2d_2">
      <g>
       <use style="stroke:#000000;stroke-width:0.8;" x="133.976402" xlink:href="#mb0c64336b9" y="252"/>
      </g>
     </g>
     <g id="text_2">
      <!-- 50 -->
      <defs>
       <path d="M 10.796875 72.90625 
L 49.515625 72.90625 
L 49.515625 64.59375 
L 19.828125 64.59375 
L 19.828125 46.734375 
Q 21.96875 47.46875 24.109375 47.828125 
Q 26.265625 48.1875 28.421875 48.1875 
Q 40.625 48.1875 47.75 41.5 
Q 54.890625 34.8125 54.890625 23.390625 
Q 54.890625 11.625 47.5625 5.09375 
Q 40.234375 -1.421875 26.90625 -1.421875 
Q 22.3125 -1.421875 17.546875 -0.640625 
Q 12.796875 0.140625 7.71875 1.703125 
L 7.71875 11.625 
Q 12.109375 9.234375 16.796875 8.0625 
Q 21.484375 6.890625 26.703125 6.890625 
Q 35.15625 6.890625 40.078125 11.328125 
Q 45.015625 15.765625 45.015625 23.390625 
Q 45.015625 31 40.078125 35.4375 
Q 35.15625 39.890625 26.703125 39.890625 
Q 22.75 39.890625 18.8125 39.015625 
Q 14.890625 38.140625 10.796875 36.28125 
z
" id="DejaVuSans-53"/>
      </defs>
      <g transform="translate(127.613902 266.598437)scale(0.1 -0.1)">
       <use xlink:href="#DejaVuSans-53"/>
       <use x="63.623047" xlink:href="#DejaVuSans-48"/>
      </g>
     </g>
    </g>
    <g id="xtick_3">
     <g id="line2d_3">
      <g>
       <use style="stroke:#000000;stroke-width:0.8;" x="198.734623" xlink:href="#mb0c64336b9" y="252"/>
      </g>
     </g>
     <g id="text_3">
      <!-- 100 -->
      <defs>
       <path d="M 12.40625 8.296875 
L 28.515625 8.296875 
L 28.515625 63.921875 
L 10.984375 60.40625 
L 10.984375 69.390625 
L 28.421875 72.90625 
L 38.28125 72.90625 
L 38.28125 8.296875 
L 54.390625 8.296875 
L 54.390625 0 
L 12.40625 0 
z
" id="DejaVuSans-49"/>
      </defs>
      <g transform="translate(189.190873 266.598437)scale(0.1 -0.1)">
       <use xlink:href="#DejaVuSans-49"/>
       <use x="63.623047" xlink:href="#DejaVuSans-48"/>
       <use x="127.246094" xlink:href="#DejaVuSans-48"/>
      </g>
     </g>
    </g>
    <g id="xtick_4">
     <g id="line2d_4">
      <g>
       <use style="stroke:#000000;stroke-width:0.8;" x="263.492843" xlink:href="#mb0c64336b9" y="252"/>
      </g>
     </g>
     <g id="text_4">
      <!-- 150 -->
      <g transform="translate(253.949093 266.598437)scale(0.1 -0.1)">
       <use xlink:href="#DejaVuSans-49"/>
       <use x="63.623047" xlink:href="#DejaVuSans-53"/>
       <use x="127.246094" xlink:href="#DejaVuSans-48"/>
      </g>
     </g>
    </g>
    <g id="xtick_5">
     <g id="line2d_5">
      <g>
       <use style="stroke:#000000;stroke-width:0.8;" x="328.251064" xlink:href="#mb0c64336b9" y="252"/>
      </g>
     </g>
     <g id="text_5">
      <!-- 200 -->
      <defs>
       <path d="M 19.1875 8.296875 
L 53.609375 8.296875 
L 53.609375 0 
L 7.328125 0 
L 7.328125 8.296875 
Q 12.9375 14.109375 22.625 23.890625 
Q 32.328125 33.6875 34.8125 36.53125 
Q 39.546875 41.84375 41.421875 45.53125 
Q 43.3125 49.21875 43.3125 52.78125 
Q 43.3125 58.59375 39.234375 62.25 
Q 35.15625 65.921875 28.609375 65.921875 
Q 23.96875 65.921875 18.8125 64.3125 
Q 13.671875 62.703125 7.8125 59.421875 
L 7.8125 69.390625 
Q 13.765625 71.78125 18.9375 73 
Q 24.125 74.21875 28.421875 74.21875 
Q 39.75 74.21875 46.484375 68.546875 
Q 53.21875 62.890625 53.21875 53.421875 
Q 53.21875 48.921875 51.53125 44.890625 
Q 49.859375 40.875 45.40625 35.40625 
Q 44.1875 33.984375 37.640625 27.21875 
Q 31.109375 20.453125 19.1875 8.296875 
z
" id="DejaVuSans-50"/>
      </defs>
      <g transform="translate(318.707314 266.598437)scale(0.1 -0.1)">
       <use xlink:href="#DejaVuSans-50"/>
       <use x="63.623047" xlink:href="#DejaVuSans-48"/>
       <use x="127.246094" xlink:href="#DejaVuSans-48"/>
      </g>
     </g>
    </g>
    <g id="text_6">
     <!-- Predicted Graduation Percentage -->
     <defs>
      <path d="M 19.671875 64.796875 
L 19.671875 37.40625 
L 32.078125 37.40625 
Q 38.96875 37.40625 42.71875 40.96875 
Q 46.484375 44.53125 46.484375 51.125 
Q 46.484375 57.671875 42.71875 61.234375 
Q 38.96875 64.796875 32.078125 64.796875 
z
M 9.8125 72.90625 
L 32.078125 72.90625 
Q 44.34375 72.90625 50.609375 67.359375 
Q 56.890625 61.8125 56.890625 51.125 
Q 56.890625 40.328125 50.609375 34.8125 
Q 44.34375 29.296875 32.078125 29.296875 
L 19.671875 29.296875 
L 19.671875 0 
L 9.8125 0 
z
" id="DejaVuSans-80"/>
      <path d="M 41.109375 46.296875 
Q 39.59375 47.171875 37.8125 47.578125 
Q 36.03125 48 33.890625 48 
Q 26.265625 48 22.1875 43.046875 
Q 18.109375 38.09375 18.109375 28.8125 
L 18.109375 0 
L 9.078125 0 
L 9.078125 54.6875 
L 18.109375 54.6875 
L 18.109375 46.1875 
Q 20.953125 51.171875 25.484375 53.578125 
Q 30.03125 56 36.53125 56 
Q 37.453125 56 38.578125 55.875 
Q 39.703125 55.765625 41.0625 55.515625 
z
" id="DejaVuSans-114"/>
      <path d="M 56.203125 29.59375 
L 56.203125 25.203125 
L 14.890625 25.203125 
Q 15.484375 15.921875 20.484375 11.0625 
Q 25.484375 6.203125 34.421875 6.203125 
Q 39.59375 6.203125 44.453125 7.46875 
Q 49.3125 8.734375 54.109375 11.28125 
L 54.109375 2.78125 
Q 49.265625 0.734375 44.1875 -0.34375 
Q 39.109375 -1.421875 33.890625 -1.421875 
Q 20.796875 -1.421875 13.15625 6.1875 
Q 5.515625 13.8125 5.515625 26.8125 
Q 5.515625 40.234375 12.765625 48.109375 
Q 20.015625 56 32.328125 56 
Q 43.359375 56 49.78125 48.890625 
Q 56.203125 41.796875 56.203125 29.59375 
z
M 47.21875 32.234375 
Q 47.125 39.59375 43.09375 43.984375 
Q 39.0625 48.390625 32.421875 48.390625 
Q 24.90625 48.390625 20.390625 44.140625 
Q 15.875 39.890625 15.1875 32.171875 
z
" id="DejaVuSans-101"/>
      <path d="M 45.40625 46.390625 
L 45.40625 75.984375 
L 54.390625 75.984375 
L 54.390625 0 
L 45.40625 0 
L 45.40625 8.203125 
Q 42.578125 3.328125 38.25 0.953125 
Q 33.9375 -1.421875 27.875 -1.421875 
Q 17.96875 -1.421875 11.734375 6.484375 
Q 5.515625 14.40625 5.515625 27.296875 
Q 5.515625 40.1875 11.734375 48.09375 
Q 17.96875 56 27.875 56 
Q 33.9375 56 38.25 53.625 
Q 42.578125 51.265625 45.40625 46.390625 
z
M 14.796875 27.296875 
Q 14.796875 17.390625 18.875 11.75 
Q 22.953125 6.109375 30.078125 6.109375 
Q 37.203125 6.109375 41.296875 11.75 
Q 45.40625 17.390625 45.40625 27.296875 
Q 45.40625 37.203125 41.296875 42.84375 
Q 37.203125 48.484375 30.078125 48.484375 
Q 22.953125 48.484375 18.875 42.84375 
Q 14.796875 37.203125 14.796875 27.296875 
z
" id="DejaVuSans-100"/>
      <path d="M 9.421875 54.6875 
L 18.40625 54.6875 
L 18.40625 0 
L 9.421875 0 
z
M 9.421875 75.984375 
L 18.40625 75.984375 
L 18.40625 64.59375 
L 9.421875 64.59375 
z
" id="DejaVuSans-105"/>
      <path d="M 48.78125 52.59375 
L 48.78125 44.1875 
Q 44.96875 46.296875 41.140625 47.34375 
Q 37.3125 48.390625 33.40625 48.390625 
Q 24.65625 48.390625 19.8125 42.84375 
Q 14.984375 37.3125 14.984375 27.296875 
Q 14.984375 17.28125 19.8125 11.734375 
Q 24.65625 6.203125 33.40625 6.203125 
Q 37.3125 6.203125 41.140625 7.25 
Q 44.96875 8.296875 48.78125 10.40625 
L 48.78125 2.09375 
Q 45.015625 0.34375 40.984375 -0.53125 
Q 36.96875 -1.421875 32.421875 -1.421875 
Q 20.0625 -1.421875 12.78125 6.34375 
Q 5.515625 14.109375 5.515625 27.296875 
Q 5.515625 40.671875 12.859375 48.328125 
Q 20.21875 56 33.015625 56 
Q 37.15625 56 41.109375 55.140625 
Q 45.0625 54.296875 48.78125 52.59375 
z
" id="DejaVuSans-99"/>
      <path d="M 18.3125 70.21875 
L 18.3125 54.6875 
L 36.8125 54.6875 
L 36.8125 47.703125 
L 18.3125 47.703125 
L 18.3125 18.015625 
Q 18.3125 11.328125 20.140625 9.421875 
Q 21.96875 7.515625 27.59375 7.515625 
L 36.8125 7.515625 
L 36.8125 0 
L 27.59375 0 
Q 17.1875 0 13.234375 3.875 
Q 9.28125 7.765625 9.28125 18.015625 
L 9.28125 47.703125 
L 2.6875 47.703125 
L 2.6875 54.6875 
L 9.28125 54.6875 
L 9.28125 70.21875 
z
" id="DejaVuSans-116"/>
      <path id="DejaVuSans-32"/>
      <path d="M 59.515625 10.40625 
L 59.515625 29.984375 
L 43.40625 29.984375 
L 43.40625 38.09375 
L 69.28125 38.09375 
L 69.28125 6.78125 
Q 63.578125 2.734375 56.6875 0.65625 
Q 49.8125 -1.421875 42 -1.421875 
Q 24.90625 -1.421875 15.25 8.5625 
Q 5.609375 18.5625 5.609375 36.375 
Q 5.609375 54.25 15.25 64.234375 
Q 24.90625 74.21875 42 74.21875 
Q 49.125 74.21875 55.546875 72.453125 
Q 61.96875 70.703125 67.390625 67.28125 
L 67.390625 56.78125 
Q 61.921875 61.421875 55.765625 63.765625 
Q 49.609375 66.109375 42.828125 66.109375 
Q 29.4375 66.109375 22.71875 58.640625 
Q 16.015625 51.171875 16.015625 36.375 
Q 16.015625 21.625 22.71875 14.15625 
Q 29.4375 6.6875 42.828125 6.6875 
Q 48.046875 6.6875 52.140625 7.59375 
Q 56.25 8.5 59.515625 10.40625 
z
" id="DejaVuSans-71"/>
      <path d="M 34.28125 27.484375 
Q 23.390625 27.484375 19.1875 25 
Q 14.984375 22.515625 14.984375 16.5 
Q 14.984375 11.71875 18.140625 8.90625 
Q 21.296875 6.109375 26.703125 6.109375 
Q 34.1875 6.109375 38.703125 11.40625 
Q 43.21875 16.703125 43.21875 25.484375 
L 43.21875 27.484375 
z
M 52.203125 31.203125 
L 52.203125 0 
L 43.21875 0 
L 43.21875 8.296875 
Q 40.140625 3.328125 35.546875 0.953125 
Q 30.953125 -1.421875 24.3125 -1.421875 
Q 15.921875 -1.421875 10.953125 3.296875 
Q 6 8.015625 6 15.921875 
Q 6 25.140625 12.171875 29.828125 
Q 18.359375 34.515625 30.609375 34.515625 
L 43.21875 34.515625 
L 43.21875 35.40625 
Q 43.21875 41.609375 39.140625 45 
Q 35.0625 48.390625 27.6875 48.390625 
Q 23 48.390625 18.546875 47.265625 
Q 14.109375 46.140625 10.015625 43.890625 
L 10.015625 52.203125 
Q 14.9375 54.109375 19.578125 55.046875 
Q 24.21875 56 28.609375 56 
Q 40.484375 56 46.34375 49.84375 
Q 52.203125 43.703125 52.203125 31.203125 
z
" id="DejaVuSans-97"/>
      <path d="M 8.5 21.578125 
L 8.5 54.6875 
L 17.484375 54.6875 
L 17.484375 21.921875 
Q 17.484375 14.15625 20.5 10.265625 
Q 23.53125 6.390625 29.59375 6.390625 
Q 36.859375 6.390625 41.078125 11.03125 
Q 45.3125 15.671875 45.3125 23.6875 
L 45.3125 54.6875 
L 54.296875 54.6875 
L 54.296875 0 
L 45.3125 0 
L 45.3125 8.40625 
Q 42.046875 3.421875 37.71875 1 
Q 33.40625 -1.421875 27.6875 -1.421875 
Q 18.265625 -1.421875 13.375 4.4375 
Q 8.5 10.296875 8.5 21.578125 
z
M 31.109375 56 
z
" id="DejaVuSans-117"/>
      <path d="M 30.609375 48.390625 
Q 23.390625 48.390625 19.1875 42.75 
Q 14.984375 37.109375 14.984375 27.296875 
Q 14.984375 17.484375 19.15625 11.84375 
Q 23.34375 6.203125 30.609375 6.203125 
Q 37.796875 6.203125 41.984375 11.859375 
Q 46.1875 17.53125 46.1875 27.296875 
Q 46.1875 37.015625 41.984375 42.703125 
Q 37.796875 48.390625 30.609375 48.390625 
z
M 30.609375 56 
Q 42.328125 56 49.015625 48.375 
Q 55.71875 40.765625 55.71875 27.296875 
Q 55.71875 13.875 49.015625 6.21875 
Q 42.328125 -1.421875 30.609375 -1.421875 
Q 18.84375 -1.421875 12.171875 6.21875 
Q 5.515625 13.875 5.515625 27.296875 
Q 5.515625 40.765625 12.171875 48.375 
Q 18.84375 56 30.609375 56 
z
" id="DejaVuSans-111"/>
      <path d="M 54.890625 33.015625 
L 54.890625 0 
L 45.90625 0 
L 45.90625 32.71875 
Q 45.90625 40.484375 42.875 44.328125 
Q 39.84375 48.1875 33.796875 48.1875 
Q 26.515625 48.1875 22.3125 43.546875 
Q 18.109375 38.921875 18.109375 30.90625 
L 18.109375 0 
L 9.078125 0 
L 9.078125 54.6875 
L 18.109375 54.6875 
L 18.109375 46.1875 
Q 21.34375 51.125 25.703125 53.5625 
Q 30.078125 56 35.796875 56 
Q 45.21875 56 50.046875 50.171875 
Q 54.890625 44.34375 54.890625 33.015625 
z
" id="DejaVuSans-110"/>
      <path d="M 45.40625 27.984375 
Q 45.40625 37.75 41.375 43.109375 
Q 37.359375 48.484375 30.078125 48.484375 
Q 22.859375 48.484375 18.828125 43.109375 
Q 14.796875 37.75 14.796875 27.984375 
Q 14.796875 18.265625 18.828125 12.890625 
Q 22.859375 7.515625 30.078125 7.515625 
Q 37.359375 7.515625 41.375 12.890625 
Q 45.40625 18.265625 45.40625 27.984375 
z
M 54.390625 6.78125 
Q 54.390625 -7.171875 48.1875 -13.984375 
Q 42 -20.796875 29.203125 -20.796875 
Q 24.46875 -20.796875 20.265625 -20.09375 
Q 16.0625 -19.390625 12.109375 -17.921875 
L 12.109375 -9.1875 
Q 16.0625 -11.328125 19.921875 -12.34375 
Q 23.78125 -13.375 27.78125 -13.375 
Q 36.625 -13.375 41.015625 -8.765625 
Q 45.40625 -4.15625 45.40625 5.171875 
L 45.40625 9.625 
Q 42.625 4.78125 38.28125 2.390625 
Q 33.9375 0 27.875 0 
Q 17.828125 0 11.671875 7.65625 
Q 5.515625 15.328125 5.515625 27.984375 
Q 5.515625 40.671875 11.671875 48.328125 
Q 17.828125 56 27.875 56 
Q 33.9375 56 38.28125 53.609375 
Q 42.625 51.21875 45.40625 46.390625 
L 45.40625 54.6875 
L 54.390625 54.6875 
z
" id="DejaVuSans-103"/>
     </defs>
     <g transform="translate(138.163281 280.276563)scale(0.1 -0.1)">
      <use xlink:href="#DejaVuSans-80"/>
      <use x="60.287109" xlink:href="#DejaVuSans-114"/>
      <use x="101.369141" xlink:href="#DejaVuSans-101"/>
      <use x="162.892578" xlink:href="#DejaVuSans-100"/>
      <use x="226.369141" xlink:href="#DejaVuSans-105"/>
      <use x="254.152344" xlink:href="#DejaVuSans-99"/>
      <use x="309.132812" xlink:href="#DejaVuSans-116"/>
      <use x="348.341797" xlink:href="#DejaVuSans-101"/>
      <use x="409.865234" xlink:href="#DejaVuSans-100"/>
      <use x="473.341797" xlink:href="#DejaVuSans-32"/>
      <use x="505.128906" xlink:href="#DejaVuSans-71"/>
      <use x="582.619141" xlink:href="#DejaVuSans-114"/>
      <use x="623.732422" xlink:href="#DejaVuSans-97"/>
      <use x="685.011719" xlink:href="#DejaVuSans-100"/>
      <use x="748.488281" xlink:href="#DejaVuSans-117"/>
      <use x="811.867188" xlink:href="#DejaVuSans-97"/>
      <use x="873.146484" xlink:href="#DejaVuSans-116"/>
      <use x="912.355469" xlink:href="#DejaVuSans-105"/>
      <use x="940.138672" xlink:href="#DejaVuSans-111"/>
      <use x="1001.320312" xlink:href="#DejaVuSans-110"/>
      <use x="1064.699219" xlink:href="#DejaVuSans-32"/>
      <use x="1096.486328" xlink:href="#DejaVuSans-80"/>
      <use x="1156.742188" xlink:href="#DejaVuSans-101"/>
      <use x="1218.265625" xlink:href="#DejaVuSans-114"/>
      <use x="1259.347656" xlink:href="#DejaVuSans-99"/>
      <use x="1314.328125" xlink:href="#DejaVuSans-101"/>
      <use x="1375.851562" xlink:href="#DejaVuSans-110"/>
      <use x="1439.230469" xlink:href="#DejaVuSans-116"/>
      <use x="1478.439453" xlink:href="#DejaVuSans-97"/>
      <use x="1539.71875" xlink:href="#DejaVuSans-103"/>
      <use x="1603.195312" xlink:href="#DejaVuSans-101"/>
     </g>
    </g>
   </g>
   <g id="matplotlib.axis_2">
    <g id="ytick_1">
     <g id="line2d_6">
      <defs>
       <path d="M 0 0 
L -3.5 0 
" id="m87febbca5f" style="stroke:#000000;stroke-width:0.8;"/>
      </defs>
      <g>
       <use style="stroke:#000000;stroke-width:0.8;" x="54" xlink:href="#m87febbca5f" y="229.623607"/>
      </g>
     </g>
     <g id="text_7">
      <!-- −40 -->
      <defs>
       <path d="M 10.59375 35.5 
L 73.1875 35.5 
L 73.1875 27.203125 
L 10.59375 27.203125 
z
" id="DejaVuSans-8722"/>
       <path d="M 37.796875 64.3125 
L 12.890625 25.390625 
L 37.796875 25.390625 
z
M 35.203125 72.90625 
L 47.609375 72.90625 
L 47.609375 25.390625 
L 58.015625 25.390625 
L 58.015625 17.1875 
L 47.609375 17.1875 
L 47.609375 0 
L 37.796875 0 
L 37.796875 17.1875 
L 4.890625 17.1875 
L 4.890625 26.703125 
z
" id="DejaVuSans-52"/>
      </defs>
      <g transform="translate(25.895312 233.422826)scale(0.1 -0.1)">
       <use xlink:href="#DejaVuSans-8722"/>
       <use x="83.789062" xlink:href="#DejaVuSans-52"/>
       <use x="147.412109" xlink:href="#DejaVuSans-48"/>
      </g>
     </g>
    </g>
    <g id="ytick_2">
     <g id="line2d_7">
      <g>
       <use style="stroke:#000000;stroke-width:0.8;" x="54" xlink:href="#m87febbca5f" y="202.8973"/>
      </g>
     </g>
     <g id="text_8">
      <!-- −30 -->
      <defs>
       <path d="M 40.578125 39.3125 
Q 47.65625 37.796875 51.625 33 
Q 55.609375 28.21875 55.609375 21.1875 
Q 55.609375 10.40625 48.1875 4.484375 
Q 40.765625 -1.421875 27.09375 -1.421875 
Q 22.515625 -1.421875 17.65625 -0.515625 
Q 12.796875 0.390625 7.625 2.203125 
L 7.625 11.71875 
Q 11.71875 9.328125 16.59375 8.109375 
Q 21.484375 6.890625 26.8125 6.890625 
Q 36.078125 6.890625 40.9375 10.546875 
Q 45.796875 14.203125 45.796875 21.1875 
Q 45.796875 27.640625 41.28125 31.265625 
Q 36.765625 34.90625 28.71875 34.90625 
L 20.21875 34.90625 
L 20.21875 43.015625 
L 29.109375 43.015625 
Q 36.375 43.015625 40.234375 45.921875 
Q 44.09375 48.828125 44.09375 54.296875 
Q 44.09375 59.90625 40.109375 62.90625 
Q 36.140625 65.921875 28.71875 65.921875 
Q 24.65625 65.921875 20.015625 65.03125 
Q 15.375 64.15625 9.8125 62.3125 
L 9.8125 71.09375 
Q 15.4375 72.65625 20.34375 73.4375 
Q 25.25 74.21875 29.59375 74.21875 
Q 40.828125 74.21875 47.359375 69.109375 
Q 53.90625 64.015625 53.90625 55.328125 
Q 53.90625 49.265625 50.4375 45.09375 
Q 46.96875 40.921875 40.578125 39.3125 
z
" id="DejaVuSans-51"/>
      </defs>
      <g transform="translate(25.895312 206.696518)scale(0.1 -0.1)">
       <use xlink:href="#DejaVuSans-8722"/>
       <use x="83.789062" xlink:href="#DejaVuSans-51"/>
       <use x="147.412109" xlink:href="#DejaVuSans-48"/>
      </g>
     </g>
    </g>
    <g id="ytick_3">
     <g id="line2d_8">
      <g>
       <use style="stroke:#000000;stroke-width:0.8;" x="54" xlink:href="#m87febbca5f" y="176.170992"/>
      </g>
     </g>
     <g id="text_9">
      <!-- −20 -->
      <g transform="translate(25.895312 179.97021)scale(0.1 -0.1)">
       <use xlink:href="#DejaVuSans-8722"/>
       <use x="83.789062" xlink:href="#DejaVuSans-50"/>
       <use x="147.412109" xlink:href="#DejaVuSans-48"/>
      </g>
     </g>
    </g>
    <g id="ytick_4">
     <g id="line2d_9">
      <g>
       <use style="stroke:#000000;stroke-width:0.8;" x="54" xlink:href="#m87febbca5f" y="149.444684"/>
      </g>
     </g>
     <g id="text_10">
      <!-- −10 -->
      <g transform="translate(25.895312 153.243903)scale(0.1 -0.1)">
       <use xlink:href="#DejaVuSans-8722"/>
       <use x="83.789062" xlink:href="#DejaVuSans-49"/>
       <use x="147.412109" xlink:href="#DejaVuSans-48"/>
      </g>
     </g>
    </g>
    <g id="ytick_5">
     <g id="line2d_10">
      <g>
       <use style="stroke:#000000;stroke-width:0.8;" x="54" xlink:href="#m87febbca5f" y="122.718376"/>
      </g>
     </g>
     <g id="text_11">
      <!-- 0 -->
      <g transform="translate(40.6375 126.517595)scale(0.1 -0.1)">
       <use xlink:href="#DejaVuSans-48"/>
      </g>
     </g>
    </g>
    <g id="ytick_6">
     <g id="line2d_11">
      <g>
       <use style="stroke:#000000;stroke-width:0.8;" x="54" xlink:href="#m87febbca5f" y="95.992068"/>
      </g>
     </g>
     <g id="text_12">
      <!-- 10 -->
      <g transform="translate(34.275 99.791287)scale(0.1 -0.1)">
       <use xlink:href="#DejaVuSans-49"/>
       <use x="63.623047" xlink:href="#DejaVuSans-48"/>
      </g>
     </g>
    </g>
    <g id="ytick_7">
     <g id="line2d_12">
      <g>
       <use style="stroke:#000000;stroke-width:0.8;" x="54" xlink:href="#m87febbca5f" y="69.26576"/>
      </g>
     </g>
     <g id="text_13">
      <!-- 20 -->
      <g transform="translate(34.275 73.064979)scale(0.1 -0.1)">
       <use xlink:href="#DejaVuSans-50"/>
       <use x="63.623047" xlink:href="#DejaVuSans-48"/>
      </g>
     </g>
    </g>
    <g id="ytick_8">
     <g id="line2d_13">
      <g>
       <use style="stroke:#000000;stroke-width:0.8;" x="54" xlink:href="#m87febbca5f" y="42.539453"/>
      </g>
     </g>
     <g id="text_14">
      <!-- 30 -->
      <g transform="translate(34.275 46.338671)scale(0.1 -0.1)">
       <use xlink:href="#DejaVuSans-51"/>
       <use x="63.623047" xlink:href="#DejaVuSans-48"/>
      </g>
     </g>
    </g>
    <g id="text_15">
     <!-- Error -->
     <defs>
      <path d="M 9.8125 72.90625 
L 55.90625 72.90625 
L 55.90625 64.59375 
L 19.671875 64.59375 
L 19.671875 43.015625 
L 54.390625 43.015625 
L 54.390625 34.71875 
L 19.671875 34.71875 
L 19.671875 8.296875 
L 56.78125 8.296875 
L 56.78125 0 
L 9.8125 0 
z
" id="DejaVuSans-69"/>
     </defs>
     <g transform="translate(19.815625 155.662813)rotate(-90)scale(0.1 -0.1)">
      <use xlink:href="#DejaVuSans-69"/>
      <use x="63.183594" xlink:href="#DejaVuSans-114"/>
      <use x="104.28125" xlink:href="#DejaVuSans-114"/>
      <use x="145.363281" xlink:href="#DejaVuSans-111"/>
      <use x="206.544922" xlink:href="#DejaVuSans-114"/>
     </g>
    </g>
   </g>
   <g id="line2d_14">
    <defs>
     <path d="M 0 3 
C 0.795609 3 1.55874 2.683901 2.12132 2.12132 
C 2.683901 1.55874 3 0.795609 3 0 
C 3 -0.795609 2.683901 -1.55874 2.12132 -2.12132 
C 1.55874 -2.683901 0.795609 -3 0 -3 
C -0.795609 -3 -1.55874 -2.683901 -2.12132 -2.12132 
C -2.683901 -1.55874 -3 -0.795609 -3 0 
C -3 0.795609 -2.683901 1.55874 -2.12132 2.12132 
C -1.55874 2.683901 -0.795609 3 0 3 
z
" id="ma4998b6339" style="stroke:#1f77b4;"/>
    </defs>
    <g clip-path="url(#paab551e3fc)">
     <use style="fill:#1f77b4;stroke:#1f77b4;" x="69.218182" xlink:href="#ma4998b6339" y="116.509639"/>
     <use style="fill:#1f77b4;stroke:#1f77b4;" x="70.513346" xlink:href="#ma4998b6339" y="129.449738"/>
     <use style="fill:#1f77b4;stroke:#1f77b4;" x="71.808511" xlink:href="#ma4998b6339" y="109.37607"/>
     <use style="fill:#1f77b4;stroke:#1f77b4;" x="73.103675" xlink:href="#ma4998b6339" y="102.97177"/>
     <use style="fill:#1f77b4;stroke:#1f77b4;" x="74.398839" xlink:href="#ma4998b6339" y="213.071399"/>
     <use style="fill:#1f77b4;stroke:#1f77b4;" x="75.694004" xlink:href="#ma4998b6339" y="242.116364"/>
     <use style="fill:#1f77b4;stroke:#1f77b4;" x="76.989168" xlink:href="#ma4998b6339" y="121.012546"/>
     <use style="fill:#1f77b4;stroke:#1f77b4;" x="78.284333" xlink:href="#ma4998b6339" y="100.41949"/>
     <use style="fill:#1f77b4;stroke:#1f77b4;" x="79.579497" xlink:href="#ma4998b6339" y="188.22246"/>
     <use style="fill:#1f77b4;stroke:#1f77b4;" x="80.874662" xlink:href="#ma4998b6339" y="204.918184"/>
     <use style="fill:#1f77b4;stroke:#1f77b4;" x="82.169826" xlink:href="#ma4998b6339" y="143.721353"/>
     <use style="fill:#1f77b4;stroke:#1f77b4;" x="83.46499" xlink:href="#ma4998b6339" y="149.703679"/>
     <use style="fill:#1f77b4;stroke:#1f77b4;" x="84.760155" xlink:href="#ma4998b6339" y="97.834478"/>
     <use style="fill:#1f77b4;stroke:#1f77b4;" x="86.055319" xlink:href="#ma4998b6339" y="79.641321"/>
     <use style="fill:#1f77b4;stroke:#1f77b4;" x="87.350484" xlink:href="#ma4998b6339" y="111.307472"/>
     <use style="fill:#1f77b4;stroke:#1f77b4;" x="88.645648" xlink:href="#ma4998b6339" y="108.497215"/>
     <use style="fill:#1f77b4;stroke:#1f77b4;" x="89.940812" xlink:href="#ma4998b6339" y="137.311535"/>
     <use style="fill:#1f77b4;stroke:#1f77b4;" x="91.235977" xlink:href="#ma4998b6339" y="115.14127"/>
     <use style="fill:#1f77b4;stroke:#1f77b4;" x="92.531141" xlink:href="#ma4998b6339" y="122.427863"/>
     <use style="fill:#1f77b4;stroke:#1f77b4;" x="93.826306" xlink:href="#ma4998b6339" y="138.301755"/>
     <use style="fill:#1f77b4;stroke:#1f77b4;" x="95.12147" xlink:href="#ma4998b6339" y="102.218669"/>
     <use style="fill:#1f77b4;stroke:#1f77b4;" x="96.416634" xlink:href="#ma4998b6339" y="106.83611"/>
     <use style="fill:#1f77b4;stroke:#1f77b4;" x="97.711799" xlink:href="#ma4998b6339" y="71.899124"/>
     <use style="fill:#1f77b4;stroke:#1f77b4;" x="99.006963" xlink:href="#ma4998b6339" y="81.353843"/>
     <use style="fill:#1f77b4;stroke:#1f77b4;" x="100.302128" xlink:href="#ma4998b6339" y="167.716659"/>
     <use style="fill:#1f77b4;stroke:#1f77b4;" x="101.597292" xlink:href="#ma4998b6339" y="152.142925"/>
     <use style="fill:#1f77b4;stroke:#1f77b4;" x="102.892456" xlink:href="#ma4998b6339" y="110.999265"/>
     <use style="fill:#1f77b4;stroke:#1f77b4;" x="104.187621" xlink:href="#ma4998b6339" y="99.681228"/>
     <use style="fill:#1f77b4;stroke:#1f77b4;" x="105.482785" xlink:href="#ma4998b6339" y="105.423706"/>
     <use style="fill:#1f77b4;stroke:#1f77b4;" x="106.77795" xlink:href="#ma4998b6339" y="115.784837"/>
     <use style="fill:#1f77b4;stroke:#1f77b4;" x="108.073114" xlink:href="#ma4998b6339" y="157.478067"/>
     <use style="fill:#1f77b4;stroke:#1f77b4;" x="109.368279" xlink:href="#ma4998b6339" y="150.760247"/>
     <use style="fill:#1f77b4;stroke:#1f77b4;" x="110.663443" xlink:href="#ma4998b6339" y="147.870982"/>
     <use style="fill:#1f77b4;stroke:#1f77b4;" x="111.958607" xlink:href="#ma4998b6339" y="126.425187"/>
     <use style="fill:#1f77b4;stroke:#1f77b4;" x="113.253772" xlink:href="#ma4998b6339" y="90.202928"/>
     <use style="fill:#1f77b4;stroke:#1f77b4;" x="114.548936" xlink:href="#ma4998b6339" y="97.950769"/>
     <use style="fill:#1f77b4;stroke:#1f77b4;" x="115.844101" xlink:href="#ma4998b6339" y="120.51172"/>
     <use style="fill:#1f77b4;stroke:#1f77b4;" x="117.139265" xlink:href="#ma4998b6339" y="146.846958"/>
     <use style="fill:#1f77b4;stroke:#1f77b4;" x="118.434429" xlink:href="#ma4998b6339" y="112.496715"/>
     <use style="fill:#1f77b4;stroke:#1f77b4;" x="119.729594" xlink:href="#ma4998b6339" y="121.113696"/>
     <use style="fill:#1f77b4;stroke:#1f77b4;" x="121.024758" xlink:href="#ma4998b6339" y="177.540831"/>
     <use style="fill:#1f77b4;stroke:#1f77b4;" x="122.319923" xlink:href="#ma4998b6339" y="148.3163"/>
     <use style="fill:#1f77b4;stroke:#1f77b4;" x="123.615087" xlink:href="#ma4998b6339" y="156.547686"/>
     <use style="fill:#1f77b4;stroke:#1f77b4;" x="124.910251" xlink:href="#ma4998b6339" y="153.467608"/>
     <use style="fill:#1f77b4;stroke:#1f77b4;" x="126.205416" xlink:href="#ma4998b6339" y="121.746408"/>
     <use style="fill:#1f77b4;stroke:#1f77b4;" x="127.50058" xlink:href="#ma4998b6339" y="115.644572"/>
     <use style="fill:#1f77b4;stroke:#1f77b4;" x="128.795745" xlink:href="#ma4998b6339" y="133.957571"/>
     <use style="fill:#1f77b4;stroke:#1f77b4;" x="130.090909" xlink:href="#ma4998b6339" y="136.115752"/>
     <use style="fill:#1f77b4;stroke:#1f77b4;" x="131.386074" xlink:href="#ma4998b6339" y="149.676336"/>
     <use style="fill:#1f77b4;stroke:#1f77b4;" x="132.681238" xlink:href="#ma4998b6339" y="137.407808"/>
     <use style="fill:#1f77b4;stroke:#1f77b4;" x="133.976402" xlink:href="#ma4998b6339" y="90.158423"/>
     <use style="fill:#1f77b4;stroke:#1f77b4;" x="135.271567" xlink:href="#ma4998b6339" y="70.66505"/>
     <use style="fill:#1f77b4;stroke:#1f77b4;" x="136.566731" xlink:href="#ma4998b6339" y="144.152922"/>
     <use style="fill:#1f77b4;stroke:#1f77b4;" x="137.861896" xlink:href="#ma4998b6339" y="147.802031"/>
     <use style="fill:#1f77b4;stroke:#1f77b4;" x="139.15706" xlink:href="#ma4998b6339" y="95.0054"/>
     <use style="fill:#1f77b4;stroke:#1f77b4;" x="140.452224" xlink:href="#ma4998b6339" y="103.661507"/>
     <use style="fill:#1f77b4;stroke:#1f77b4;" x="141.747389" xlink:href="#ma4998b6339" y="125.123163"/>
     <use style="fill:#1f77b4;stroke:#1f77b4;" x="143.042553" xlink:href="#ma4998b6339" y="135.571223"/>
     <use style="fill:#1f77b4;stroke:#1f77b4;" x="144.337718" xlink:href="#ma4998b6339" y="187.47048"/>
     <use style="fill:#1f77b4;stroke:#1f77b4;" x="145.632882" xlink:href="#ma4998b6339" y="180.605555"/>
     <use style="fill:#1f77b4;stroke:#1f77b4;" x="146.928046" xlink:href="#ma4998b6339" y="93.454862"/>
     <use style="fill:#1f77b4;stroke:#1f77b4;" x="148.223211" xlink:href="#ma4998b6339" y="96.21443"/>
     <use style="fill:#1f77b4;stroke:#1f77b4;" x="149.518375" xlink:href="#ma4998b6339" y="69.073573"/>
     <use style="fill:#1f77b4;stroke:#1f77b4;" x="150.81354" xlink:href="#ma4998b6339" y="106.743969"/>
     <use style="fill:#1f77b4;stroke:#1f77b4;" x="152.108704" xlink:href="#ma4998b6339" y="162.105491"/>
     <use style="fill:#1f77b4;stroke:#1f77b4;" x="153.403868" xlink:href="#ma4998b6339" y="136.38606"/>
     <use style="fill:#1f77b4;stroke:#1f77b4;" x="154.699033" xlink:href="#ma4998b6339" y="119.337523"/>
     <use style="fill:#1f77b4;stroke:#1f77b4;" x="155.994197" xlink:href="#ma4998b6339" y="127.049336"/>
     <use style="fill:#1f77b4;stroke:#1f77b4;" x="157.289362" xlink:href="#ma4998b6339" y="106.66424"/>
     <use style="fill:#1f77b4;stroke:#1f77b4;" x="158.584526" xlink:href="#ma4998b6339" y="90.170597"/>
     <use style="fill:#1f77b4;stroke:#1f77b4;" x="159.879691" xlink:href="#ma4998b6339" y="91.800005"/>
     <use style="fill:#1f77b4;stroke:#1f77b4;" x="161.174855" xlink:href="#ma4998b6339" y="120.809412"/>
     <use style="fill:#1f77b4;stroke:#1f77b4;" x="162.470019" xlink:href="#ma4998b6339" y="101.435393"/>
     <use style="fill:#1f77b4;stroke:#1f77b4;" x="163.765184" xlink:href="#ma4998b6339" y="106.032123"/>
     <use style="fill:#1f77b4;stroke:#1f77b4;" x="165.060348" xlink:href="#ma4998b6339" y="133.830745"/>
     <use style="fill:#1f77b4;stroke:#1f77b4;" x="166.355513" xlink:href="#ma4998b6339" y="118.756019"/>
     <use style="fill:#1f77b4;stroke:#1f77b4;" x="167.650677" xlink:href="#ma4998b6339" y="44.443636"/>
     <use style="fill:#1f77b4;stroke:#1f77b4;" x="168.945841" xlink:href="#ma4998b6339" y="64.378341"/>
     <use style="fill:#1f77b4;stroke:#1f77b4;" x="170.241006" xlink:href="#ma4998b6339" y="135.696557"/>
     <use style="fill:#1f77b4;stroke:#1f77b4;" x="171.53617" xlink:href="#ma4998b6339" y="131.207584"/>
     <use style="fill:#1f77b4;stroke:#1f77b4;" x="172.831335" xlink:href="#ma4998b6339" y="140.001375"/>
     <use style="fill:#1f77b4;stroke:#1f77b4;" x="174.126499" xlink:href="#ma4998b6339" y="124.351532"/>
     <use style="fill:#1f77b4;stroke:#1f77b4;" x="175.421663" xlink:href="#ma4998b6339" y="117.709169"/>
     <use style="fill:#1f77b4;stroke:#1f77b4;" x="176.716828" xlink:href="#ma4998b6339" y="100.442628"/>
     <use style="fill:#1f77b4;stroke:#1f77b4;" x="178.011992" xlink:href="#ma4998b6339" y="136.467651"/>
     <use style="fill:#1f77b4;stroke:#1f77b4;" x="179.307157" xlink:href="#ma4998b6339" y="118.118991"/>
     <use style="fill:#1f77b4;stroke:#1f77b4;" x="180.602321" xlink:href="#ma4998b6339" y="112.705709"/>
     <use style="fill:#1f77b4;stroke:#1f77b4;" x="181.897485" xlink:href="#ma4998b6339" y="100.7678"/>
     <use style="fill:#1f77b4;stroke:#1f77b4;" x="183.19265" xlink:href="#ma4998b6339" y="133.077861"/>
     <use style="fill:#1f77b4;stroke:#1f77b4;" x="184.487814" xlink:href="#ma4998b6339" y="127.146276"/>
     <use style="fill:#1f77b4;stroke:#1f77b4;" x="185.782979" xlink:href="#ma4998b6339" y="100.677791"/>
     <use style="fill:#1f77b4;stroke:#1f77b4;" x="187.078143" xlink:href="#ma4998b6339" y="78.22294"/>
     <use style="fill:#1f77b4;stroke:#1f77b4;" x="188.373308" xlink:href="#ma4998b6339" y="135.879404"/>
     <use style="fill:#1f77b4;stroke:#1f77b4;" x="189.668472" xlink:href="#ma4998b6339" y="142.064758"/>
     <use style="fill:#1f77b4;stroke:#1f77b4;" x="190.963636" xlink:href="#ma4998b6339" y="97.712823"/>
     <use style="fill:#1f77b4;stroke:#1f77b4;" x="192.258801" xlink:href="#ma4998b6339" y="87.295828"/>
     <use style="fill:#1f77b4;stroke:#1f77b4;" x="193.553965" xlink:href="#ma4998b6339" y="143.909037"/>
     <use style="fill:#1f77b4;stroke:#1f77b4;" x="194.84913" xlink:href="#ma4998b6339" y="128.445719"/>
     <use style="fill:#1f77b4;stroke:#1f77b4;" x="196.144294" xlink:href="#ma4998b6339" y="85.657551"/>
     <use style="fill:#1f77b4;stroke:#1f77b4;" x="197.439458" xlink:href="#ma4998b6339" y="77.18636"/>
     <use style="fill:#1f77b4;stroke:#1f77b4;" x="198.734623" xlink:href="#ma4998b6339" y="127.189373"/>
     <use style="fill:#1f77b4;stroke:#1f77b4;" x="200.029787" xlink:href="#ma4998b6339" y="142.417597"/>
     <use style="fill:#1f77b4;stroke:#1f77b4;" x="201.324952" xlink:href="#ma4998b6339" y="150.459957"/>
     <use style="fill:#1f77b4;stroke:#1f77b4;" x="202.620116" xlink:href="#ma4998b6339" y="156.473594"/>
     <use style="fill:#1f77b4;stroke:#1f77b4;" x="203.91528" xlink:href="#ma4998b6339" y="115.119651"/>
     <use style="fill:#1f77b4;stroke:#1f77b4;" x="205.210445" xlink:href="#ma4998b6339" y="105.697057"/>
     <use style="fill:#1f77b4;stroke:#1f77b4;" x="206.505609" xlink:href="#ma4998b6339" y="112.223439"/>
     <use style="fill:#1f77b4;stroke:#1f77b4;" x="207.800774" xlink:href="#ma4998b6339" y="124.120651"/>
     <use style="fill:#1f77b4;stroke:#1f77b4;" x="209.095938" xlink:href="#ma4998b6339" y="133.233461"/>
     <use style="fill:#1f77b4;stroke:#1f77b4;" x="210.391103" xlink:href="#ma4998b6339" y="132.311495"/>
     <use style="fill:#1f77b4;stroke:#1f77b4;" x="211.686267" xlink:href="#ma4998b6339" y="111.762277"/>
     <use style="fill:#1f77b4;stroke:#1f77b4;" x="212.981431" xlink:href="#ma4998b6339" y="118.753746"/>
     <use style="fill:#1f77b4;stroke:#1f77b4;" x="214.276596" xlink:href="#ma4998b6339" y="97.919426"/>
     <use style="fill:#1f77b4;stroke:#1f77b4;" x="215.57176" xlink:href="#ma4998b6339" y="117.026553"/>
     <use style="fill:#1f77b4;stroke:#1f77b4;" x="216.866925" xlink:href="#ma4998b6339" y="108.107705"/>
     <use style="fill:#1f77b4;stroke:#1f77b4;" x="218.162089" xlink:href="#ma4998b6339" y="100.185549"/>
     <use style="fill:#1f77b4;stroke:#1f77b4;" x="219.457253" xlink:href="#ma4998b6339" y="136.147082"/>
     <use style="fill:#1f77b4;stroke:#1f77b4;" x="220.752418" xlink:href="#ma4998b6339" y="114.906529"/>
     <use style="fill:#1f77b4;stroke:#1f77b4;" x="222.047582" xlink:href="#ma4998b6339" y="66.006985"/>
     <use style="fill:#1f77b4;stroke:#1f77b4;" x="223.342747" xlink:href="#ma4998b6339" y="77.18711"/>
     <use style="fill:#1f77b4;stroke:#1f77b4;" x="224.637911" xlink:href="#ma4998b6339" y="116.900508"/>
     <use style="fill:#1f77b4;stroke:#1f77b4;" x="225.933075" xlink:href="#ma4998b6339" y="139.98368"/>
     <use style="fill:#1f77b4;stroke:#1f77b4;" x="227.22824" xlink:href="#ma4998b6339" y="173.761462"/>
     <use style="fill:#1f77b4;stroke:#1f77b4;" x="228.523404" xlink:href="#ma4998b6339" y="143.509453"/>
     <use style="fill:#1f77b4;stroke:#1f77b4;" x="229.818569" xlink:href="#ma4998b6339" y="136.648704"/>
     <use style="fill:#1f77b4;stroke:#1f77b4;" x="231.113733" xlink:href="#ma4998b6339" y="174.889693"/>
     <use style="fill:#1f77b4;stroke:#1f77b4;" x="232.408897" xlink:href="#ma4998b6339" y="57.157837"/>
     <use style="fill:#1f77b4;stroke:#1f77b4;" x="233.704062" xlink:href="#ma4998b6339" y="76.936976"/>
     <use style="fill:#1f77b4;stroke:#1f77b4;" x="234.999226" xlink:href="#ma4998b6339" y="102.626665"/>
     <use style="fill:#1f77b4;stroke:#1f77b4;" x="236.294391" xlink:href="#ma4998b6339" y="109.553797"/>
     <use style="fill:#1f77b4;stroke:#1f77b4;" x="237.589555" xlink:href="#ma4998b6339" y="99.18293"/>
     <use style="fill:#1f77b4;stroke:#1f77b4;" x="238.88472" xlink:href="#ma4998b6339" y="91.004886"/>
     <use style="fill:#1f77b4;stroke:#1f77b4;" x="240.179884" xlink:href="#ma4998b6339" y="125.687952"/>
     <use style="fill:#1f77b4;stroke:#1f77b4;" x="241.475048" xlink:href="#ma4998b6339" y="116.524513"/>
     <use style="fill:#1f77b4;stroke:#1f77b4;" x="242.770213" xlink:href="#ma4998b6339" y="138.370138"/>
     <use style="fill:#1f77b4;stroke:#1f77b4;" x="244.065377" xlink:href="#ma4998b6339" y="126.685479"/>
     <use style="fill:#1f77b4;stroke:#1f77b4;" x="245.360542" xlink:href="#ma4998b6339" y="111.080769"/>
     <use style="fill:#1f77b4;stroke:#1f77b4;" x="246.655706" xlink:href="#ma4998b6339" y="140.574637"/>
     <use style="fill:#1f77b4;stroke:#1f77b4;" x="247.95087" xlink:href="#ma4998b6339" y="59.781173"/>
     <use style="fill:#1f77b4;stroke:#1f77b4;" x="249.246035" xlink:href="#ma4998b6339" y="55.909788"/>
     <use style="fill:#1f77b4;stroke:#1f77b4;" x="250.541199" xlink:href="#ma4998b6339" y="113.694117"/>
     <use style="fill:#1f77b4;stroke:#1f77b4;" x="251.836364" xlink:href="#ma4998b6339" y="90.081085"/>
     <use style="fill:#1f77b4;stroke:#1f77b4;" x="253.131528" xlink:href="#ma4998b6339" y="114.147849"/>
     <use style="fill:#1f77b4;stroke:#1f77b4;" x="254.426692" xlink:href="#ma4998b6339" y="100.838668"/>
     <use style="fill:#1f77b4;stroke:#1f77b4;" x="255.721857" xlink:href="#ma4998b6339" y="82.611628"/>
     <use style="fill:#1f77b4;stroke:#1f77b4;" x="257.017021" xlink:href="#ma4998b6339" y="109.169162"/>
     <use style="fill:#1f77b4;stroke:#1f77b4;" x="258.312186" xlink:href="#ma4998b6339" y="134.648334"/>
     <use style="fill:#1f77b4;stroke:#1f77b4;" x="259.60735" xlink:href="#ma4998b6339" y="143.458884"/>
     <use style="fill:#1f77b4;stroke:#1f77b4;" x="260.902515" xlink:href="#ma4998b6339" y="104.326882"/>
     <use style="fill:#1f77b4;stroke:#1f77b4;" x="262.197679" xlink:href="#ma4998b6339" y="118.142479"/>
     <use style="fill:#1f77b4;stroke:#1f77b4;" x="263.492843" xlink:href="#ma4998b6339" y="118.577678"/>
     <use style="fill:#1f77b4;stroke:#1f77b4;" x="264.788008" xlink:href="#ma4998b6339" y="117.040157"/>
     <use style="fill:#1f77b4;stroke:#1f77b4;" x="266.083172" xlink:href="#ma4998b6339" y="134.464036"/>
     <use style="fill:#1f77b4;stroke:#1f77b4;" x="267.378337" xlink:href="#ma4998b6339" y="142.353022"/>
     <use style="fill:#1f77b4;stroke:#1f77b4;" x="268.673501" xlink:href="#ma4998b6339" y="170.707206"/>
     <use style="fill:#1f77b4;stroke:#1f77b4;" x="269.968665" xlink:href="#ma4998b6339" y="141.722642"/>
     <use style="fill:#1f77b4;stroke:#1f77b4;" x="271.26383" xlink:href="#ma4998b6339" y="122.999196"/>
     <use style="fill:#1f77b4;stroke:#1f77b4;" x="272.558994" xlink:href="#ma4998b6339" y="108.545679"/>
     <use style="fill:#1f77b4;stroke:#1f77b4;" x="273.854159" xlink:href="#ma4998b6339" y="109.925467"/>
     <use style="fill:#1f77b4;stroke:#1f77b4;" x="275.149323" xlink:href="#ma4998b6339" y="105.354829"/>
     <use style="fill:#1f77b4;stroke:#1f77b4;" x="276.444487" xlink:href="#ma4998b6339" y="106.970131"/>
     <use style="fill:#1f77b4;stroke:#1f77b4;" x="277.739652" xlink:href="#ma4998b6339" y="103.243602"/>
     <use style="fill:#1f77b4;stroke:#1f77b4;" x="279.034816" xlink:href="#ma4998b6339" y="138.2054"/>
     <use style="fill:#1f77b4;stroke:#1f77b4;" x="280.329981" xlink:href="#ma4998b6339" y="146.454692"/>
     <use style="fill:#1f77b4;stroke:#1f77b4;" x="281.625145" xlink:href="#ma4998b6339" y="111.126507"/>
     <use style="fill:#1f77b4;stroke:#1f77b4;" x="282.920309" xlink:href="#ma4998b6339" y="123.272383"/>
     <use style="fill:#1f77b4;stroke:#1f77b4;" x="284.215474" xlink:href="#ma4998b6339" y="134.55194"/>
     <use style="fill:#1f77b4;stroke:#1f77b4;" x="285.510638" xlink:href="#ma4998b6339" y="131.799227"/>
     <use style="fill:#1f77b4;stroke:#1f77b4;" x="286.805803" xlink:href="#ma4998b6339" y="163.261211"/>
     <use style="fill:#1f77b4;stroke:#1f77b4;" x="288.100967" xlink:href="#ma4998b6339" y="162.364443"/>
     <use style="fill:#1f77b4;stroke:#1f77b4;" x="289.396132" xlink:href="#ma4998b6339" y="90.306724"/>
     <use style="fill:#1f77b4;stroke:#1f77b4;" x="290.691296" xlink:href="#ma4998b6339" y="81.288426"/>
     <use style="fill:#1f77b4;stroke:#1f77b4;" x="291.98646" xlink:href="#ma4998b6339" y="118.277616"/>
     <use style="fill:#1f77b4;stroke:#1f77b4;" x="293.281625" xlink:href="#ma4998b6339" y="129.714639"/>
     <use style="fill:#1f77b4;stroke:#1f77b4;" x="294.576789" xlink:href="#ma4998b6339" y="121.174488"/>
     <use style="fill:#1f77b4;stroke:#1f77b4;" x="295.871954" xlink:href="#ma4998b6339" y="118.666516"/>
     <use style="fill:#1f77b4;stroke:#1f77b4;" x="297.167118" xlink:href="#ma4998b6339" y="123.190945"/>
     <use style="fill:#1f77b4;stroke:#1f77b4;" x="298.462282" xlink:href="#ma4998b6339" y="149.337096"/>
     <use style="fill:#1f77b4;stroke:#1f77b4;" x="299.757447" xlink:href="#ma4998b6339" y="110.890284"/>
     <use style="fill:#1f77b4;stroke:#1f77b4;" x="301.052611" xlink:href="#ma4998b6339" y="132.284807"/>
     <use style="fill:#1f77b4;stroke:#1f77b4;" x="302.347776" xlink:href="#ma4998b6339" y="215.120006"/>
     <use style="fill:#1f77b4;stroke:#1f77b4;" x="303.64294" xlink:href="#ma4998b6339" y="223.362974"/>
     <use style="fill:#1f77b4;stroke:#1f77b4;" x="304.938104" xlink:href="#ma4998b6339" y="170.427026"/>
     <use style="fill:#1f77b4;stroke:#1f77b4;" x="306.233269" xlink:href="#ma4998b6339" y="137.519748"/>
     <use style="fill:#1f77b4;stroke:#1f77b4;" x="307.528433" xlink:href="#ma4998b6339" y="120.66841"/>
     <use style="fill:#1f77b4;stroke:#1f77b4;" x="308.823598" xlink:href="#ma4998b6339" y="115.922243"/>
     <use style="fill:#1f77b4;stroke:#1f77b4;" x="310.118762" xlink:href="#ma4998b6339" y="134.092375"/>
     <use style="fill:#1f77b4;stroke:#1f77b4;" x="311.413926" xlink:href="#ma4998b6339" y="87.56142"/>
     <use style="fill:#1f77b4;stroke:#1f77b4;" x="312.709091" xlink:href="#ma4998b6339" y="136.608124"/>
     <use style="fill:#1f77b4;stroke:#1f77b4;" x="314.004255" xlink:href="#ma4998b6339" y="131.979075"/>
     <use style="fill:#1f77b4;stroke:#1f77b4;" x="315.29942" xlink:href="#ma4998b6339" y="119.251013"/>
     <use style="fill:#1f77b4;stroke:#1f77b4;" x="316.594584" xlink:href="#ma4998b6339" y="124.830809"/>
     <use style="fill:#1f77b4;stroke:#1f77b4;" x="317.889749" xlink:href="#ma4998b6339" y="133.576542"/>
     <use style="fill:#1f77b4;stroke:#1f77b4;" x="319.184913" xlink:href="#ma4998b6339" y="110.921271"/>
     <use style="fill:#1f77b4;stroke:#1f77b4;" x="320.480077" xlink:href="#ma4998b6339" y="91.762133"/>
     <use style="fill:#1f77b4;stroke:#1f77b4;" x="321.775242" xlink:href="#ma4998b6339" y="104.960336"/>
     <use style="fill:#1f77b4;stroke:#1f77b4;" x="323.070406" xlink:href="#ma4998b6339" y="144.948573"/>
     <use style="fill:#1f77b4;stroke:#1f77b4;" x="324.365571" xlink:href="#ma4998b6339" y="129.608059"/>
     <use style="fill:#1f77b4;stroke:#1f77b4;" x="325.660735" xlink:href="#ma4998b6339" y="131.303359"/>
     <use style="fill:#1f77b4;stroke:#1f77b4;" x="326.955899" xlink:href="#ma4998b6339" y="132.089721"/>
     <use style="fill:#1f77b4;stroke:#1f77b4;" x="328.251064" xlink:href="#ma4998b6339" y="140.72586"/>
     <use style="fill:#1f77b4;stroke:#1f77b4;" x="329.546228" xlink:href="#ma4998b6339" y="135.48037"/>
     <use style="fill:#1f77b4;stroke:#1f77b4;" x="330.841393" xlink:href="#ma4998b6339" y="119.9567"/>
     <use style="fill:#1f77b4;stroke:#1f77b4;" x="332.136557" xlink:href="#ma4998b6339" y="107.697345"/>
     <use style="fill:#1f77b4;stroke:#1f77b4;" x="333.431721" xlink:href="#ma4998b6339" y="194.301952"/>
     <use style="fill:#1f77b4;stroke:#1f77b4;" x="334.726886" xlink:href="#ma4998b6339" y="171.274376"/>
     <use style="fill:#1f77b4;stroke:#1f77b4;" x="336.02205" xlink:href="#ma4998b6339" y="119.038898"/>
     <use style="fill:#1f77b4;stroke:#1f77b4;" x="337.317215" xlink:href="#ma4998b6339" y="140.417918"/>
     <use style="fill:#1f77b4;stroke:#1f77b4;" x="338.612379" xlink:href="#ma4998b6339" y="110.589564"/>
     <use style="fill:#1f77b4;stroke:#1f77b4;" x="339.907544" xlink:href="#ma4998b6339" y="125.313586"/>
     <use style="fill:#1f77b4;stroke:#1f77b4;" x="341.202708" xlink:href="#ma4998b6339" y="105.918532"/>
     <use style="fill:#1f77b4;stroke:#1f77b4;" x="342.497872" xlink:href="#ma4998b6339" y="117.423072"/>
     <use style="fill:#1f77b4;stroke:#1f77b4;" x="343.793037" xlink:href="#ma4998b6339" y="140.51882"/>
     <use style="fill:#1f77b4;stroke:#1f77b4;" x="345.088201" xlink:href="#ma4998b6339" y="134.058638"/>
     <use style="fill:#1f77b4;stroke:#1f77b4;" x="346.383366" xlink:href="#ma4998b6339" y="108.116426"/>
     <use style="fill:#1f77b4;stroke:#1f77b4;" x="347.67853" xlink:href="#ma4998b6339" y="104.83253"/>
     <use style="fill:#1f77b4;stroke:#1f77b4;" x="348.973694" xlink:href="#ma4998b6339" y="111.612042"/>
     <use style="fill:#1f77b4;stroke:#1f77b4;" x="350.268859" xlink:href="#ma4998b6339" y="124.406645"/>
     <use style="fill:#1f77b4;stroke:#1f77b4;" x="351.564023" xlink:href="#ma4998b6339" y="139.650078"/>
     <use style="fill:#1f77b4;stroke:#1f77b4;" x="352.859188" xlink:href="#ma4998b6339" y="143.773976"/>
     <use style="fill:#1f77b4;stroke:#1f77b4;" x="354.154352" xlink:href="#ma4998b6339" y="146.075059"/>
     <use style="fill:#1f77b4;stroke:#1f77b4;" x="355.449516" xlink:href="#ma4998b6339" y="142.082376"/>
     <use style="fill:#1f77b4;stroke:#1f77b4;" x="356.744681" xlink:href="#ma4998b6339" y="91.363513"/>
     <use style="fill:#1f77b4;stroke:#1f77b4;" x="358.039845" xlink:href="#ma4998b6339" y="109.995383"/>
     <use style="fill:#1f77b4;stroke:#1f77b4;" x="359.33501" xlink:href="#ma4998b6339" y="112.093114"/>
     <use style="fill:#1f77b4;stroke:#1f77b4;" x="360.630174" xlink:href="#ma4998b6339" y="93.428086"/>
     <use style="fill:#1f77b4;stroke:#1f77b4;" x="361.925338" xlink:href="#ma4998b6339" y="102.372631"/>
     <use style="fill:#1f77b4;stroke:#1f77b4;" x="363.220503" xlink:href="#ma4998b6339" y="110.878499"/>
     <use style="fill:#1f77b4;stroke:#1f77b4;" x="364.515667" xlink:href="#ma4998b6339" y="128.852077"/>
     <use style="fill:#1f77b4;stroke:#1f77b4;" x="365.810832" xlink:href="#ma4998b6339" y="132.789948"/>
     <use style="fill:#1f77b4;stroke:#1f77b4;" x="367.105996" xlink:href="#ma4998b6339" y="122.872065"/>
     <use style="fill:#1f77b4;stroke:#1f77b4;" x="368.401161" xlink:href="#ma4998b6339" y="116.362209"/>
     <use style="fill:#1f77b4;stroke:#1f77b4;" x="369.696325" xlink:href="#ma4998b6339" y="99.365004"/>
     <use style="fill:#1f77b4;stroke:#1f77b4;" x="370.991489" xlink:href="#ma4998b6339" y="115.259726"/>
     <use style="fill:#1f77b4;stroke:#1f77b4;" x="372.286654" xlink:href="#ma4998b6339" y="133.363573"/>
     <use style="fill:#1f77b4;stroke:#1f77b4;" x="373.581818" xlink:href="#ma4998b6339" y="117.815625"/>
    </g>
   </g>
   <g id="patch_3">
    <path d="M 54 252 
L 54 34.56 
" style="fill:none;stroke:#000000;stroke-linecap:square;stroke-linejoin:miter;stroke-width:0.8;"/>
   </g>
   <g id="patch_4">
    <path d="M 388.8 252 
L 388.8 34.56 
" style="fill:none;stroke:#000000;stroke-linecap:square;stroke-linejoin:miter;stroke-width:0.8;"/>
   </g>
   <g id="patch_5">
    <path d="M 54 252 
L 388.8 252 
" style="fill:none;stroke:#000000;stroke-linecap:square;stroke-linejoin:miter;stroke-width:0.8;"/>
   </g>
   <g id="patch_6">
    <path d="M 54 34.56 
L 388.8 34.56 
" style="fill:none;stroke:#000000;stroke-linecap:square;stroke-linejoin:miter;stroke-width:0.8;"/>
   </g>
   <g id="text_16">
    <!-- Residual Plot -->
    <defs>
     <path d="M 44.390625 34.1875 
Q 47.5625 33.109375 50.5625 29.59375 
Q 53.5625 26.078125 56.59375 19.921875 
L 66.609375 0 
L 56 0 
L 46.6875 18.703125 
Q 43.0625 26.03125 39.671875 28.421875 
Q 36.28125 30.8125 30.421875 30.8125 
L 19.671875 30.8125 
L 19.671875 0 
L 9.8125 0 
L 9.8125 72.90625 
L 32.078125 72.90625 
Q 44.578125 72.90625 50.734375 67.671875 
Q 56.890625 62.453125 56.890625 51.90625 
Q 56.890625 45.015625 53.6875 40.46875 
Q 50.484375 35.9375 44.390625 34.1875 
z
M 19.671875 64.796875 
L 19.671875 38.921875 
L 32.078125 38.921875 
Q 39.203125 38.921875 42.84375 42.21875 
Q 46.484375 45.515625 46.484375 51.90625 
Q 46.484375 58.296875 42.84375 61.546875 
Q 39.203125 64.796875 32.078125 64.796875 
z
" id="DejaVuSans-82"/>
     <path d="M 44.28125 53.078125 
L 44.28125 44.578125 
Q 40.484375 46.53125 36.375 47.5 
Q 32.28125 48.484375 27.875 48.484375 
Q 21.1875 48.484375 17.84375 46.4375 
Q 14.5 44.390625 14.5 40.28125 
Q 14.5 37.15625 16.890625 35.375 
Q 19.28125 33.59375 26.515625 31.984375 
L 29.59375 31.296875 
Q 39.15625 29.25 43.1875 25.515625 
Q 47.21875 21.78125 47.21875 15.09375 
Q 47.21875 7.46875 41.1875 3.015625 
Q 35.15625 -1.421875 24.609375 -1.421875 
Q 20.21875 -1.421875 15.453125 -0.5625 
Q 10.6875 0.296875 5.421875 2 
L 5.421875 11.28125 
Q 10.40625 8.6875 15.234375 7.390625 
Q 20.0625 6.109375 24.8125 6.109375 
Q 31.15625 6.109375 34.5625 8.28125 
Q 37.984375 10.453125 37.984375 14.40625 
Q 37.984375 18.0625 35.515625 20.015625 
Q 33.0625 21.96875 24.703125 23.78125 
L 21.578125 24.515625 
Q 13.234375 26.265625 9.515625 29.90625 
Q 5.8125 33.546875 5.8125 39.890625 
Q 5.8125 47.609375 11.28125 51.796875 
Q 16.75 56 26.8125 56 
Q 31.78125 56 36.171875 55.265625 
Q 40.578125 54.546875 44.28125 53.078125 
z
" id="DejaVuSans-115"/>
     <path d="M 9.421875 75.984375 
L 18.40625 75.984375 
L 18.40625 0 
L 9.421875 0 
z
" id="DejaVuSans-108"/>
    </defs>
    <g transform="translate(182.58 28.56)scale(0.12 -0.12)">
     <use xlink:href="#DejaVuSans-82"/>
     <use x="69.419922" xlink:href="#DejaVuSans-101"/>
     <use x="130.943359" xlink:href="#DejaVuSans-115"/>
     <use x="183.042969" xlink:href="#DejaVuSans-105"/>
     <use x="210.826172" xlink:href="#DejaVuSans-100"/>
     <use x="274.302734" xlink:href="#DejaVuSans-117"/>
     <use x="337.681641" xlink:href="#DejaVuSans-97"/>
     <use x="398.960938" xlink:href="#DejaVuSans-108"/>
     <use x="426.744141" xlink:href="#DejaVuSans-32"/>
     <use x="458.53125" xlink:href="#DejaVuSans-80"/>
     <use x="518.833984" xlink:href="#DejaVuSans-108"/>
     <use x="546.617188" xlink:href="#DejaVuSans-111"/>
     <use x="607.798828" xlink:href="#DejaVuSans-116"/>
    </g>
   </g>
  </g>
 </g>
 <defs>
  <clipPath id="paab551e3fc">
   <rect height="217.44" width="334.8" x="54" y="34.56"/>
  </clipPath>
 </defs>
</svg>
