<?xml version="1.0" encoding="utf-8" standalone="no"?>
<!DOCTYPE svg PUBLIC "-//W3C//DTD SVG 1.1//EN"
  "http://www.w3.org/Graphics/SVG/1.1/DTD/svg11.dtd">
<!-- Created with matplotlib (https://matplotlib.org/) -->
<svg height="720pt" version="1.1" viewBox="0 0 720 720" width="720pt" xmlns="http://www.w3.org/2000/svg" xmlns:xlink="http://www.w3.org/1999/xlink">
 <defs>
  <style type="text/css">
*{stroke-linecap:butt;stroke-linejoin:round;}
  </style>
 </defs>
 <g id="figure_1">
  <g id="patch_1">
   <path d="M 0 720 
L 720 720 
L 720 0 
L 0 0 
z
" style="fill:#ffffff;"/>
  </g>
  <g id="axes_1">
   <g id="patch_2">
    <path d="M 90 630 
L 648 630 
L 648 86.4 
L 90 86.4 
z
" style="fill:#ffffff;"/>
   </g>
   <g id="matplotlib.axis_1">
    <g id="xtick_1">
     <g id="line2d_1">
      <defs>
       <path d="M 0 0 
L 0 3.5 
" id="m7ede2184c5" style="stroke:#000000;stroke-width:0.8;"/>
      </defs>
      <g>
       <use style="stroke:#000000;stroke-width:0.8;" x="115.363636" xlink:href="#m7ede2184c5" y="630"/>
      </g>
     </g>
     <g id="text_1">
      <!-- 0.0 -->
      <defs>
       <path d="M 31.78125 66.40625 
Q 24.171875 66.40625 20.328125 58.90625 
Q 16.5 51.421875 16.5 36.375 
Q 16.5 21.390625 20.328125 13.890625 
Q 24.171875 6.390625 31.78125 6.390625 
Q 39.453125 6.390625 43.28125 13.890625 
Q 47.125 21.390625 47.125 36.375 
Q 47.125 51.421875 43.28125 58.90625 
Q 39.453125 66.40625 31.78125 66.40625 
z
M 31.78125 74.21875 
Q 44.046875 74.21875 50.515625 64.515625 
Q 56.984375 54.828125 56.984375 36.375 
Q 56.984375 17.96875 50.515625 8.265625 
Q 44.046875 -1.421875 31.78125 -1.421875 
Q 19.53125 -1.421875 13.0625 8.265625 
Q 6.59375 17.96875 6.59375 36.375 
Q 6.59375 54.828125 13.0625 64.515625 
Q 19.53125 74.21875 31.78125 74.21875 
z
" id="DejaVuSans-48"/>
       <path d="M 10.6875 12.40625 
L 21 12.40625 
L 21 0 
L 10.6875 0 
z
" id="DejaVuSans-46"/>
      </defs>
      <g transform="translate(107.412074 644.598438)scale(0.1 -0.1)">
       <use xlink:href="#DejaVuSans-48"/>
       <use x="63.623047" xlink:href="#DejaVuSans-46"/>
       <use x="95.410156" xlink:href="#DejaVuSans-48"/>
      </g>
     </g>
    </g>
    <g id="xtick_2">
     <g id="line2d_2">
      <g>
       <use style="stroke:#000000;stroke-width:0.8;" x="216.818182" xlink:href="#m7ede2184c5" y="630"/>
      </g>
     </g>
     <g id="text_2">
      <!-- 0.2 -->
      <defs>
       <path d="M 19.1875 8.296875 
L 53.609375 8.296875 
L 53.609375 0 
L 7.328125 0 
L 7.328125 8.296875 
Q 12.9375 14.109375 22.625 23.890625 
Q 32.328125 33.6875 34.8125 36.53125 
Q 39.546875 41.84375 41.421875 45.53125 
Q 43.3125 49.21875 43.3125 52.78125 
Q 43.3125 58.59375 39.234375 62.25 
Q 35.15625 65.921875 28.609375 65.921875 
Q 23.96875 65.921875 18.8125 64.3125 
Q 13.671875 62.703125 7.8125 59.421875 
L 7.8125 69.390625 
Q 13.765625 71.78125 18.9375 73 
Q 24.125 74.21875 28.421875 74.21875 
Q 39.75 74.21875 46.484375 68.546875 
Q 53.21875 62.890625 53.21875 53.421875 
Q 53.21875 48.921875 51.53125 44.890625 
Q 49.859375 40.875 45.40625 35.40625 
Q 44.1875 33.984375 37.640625 27.21875 
Q 31.109375 20.453125 19.1875 8.296875 
z
" id="DejaVuSans-50"/>
      </defs>
      <g transform="translate(208.866619 644.598438)scale(0.1 -0.1)">
       <use xlink:href="#DejaVuSans-48"/>
       <use x="63.623047" xlink:href="#DejaVuSans-46"/>
       <use x="95.410156" xlink:href="#DejaVuSans-50"/>
      </g>
     </g>
    </g>
    <g id="xtick_3">
     <g id="line2d_3">
      <g>
       <use style="stroke:#000000;stroke-width:0.8;" x="318.272727" xlink:href="#m7ede2184c5" y="630"/>
      </g>
     </g>
     <g id="text_3">
      <!-- 0.4 -->
      <defs>
       <path d="M 37.796875 64.3125 
L 12.890625 25.390625 
L 37.796875 25.390625 
z
M 35.203125 72.90625 
L 47.609375 72.90625 
L 47.609375 25.390625 
L 58.015625 25.390625 
L 58.015625 17.1875 
L 47.609375 17.1875 
L 47.609375 0 
L 37.796875 0 
L 37.796875 17.1875 
L 4.890625 17.1875 
L 4.890625 26.703125 
z
" id="DejaVuSans-52"/>
      </defs>
      <g transform="translate(310.321165 644.598438)scale(0.1 -0.1)">
       <use xlink:href="#DejaVuSans-48"/>
       <use x="63.623047" xlink:href="#DejaVuSans-46"/>
       <use x="95.410156" xlink:href="#DejaVuSans-52"/>
      </g>
     </g>
    </g>
    <g id="xtick_4">
     <g id="line2d_4">
      <g>
       <use style="stroke:#000000;stroke-width:0.8;" x="419.727273" xlink:href="#m7ede2184c5" y="630"/>
      </g>
     </g>
     <g id="text_4">
      <!-- 0.6 -->
      <defs>
       <path d="M 33.015625 40.375 
Q 26.375 40.375 22.484375 35.828125 
Q 18.609375 31.296875 18.609375 23.390625 
Q 18.609375 15.53125 22.484375 10.953125 
Q 26.375 6.390625 33.015625 6.390625 
Q 39.65625 6.390625 43.53125 10.953125 
Q 47.40625 15.53125 47.40625 23.390625 
Q 47.40625 31.296875 43.53125 35.828125 
Q 39.65625 40.375 33.015625 40.375 
z
M 52.59375 71.296875 
L 52.59375 62.3125 
Q 48.875 64.0625 45.09375 64.984375 
Q 41.3125 65.921875 37.59375 65.921875 
Q 27.828125 65.921875 22.671875 59.328125 
Q 17.53125 52.734375 16.796875 39.40625 
Q 19.671875 43.65625 24.015625 45.921875 
Q 28.375 48.1875 33.59375 48.1875 
Q 44.578125 48.1875 50.953125 41.515625 
Q 57.328125 34.859375 57.328125 23.390625 
Q 57.328125 12.15625 50.6875 5.359375 
Q 44.046875 -1.421875 33.015625 -1.421875 
Q 20.359375 -1.421875 13.671875 8.265625 
Q 6.984375 17.96875 6.984375 36.375 
Q 6.984375 53.65625 15.1875 63.9375 
Q 23.390625 74.21875 37.203125 74.21875 
Q 40.921875 74.21875 44.703125 73.484375 
Q 48.484375 72.75 52.59375 71.296875 
z
" id="DejaVuSans-54"/>
      </defs>
      <g transform="translate(411.77571 644.598438)scale(0.1 -0.1)">
       <use xlink:href="#DejaVuSans-48"/>
       <use x="63.623047" xlink:href="#DejaVuSans-46"/>
       <use x="95.410156" xlink:href="#DejaVuSans-54"/>
      </g>
     </g>
    </g>
    <g id="xtick_5">
     <g id="line2d_5">
      <g>
       <use style="stroke:#000000;stroke-width:0.8;" x="521.181818" xlink:href="#m7ede2184c5" y="630"/>
      </g>
     </g>
     <g id="text_5">
      <!-- 0.8 -->
      <defs>
       <path d="M 31.78125 34.625 
Q 24.75 34.625 20.71875 30.859375 
Q 16.703125 27.09375 16.703125 20.515625 
Q 16.703125 13.921875 20.71875 10.15625 
Q 24.75 6.390625 31.78125 6.390625 
Q 38.8125 6.390625 42.859375 10.171875 
Q 46.921875 13.96875 46.921875 20.515625 
Q 46.921875 27.09375 42.890625 30.859375 
Q 38.875 34.625 31.78125 34.625 
z
M 21.921875 38.8125 
Q 15.578125 40.375 12.03125 44.71875 
Q 8.5 49.078125 8.5 55.328125 
Q 8.5 64.0625 14.71875 69.140625 
Q 20.953125 74.21875 31.78125 74.21875 
Q 42.671875 74.21875 48.875 69.140625 
Q 55.078125 64.0625 55.078125 55.328125 
Q 55.078125 49.078125 51.53125 44.71875 
Q 48 40.375 41.703125 38.8125 
Q 48.828125 37.15625 52.796875 32.3125 
Q 56.78125 27.484375 56.78125 20.515625 
Q 56.78125 9.90625 50.3125 4.234375 
Q 43.84375 -1.421875 31.78125 -1.421875 
Q 19.734375 -1.421875 13.25 4.234375 
Q 6.78125 9.90625 6.78125 20.515625 
Q 6.78125 27.484375 10.78125 32.3125 
Q 14.796875 37.15625 21.921875 38.8125 
z
M 18.3125 54.390625 
Q 18.3125 48.734375 21.84375 45.5625 
Q 25.390625 42.390625 31.78125 42.390625 
Q 38.140625 42.390625 41.71875 45.5625 
Q 45.3125 48.734375 45.3125 54.390625 
Q 45.3125 60.0625 41.71875 63.234375 
Q 38.140625 66.40625 31.78125 66.40625 
Q 25.390625 66.40625 21.84375 63.234375 
Q 18.3125 60.0625 18.3125 54.390625 
z
" id="DejaVuSans-56"/>
      </defs>
      <g transform="translate(513.230256 644.598438)scale(0.1 -0.1)">
       <use xlink:href="#DejaVuSans-48"/>
       <use x="63.623047" xlink:href="#DejaVuSans-46"/>
       <use x="95.410156" xlink:href="#DejaVuSans-56"/>
      </g>
     </g>
    </g>
    <g id="xtick_6">
     <g id="line2d_6">
      <g>
       <use style="stroke:#000000;stroke-width:0.8;" x="622.636364" xlink:href="#m7ede2184c5" y="630"/>
      </g>
     </g>
     <g id="text_6">
      <!-- 1.0 -->
      <defs>
       <path d="M 12.40625 8.296875 
L 28.515625 8.296875 
L 28.515625 63.921875 
L 10.984375 60.40625 
L 10.984375 69.390625 
L 28.421875 72.90625 
L 38.28125 72.90625 
L 38.28125 8.296875 
L 54.390625 8.296875 
L 54.390625 0 
L 12.40625 0 
z
" id="DejaVuSans-49"/>
      </defs>
      <g transform="translate(614.684801 644.598438)scale(0.1 -0.1)">
       <use xlink:href="#DejaVuSans-49"/>
       <use x="63.623047" xlink:href="#DejaVuSans-46"/>
       <use x="95.410156" xlink:href="#DejaVuSans-48"/>
      </g>
     </g>
    </g>
    <g id="text_7">
     <!-- |coef| / max|coef| -->
     <defs>
      <path d="M 21 76.421875 
L 21 -23.578125 
L 12.703125 -23.578125 
L 12.703125 76.421875 
z
" id="DejaVuSans-124"/>
      <path d="M 48.78125 52.59375 
L 48.78125 44.1875 
Q 44.96875 46.296875 41.140625 47.34375 
Q 37.3125 48.390625 33.40625 48.390625 
Q 24.65625 48.390625 19.8125 42.84375 
Q 14.984375 37.3125 14.984375 27.296875 
Q 14.984375 17.28125 19.8125 11.734375 
Q 24.65625 6.203125 33.40625 6.203125 
Q 37.3125 6.203125 41.140625 7.25 
Q 44.96875 8.296875 48.78125 10.40625 
L 48.78125 2.09375 
Q 45.015625 0.34375 40.984375 -0.53125 
Q 36.96875 -1.421875 32.421875 -1.421875 
Q 20.0625 -1.421875 12.78125 6.34375 
Q 5.515625 14.109375 5.515625 27.296875 
Q 5.515625 40.671875 12.859375 48.328125 
Q 20.21875 56 33.015625 56 
Q 37.15625 56 41.109375 55.140625 
Q 45.0625 54.296875 48.78125 52.59375 
z
" id="DejaVuSans-99"/>
      <path d="M 30.609375 48.390625 
Q 23.390625 48.390625 19.1875 42.75 
Q 14.984375 37.109375 14.984375 27.296875 
Q 14.984375 17.484375 19.15625 11.84375 
Q 23.34375 6.203125 30.609375 6.203125 
Q 37.796875 6.203125 41.984375 11.859375 
Q 46.1875 17.53125 46.1875 27.296875 
Q 46.1875 37.015625 41.984375 42.703125 
Q 37.796875 48.390625 30.609375 48.390625 
z
M 30.609375 56 
Q 42.328125 56 49.015625 48.375 
Q 55.71875 40.765625 55.71875 27.296875 
Q 55.71875 13.875 49.015625 6.21875 
Q 42.328125 -1.421875 30.609375 -1.421875 
Q 18.84375 -1.421875 12.171875 6.21875 
Q 5.515625 13.875 5.515625 27.296875 
Q 5.515625 40.765625 12.171875 48.375 
Q 18.84375 56 30.609375 56 
z
" id="DejaVuSans-111"/>
      <path d="M 56.203125 29.59375 
L 56.203125 25.203125 
L 14.890625 25.203125 
Q 15.484375 15.921875 20.484375 11.0625 
Q 25.484375 6.203125 34.421875 6.203125 
Q 39.59375 6.203125 44.453125 7.46875 
Q 49.3125 8.734375 54.109375 11.28125 
L 54.109375 2.78125 
Q 49.265625 0.734375 44.1875 -0.34375 
Q 39.109375 -1.421875 33.890625 -1.421875 
Q 20.796875 -1.421875 13.15625 6.1875 
Q 5.515625 13.8125 5.515625 26.8125 
Q 5.515625 40.234375 12.765625 48.109375 
Q 20.015625 56 32.328125 56 
Q 43.359375 56 49.78125 48.890625 
Q 56.203125 41.796875 56.203125 29.59375 
z
M 47.21875 32.234375 
Q 47.125 39.59375 43.09375 43.984375 
Q 39.0625 48.390625 32.421875 48.390625 
Q 24.90625 48.390625 20.390625 44.140625 
Q 15.875 39.890625 15.1875 32.171875 
z
" id="DejaVuSans-101"/>
      <path d="M 37.109375 75.984375 
L 37.109375 68.5 
L 28.515625 68.5 
Q 23.6875 68.5 21.796875 66.546875 
Q 19.921875 64.59375 19.921875 59.515625 
L 19.921875 54.6875 
L 34.71875 54.6875 
L 34.71875 47.703125 
L 19.921875 47.703125 
L 19.921875 0 
L 10.890625 0 
L 10.890625 47.703125 
L 2.296875 47.703125 
L 2.296875 54.6875 
L 10.890625 54.6875 
L 10.890625 58.5 
Q 10.890625 67.625 15.140625 71.796875 
Q 19.390625 75.984375 28.609375 75.984375 
z
" id="DejaVuSans-102"/>
      <path id="DejaVuSans-32"/>
      <path d="M 25.390625 72.90625 
L 33.6875 72.90625 
L 8.296875 -9.28125 
L 0 -9.28125 
z
" id="DejaVuSans-47"/>
      <path d="M 52 44.1875 
Q 55.375 50.25 60.0625 53.125 
Q 64.75 56 71.09375 56 
Q 79.640625 56 84.28125 50.015625 
Q 88.921875 44.046875 88.921875 33.015625 
L 88.921875 0 
L 79.890625 0 
L 79.890625 32.71875 
Q 79.890625 40.578125 77.09375 44.375 
Q 74.3125 48.1875 68.609375 48.1875 
Q 61.625 48.1875 57.5625 43.546875 
Q 53.515625 38.921875 53.515625 30.90625 
L 53.515625 0 
L 44.484375 0 
L 44.484375 32.71875 
Q 44.484375 40.625 41.703125 44.40625 
Q 38.921875 48.1875 33.109375 48.1875 
Q 26.21875 48.1875 22.15625 43.53125 
Q 18.109375 38.875 18.109375 30.90625 
L 18.109375 0 
L 9.078125 0 
L 9.078125 54.6875 
L 18.109375 54.6875 
L 18.109375 46.1875 
Q 21.1875 51.21875 25.484375 53.609375 
Q 29.78125 56 35.6875 56 
Q 41.65625 56 45.828125 52.96875 
Q 50 49.953125 52 44.1875 
z
" id="DejaVuSans-109"/>
      <path d="M 34.28125 27.484375 
Q 23.390625 27.484375 19.1875 25 
Q 14.984375 22.515625 14.984375 16.5 
Q 14.984375 11.71875 18.140625 8.90625 
Q 21.296875 6.109375 26.703125 6.109375 
Q 34.1875 6.109375 38.703125 11.40625 
Q 43.21875 16.703125 43.21875 25.484375 
L 43.21875 27.484375 
z
M 52.203125 31.203125 
L 52.203125 0 
L 43.21875 0 
L 43.21875 8.296875 
Q 40.140625 3.328125 35.546875 0.953125 
Q 30.953125 -1.421875 24.3125 -1.421875 
Q 15.921875 -1.421875 10.953125 3.296875 
Q 6 8.015625 6 15.921875 
Q 6 25.140625 12.171875 29.828125 
Q 18.359375 34.515625 30.609375 34.515625 
L 43.21875 34.515625 
L 43.21875 35.40625 
Q 43.21875 41.609375 39.140625 45 
Q 35.0625 48.390625 27.6875 48.390625 
Q 23 48.390625 18.546875 47.265625 
Q 14.109375 46.140625 10.015625 43.890625 
L 10.015625 52.203125 
Q 14.9375 54.109375 19.578125 55.046875 
Q 24.21875 56 28.609375 56 
Q 40.484375 56 46.34375 49.84375 
Q 52.203125 43.703125 52.203125 31.203125 
z
" id="DejaVuSans-97"/>
      <path d="M 54.890625 54.6875 
L 35.109375 28.078125 
L 55.90625 0 
L 45.3125 0 
L 29.390625 21.484375 
L 13.484375 0 
L 2.875 0 
L 24.125 28.609375 
L 4.6875 54.6875 
L 15.28125 54.6875 
L 29.78125 35.203125 
L 44.28125 54.6875 
z
" id="DejaVuSans-120"/>
     </defs>
     <g transform="translate(325.215625 658.320312)scale(0.1 -0.1)">
      <use xlink:href="#DejaVuSans-124"/>
      <use x="33.691406" xlink:href="#DejaVuSans-99"/>
      <use x="88.671875" xlink:href="#DejaVuSans-111"/>
      <use x="149.853516" xlink:href="#DejaVuSans-101"/>
      <use x="211.376953" xlink:href="#DejaVuSans-102"/>
      <use x="246.582031" xlink:href="#DejaVuSans-124"/>
      <use x="280.273438" xlink:href="#DejaVuSans-32"/>
      <use x="312.060547" xlink:href="#DejaVuSans-47"/>
      <use x="345.751953" xlink:href="#DejaVuSans-32"/>
      <use x="377.539062" xlink:href="#DejaVuSans-109"/>
      <use x="474.951172" xlink:href="#DejaVuSans-97"/>
      <use x="536.230469" xlink:href="#DejaVuSans-120"/>
      <use x="595.410156" xlink:href="#DejaVuSans-124"/>
      <use x="629.101562" xlink:href="#DejaVuSans-99"/>
      <use x="684.082031" xlink:href="#DejaVuSans-111"/>
      <use x="745.263672" xlink:href="#DejaVuSans-101"/>
      <use x="806.787109" xlink:href="#DejaVuSans-102"/>
      <use x="841.992188" xlink:href="#DejaVuSans-124"/>
     </g>
    </g>
   </g>
   <g id="matplotlib.axis_2">
    <g id="ytick_1">
     <g id="line2d_7">
      <defs>
       <path d="M 0 0 
L -3.5 0 
" id="m75ff98a9d6" style="stroke:#000000;stroke-width:0.8;"/>
      </defs>
      <g>
       <use style="stroke:#000000;stroke-width:0.8;" x="90" xlink:href="#m75ff98a9d6" y="613.033707"/>
      </g>
     </g>
     <g id="text_8">
      <!-- −4 -->
      <defs>
       <path d="M 10.59375 35.5 
L 73.1875 35.5 
L 73.1875 27.203125 
L 10.59375 27.203125 
z
" id="DejaVuSans-8722"/>
      </defs>
      <g transform="translate(68.257812 616.832925)scale(0.1 -0.1)">
       <use xlink:href="#DejaVuSans-8722"/>
       <use x="83.789062" xlink:href="#DejaVuSans-52"/>
      </g>
     </g>
    </g>
    <g id="ytick_2">
     <g id="line2d_8">
      <g>
       <use style="stroke:#000000;stroke-width:0.8;" x="90" xlink:href="#m75ff98a9d6" y="546.888507"/>
      </g>
     </g>
     <g id="text_9">
      <!-- −2 -->
      <g transform="translate(68.257812 550.687726)scale(0.1 -0.1)">
       <use xlink:href="#DejaVuSans-8722"/>
       <use x="83.789062" xlink:href="#DejaVuSans-50"/>
      </g>
     </g>
    </g>
    <g id="ytick_3">
     <g id="line2d_9">
      <g>
       <use style="stroke:#000000;stroke-width:0.8;" x="90" xlink:href="#m75ff98a9d6" y="480.743307"/>
      </g>
     </g>
     <g id="text_10">
      <!-- 0 -->
      <g transform="translate(76.6375 484.542526)scale(0.1 -0.1)">
       <use xlink:href="#DejaVuSans-48"/>
      </g>
     </g>
    </g>
    <g id="ytick_4">
     <g id="line2d_10">
      <g>
       <use style="stroke:#000000;stroke-width:0.8;" x="90" xlink:href="#m75ff98a9d6" y="414.598107"/>
      </g>
     </g>
     <g id="text_11">
      <!-- 2 -->
      <g transform="translate(76.6375 418.397326)scale(0.1 -0.1)">
       <use xlink:href="#DejaVuSans-50"/>
      </g>
     </g>
    </g>
    <g id="ytick_5">
     <g id="line2d_11">
      <g>
       <use style="stroke:#000000;stroke-width:0.8;" x="90" xlink:href="#m75ff98a9d6" y="348.452908"/>
      </g>
     </g>
     <g id="text_12">
      <!-- 4 -->
      <g transform="translate(76.6375 352.252126)scale(0.1 -0.1)">
       <use xlink:href="#DejaVuSans-52"/>
      </g>
     </g>
    </g>
    <g id="ytick_6">
     <g id="line2d_12">
      <g>
       <use style="stroke:#000000;stroke-width:0.8;" x="90" xlink:href="#m75ff98a9d6" y="282.307708"/>
      </g>
     </g>
     <g id="text_13">
      <!-- 6 -->
      <g transform="translate(76.6375 286.106926)scale(0.1 -0.1)">
       <use xlink:href="#DejaVuSans-54"/>
      </g>
     </g>
    </g>
    <g id="ytick_7">
     <g id="line2d_13">
      <g>
       <use style="stroke:#000000;stroke-width:0.8;" x="90" xlink:href="#m75ff98a9d6" y="216.162508"/>
      </g>
     </g>
     <g id="text_14">
      <!-- 8 -->
      <g transform="translate(76.6375 219.961727)scale(0.1 -0.1)">
       <use xlink:href="#DejaVuSans-56"/>
      </g>
     </g>
    </g>
    <g id="ytick_8">
     <g id="line2d_14">
      <g>
       <use style="stroke:#000000;stroke-width:0.8;" x="90" xlink:href="#m75ff98a9d6" y="150.017308"/>
      </g>
     </g>
     <g id="text_15">
      <!-- 10 -->
      <g transform="translate(70.275 153.816527)scale(0.1 -0.1)">
       <use xlink:href="#DejaVuSans-49"/>
       <use x="63.623047" xlink:href="#DejaVuSans-48"/>
      </g>
     </g>
    </g>
    <g id="text_16">
     <!-- Coefficients -->
     <defs>
      <path d="M 64.40625 67.28125 
L 64.40625 56.890625 
Q 59.421875 61.53125 53.78125 63.8125 
Q 48.140625 66.109375 41.796875 66.109375 
Q 29.296875 66.109375 22.65625 58.46875 
Q 16.015625 50.828125 16.015625 36.375 
Q 16.015625 21.96875 22.65625 14.328125 
Q 29.296875 6.6875 41.796875 6.6875 
Q 48.140625 6.6875 53.78125 8.984375 
Q 59.421875 11.28125 64.40625 15.921875 
L 64.40625 5.609375 
Q 59.234375 2.09375 53.4375 0.328125 
Q 47.65625 -1.421875 41.21875 -1.421875 
Q 24.65625 -1.421875 15.125 8.703125 
Q 5.609375 18.84375 5.609375 36.375 
Q 5.609375 53.953125 15.125 64.078125 
Q 24.65625 74.21875 41.21875 74.21875 
Q 47.75 74.21875 53.53125 72.484375 
Q 59.328125 70.75 64.40625 67.28125 
z
" id="DejaVuSans-67"/>
      <path d="M 9.421875 54.6875 
L 18.40625 54.6875 
L 18.40625 0 
L 9.421875 0 
z
M 9.421875 75.984375 
L 18.40625 75.984375 
L 18.40625 64.59375 
L 9.421875 64.59375 
z
" id="DejaVuSans-105"/>
      <path d="M 54.890625 33.015625 
L 54.890625 0 
L 45.90625 0 
L 45.90625 32.71875 
Q 45.90625 40.484375 42.875 44.328125 
Q 39.84375 48.1875 33.796875 48.1875 
Q 26.515625 48.1875 22.3125 43.546875 
Q 18.109375 38.921875 18.109375 30.90625 
L 18.109375 0 
L 9.078125 0 
L 9.078125 54.6875 
L 18.109375 54.6875 
L 18.109375 46.1875 
Q 21.34375 51.125 25.703125 53.5625 
Q 30.078125 56 35.796875 56 
Q 45.21875 56 50.046875 50.171875 
Q 54.890625 44.34375 54.890625 33.015625 
z
" id="DejaVuSans-110"/>
      <path d="M 18.3125 70.21875 
L 18.3125 54.6875 
L 36.8125 54.6875 
L 36.8125 47.703125 
L 18.3125 47.703125 
L 18.3125 18.015625 
Q 18.3125 11.328125 20.140625 9.421875 
Q 21.96875 7.515625 27.59375 7.515625 
L 36.8125 7.515625 
L 36.8125 0 
L 27.59375 0 
Q 17.1875 0 13.234375 3.875 
Q 9.28125 7.765625 9.28125 18.015625 
L 9.28125 47.703125 
L 2.6875 47.703125 
L 2.6875 54.6875 
L 9.28125 54.6875 
L 9.28125 70.21875 
z
" id="DejaVuSans-116"/>
      <path d="M 44.28125 53.078125 
L 44.28125 44.578125 
Q 40.484375 46.53125 36.375 47.5 
Q 32.28125 48.484375 27.875 48.484375 
Q 21.1875 48.484375 17.84375 46.4375 
Q 14.5 44.390625 14.5 40.28125 
Q 14.5 37.15625 16.890625 35.375 
Q 19.28125 33.59375 26.515625 31.984375 
L 29.59375 31.296875 
Q 39.15625 29.25 43.1875 25.515625 
Q 47.21875 21.78125 47.21875 15.09375 
Q 47.21875 7.46875 41.1875 3.015625 
Q 35.15625 -1.421875 24.609375 -1.421875 
Q 20.21875 -1.421875 15.453125 -0.5625 
Q 10.6875 0.296875 5.421875 2 
L 5.421875 11.28125 
Q 10.40625 8.6875 15.234375 7.390625 
Q 20.0625 6.109375 24.8125 6.109375 
Q 31.15625 6.109375 34.5625 8.28125 
Q 37.984375 10.453125 37.984375 14.40625 
Q 37.984375 18.0625 35.515625 20.015625 
Q 33.0625 21.96875 24.703125 23.78125 
L 21.578125 24.515625 
Q 13.234375 26.265625 9.515625 29.90625 
Q 5.8125 33.546875 5.8125 39.890625 
Q 5.8125 47.609375 11.28125 51.796875 
Q 16.75 56 26.8125 56 
Q 31.78125 56 36.171875 55.265625 
Q 40.578125 54.546875 44.28125 53.078125 
z
" id="DejaVuSans-115"/>
     </defs>
     <g transform="translate(62.178125 387.685156)rotate(-90)scale(0.1 -0.1)">
      <use xlink:href="#DejaVuSans-67"/>
      <use x="69.824219" xlink:href="#DejaVuSans-111"/>
      <use x="131.005859" xlink:href="#DejaVuSans-101"/>
      <use x="192.529297" xlink:href="#DejaVuSans-102"/>
      <use x="227.734375" xlink:href="#DejaVuSans-102"/>
      <use x="262.939453" xlink:href="#DejaVuSans-105"/>
      <use x="290.722656" xlink:href="#DejaVuSans-99"/>
      <use x="345.703125" xlink:href="#DejaVuSans-105"/>
      <use x="373.486328" xlink:href="#DejaVuSans-101"/>
      <use x="435.009766" xlink:href="#DejaVuSans-110"/>
      <use x="498.388672" xlink:href="#DejaVuSans-116"/>
      <use x="537.597656" xlink:href="#DejaVuSans-115"/>
     </g>
    </g>
   </g>
   <g id="LineCollection_1">
    <path clip-path="url(#p02ef41be74)" d="M 115.363636 605.290909 
L 115.363636 111.109091 
" style="fill:none;stroke:#000000;stroke-dasharray:5.55,2.4;stroke-dashoffset:0;stroke-width:1.5;"/>
    <path clip-path="url(#p02ef41be74)" d="M 236.390727 605.290909 
L 236.390727 111.109091 
" style="fill:none;stroke:#000000;stroke-dasharray:5.55,2.4;stroke-dashoffset:0;stroke-width:1.5;"/>
    <path clip-path="url(#p02ef41be74)" d="M 279.301616 605.290909 
L 279.301616 111.109091 
" style="fill:none;stroke:#000000;stroke-dasharray:5.55,2.4;stroke-dashoffset:0;stroke-width:1.5;"/>
    <path clip-path="url(#p02ef41be74)" d="M 282.670661 605.290909 
L 282.670661 111.109091 
" style="fill:none;stroke:#000000;stroke-dasharray:5.55,2.4;stroke-dashoffset:0;stroke-width:1.5;"/>
    <path clip-path="url(#p02ef41be74)" d="M 285.575207 605.290909 
L 285.575207 111.109091 
" style="fill:none;stroke:#000000;stroke-dasharray:5.55,2.4;stroke-dashoffset:0;stroke-width:1.5;"/>
    <path clip-path="url(#p02ef41be74)" d="M 325.709504 605.290909 
L 325.709504 111.109091 
" style="fill:none;stroke:#000000;stroke-dasharray:5.55,2.4;stroke-dashoffset:0;stroke-width:1.5;"/>
    <path clip-path="url(#p02ef41be74)" d="M 328.815357 605.290909 
L 328.815357 111.109091 
" style="fill:none;stroke:#000000;stroke-dasharray:5.55,2.4;stroke-dashoffset:0;stroke-width:1.5;"/>
    <path clip-path="url(#p02ef41be74)" d="M 340.498353 605.290909 
L 340.498353 111.109091 
" style="fill:none;stroke:#000000;stroke-dasharray:5.55,2.4;stroke-dashoffset:0;stroke-width:1.5;"/>
    <path clip-path="url(#p02ef41be74)" d="M 367.57119 605.290909 
L 367.57119 111.109091 
" style="fill:none;stroke:#000000;stroke-dasharray:5.55,2.4;stroke-dashoffset:0;stroke-width:1.5;"/>
    <path clip-path="url(#p02ef41be74)" d="M 395.980847 605.290909 
L 395.980847 111.109091 
" style="fill:none;stroke:#000000;stroke-dasharray:5.55,2.4;stroke-dashoffset:0;stroke-width:1.5;"/>
    <path clip-path="url(#p02ef41be74)" d="M 406.024811 605.290909 
L 406.024811 111.109091 
" style="fill:none;stroke:#000000;stroke-dasharray:5.55,2.4;stroke-dashoffset:0;stroke-width:1.5;"/>
    <path clip-path="url(#p02ef41be74)" d="M 465.741416 605.290909 
L 465.741416 111.109091 
" style="fill:none;stroke:#000000;stroke-dasharray:5.55,2.4;stroke-dashoffset:0;stroke-width:1.5;"/>
    <path clip-path="url(#p02ef41be74)" d="M 488.653272 605.290909 
L 488.653272 111.109091 
" style="fill:none;stroke:#000000;stroke-dasharray:5.55,2.4;stroke-dashoffset:0;stroke-width:1.5;"/>
    <path clip-path="url(#p02ef41be74)" d="M 511.654955 605.290909 
L 511.654955 111.109091 
" style="fill:none;stroke:#000000;stroke-dasharray:5.55,2.4;stroke-dashoffset:0;stroke-width:1.5;"/>
    <path clip-path="url(#p02ef41be74)" d="M 540.846163 605.290909 
L 540.846163 111.109091 
" style="fill:none;stroke:#000000;stroke-dasharray:5.55,2.4;stroke-dashoffset:0;stroke-width:1.5;"/>
    <path clip-path="url(#p02ef41be74)" d="M 555.212958 605.290909 
L 555.212958 111.109091 
" style="fill:none;stroke:#000000;stroke-dasharray:5.55,2.4;stroke-dashoffset:0;stroke-width:1.5;"/>
    <path clip-path="url(#p02ef41be74)" d="M 566.171191 605.290909 
L 566.171191 111.109091 
" style="fill:none;stroke:#000000;stroke-dasharray:5.55,2.4;stroke-dashoffset:0;stroke-width:1.5;"/>
    <path clip-path="url(#p02ef41be74)" d="M 597.947715 605.290909 
L 597.947715 111.109091 
" style="fill:none;stroke:#000000;stroke-dasharray:5.55,2.4;stroke-dashoffset:0;stroke-width:1.5;"/>
    <path clip-path="url(#p02ef41be74)" d="M 607.368019 605.290909 
L 607.368019 111.109091 
" style="fill:none;stroke:#000000;stroke-dasharray:5.55,2.4;stroke-dashoffset:0;stroke-width:1.5;"/>
    <path clip-path="url(#p02ef41be74)" d="M 614.300008 605.290909 
L 614.300008 111.109091 
" style="fill:none;stroke:#000000;stroke-dasharray:5.55,2.4;stroke-dashoffset:0;stroke-width:1.5;"/>
    <path clip-path="url(#p02ef41be74)" d="M 622.636364 605.290909 
L 622.636364 111.109091 
" style="fill:none;stroke:#000000;stroke-dasharray:5.55,2.4;stroke-dashoffset:0;stroke-width:1.5;"/>
   </g>
   <g id="line2d_15">
    <path clip-path="url(#p02ef41be74)" d="M 115.363636 480.743307 
L 236.390727 480.743307 
L 279.301616 480.743307 
L 282.670661 480.743307 
L 285.575207 480.743307 
L 325.709504 497.18199 
L 328.815357 497.812895 
L 340.498353 500.427894 
L 367.57119 506.337807 
L 395.980847 511.888144 
L 406.024811 513.806929 
L 465.741416 520.821336 
L 488.653272 523.824367 
L 511.654955 527.971225 
L 540.846163 532.893918 
L 555.212958 535.442079 
L 566.171191 537.689333 
L 597.947715 544.813488 
L 607.368019 546.887408 
L 614.300008 548.161047 
L 622.636364 548.872176 
" style="fill:none;stroke:#000000;stroke-linecap:square;stroke-width:1.5;"/>
   </g>
   <g id="line2d_16">
    <path clip-path="url(#p02ef41be74)" d="M 115.363636 480.743307 
L 236.390727 480.743307 
L 279.301616 480.743307 
L 282.670661 480.743307 
L 285.575207 480.743307 
L 325.709504 480.743307 
L 328.815357 480.743307 
L 340.498353 480.743307 
L 367.57119 480.743307 
L 395.980847 480.743307 
L 406.024811 480.743307 
L 465.741416 480.743307 
L 488.653272 480.743307 
L 511.654955 480.743307 
L 540.846163 480.743307 
L 555.212958 480.743307 
L 566.171191 480.743307 
L 597.947715 487.2155 
L 607.368019 490.034844 
L 614.300008 491.748784 
L 622.636364 492.732992 
" style="fill:none;stroke:#ff7f0e;stroke-linecap:square;stroke-width:1.5;"/>
   </g>
   <g id="line2d_17">
    <path clip-path="url(#p02ef41be74)" d="M 115.363636 480.743307 
L 236.390727 480.743307 
L 279.301616 480.743307 
L 282.670661 480.743307 
L 285.575207 480.743307 
L 325.709504 480.743307 
L 328.815357 480.743307 
L 340.498353 480.743307 
L 367.57119 480.743307 
L 395.980847 480.743307 
L 406.024811 480.743307 
L 465.741416 480.743307 
L 488.653272 480.743307 
L 511.654955 485.998878 
L 540.846163 492.254291 
L 555.212958 495.116208 
L 566.171191 497.16302 
L 597.947715 502.89368 
L 607.368019 503.957031 
L 614.300008 504.655284 
L 622.636364 504.974671 
" style="fill:none;stroke:#2ca02c;stroke-linecap:square;stroke-width:1.5;"/>
   </g>
   <g id="line2d_18">
    <path clip-path="url(#p02ef41be74)" d="M 115.363636 480.743307 
L 236.390727 480.743307 
L 279.301616 434.43436 
L 282.670661 431.829976 
L 285.575207 429.831636 
L 325.709504 410.714051 
L 328.815357 409.56441 
L 340.498353 407.787501 
L 367.57119 401.108799 
L 395.980847 394.900049 
L 406.024811 392.413433 
L 465.741416 379.190417 
L 488.653272 392.719437 
L 511.654955 407.676696 
L 540.846163 425.301833 
L 555.212958 436.036734 
L 566.171191 444.423298 
L 597.947715 473.692032 
L 607.368019 480.743307 
L 614.300008 480.743307 
L 622.636364 487.491467 
" style="fill:none;stroke:#ffc0cb;stroke-linecap:square;stroke-width:1.5;"/>
   </g>
   <g id="line2d_19">
    <path clip-path="url(#p02ef41be74)" d="M 115.363636 480.743307 
L 236.390727 480.743307 
L 279.301616 480.743307 
L 282.670661 480.743307 
L 285.575207 480.743307 
L 325.709504 480.743307 
L 328.815357 480.743307 
L 340.498353 480.743307 
L 367.57119 480.743307 
L 395.980847 480.743307 
L 406.024811 480.743307 
L 465.741416 480.743307 
L 488.653272 480.743307 
L 511.654955 480.743307 
L 540.846163 480.743307 
L 555.212958 480.743307 
L 566.171191 484.789255 
L 597.947715 497.18743 
L 607.368019 499.838334 
L 614.300008 501.65081 
L 622.636364 502.375282 
" style="fill:none;stroke:#ffd700;stroke-linecap:square;stroke-width:1.5;"/>
   </g>
   <g id="line2d_20">
    <path clip-path="url(#p02ef41be74)" d="M 115.363636 480.743307 
L 236.390727 480.743307 
L 279.301616 480.743307 
L 282.670661 480.743307 
L 285.575207 480.743307 
L 325.709504 480.743307 
L 328.815357 480.743307 
L 340.498353 480.743307 
L 367.57119 480.743307 
L 395.980847 480.743307 
L 406.024811 480.743307 
L 465.741416 480.743307 
L 488.653272 480.743307 
L 511.654955 480.743307 
L 540.846163 480.743307 
L 555.212958 482.910323 
L 566.171191 484.343677 
L 597.947715 488.272088 
L 607.368019 489.019224 
L 614.300008 489.229907 
L 622.636364 489.734243 
" style="fill:none;stroke:#000080;stroke-linecap:square;stroke-width:1.5;"/>
   </g>
   <g id="line2d_21">
    <path clip-path="url(#p02ef41be74)" d="M 115.363636 480.743307 
L 236.390727 480.743307 
L 279.301616 480.743307 
L 282.670661 480.743307 
L 285.575207 480.743307 
L 325.709504 480.743307 
L 328.815357 480.743307 
L 340.498353 480.743307 
L 367.57119 480.743307 
L 395.980847 480.743307 
L 406.024811 480.743307 
L 465.741416 480.743307 
L 488.653272 498.830352 
L 511.654955 515.786677 
L 540.846163 535.745595 
L 555.212958 547.517224 
L 566.171191 553.289081 
L 597.947715 572.550116 
L 607.368019 577.801989 
L 614.300008 577.290808 
L 622.636364 582.828099 
" style="fill:none;stroke:#00ff00;stroke-linecap:square;stroke-width:1.5;"/>
   </g>
   <g id="line2d_22">
    <path clip-path="url(#p02ef41be74)" d="M 115.363636 480.743307 
L 236.390727 480.743307 
L 279.301616 480.743307 
L 282.670661 480.743307 
L 285.575207 480.743307 
L 325.709504 480.743307 
L 328.815357 479.305876 
L 340.498353 474.557782 
L 367.57119 465.859524 
L 395.980847 457.095258 
L 406.024811 454.334475 
L 465.741416 440.060654 
L 488.653272 432.047764 
L 511.654955 424.63768 
L 540.846163 415.992779 
L 555.212958 412.187177 
L 566.171191 409.486403 
L 597.947715 403.414019 
L 607.368019 402.418198 
L 614.300008 402.157312 
L 622.636364 401.465185 
" style="fill:none;stroke:#800080;stroke-linecap:square;stroke-width:1.5;"/>
   </g>
   <g id="line2d_23">
    <path clip-path="url(#p02ef41be74)" d="M 115.363636 480.743307 
L 236.390727 219.521171 
L 279.301616 173.212225 
L 282.670661 171.22297 
L 285.575207 169.830421 
L 325.709504 158.198881 
L 328.815357 157.527551 
L 340.498353 155.275469 
L 367.57119 151.701174 
L 395.980847 147.763789 
L 406.024811 146.716769 
L 465.741416 141.416982 
L 488.653272 141.020917 
L 511.654955 140.908793 
L 540.846163 140.716417 
L 555.212958 141.108483 
L 566.171191 139.585634 
L 597.947715 135.434443 
L 607.368019 134.586842 
L 614.300008 133.571901 
L 622.636364 133.775677 
" style="fill:none;stroke:#bcbd22;stroke-linecap:square;stroke-width:1.5;"/>
   </g>
   <g id="line2d_24">
    <path clip-path="url(#p02ef41be74)" d="M 115.363636 480.743307 
L 236.390727 480.743307 
L 279.301616 480.743307 
L 282.670661 480.743307 
L 285.575207 480.743307 
L 325.709504 480.743307 
L 328.815357 480.743307 
L 340.498353 480.743307 
L 367.57119 480.743307 
L 395.980847 480.743307 
L 406.024811 480.743307 
L 465.741416 489.786123 
L 488.653272 495.219737 
L 511.654955 499.44079 
L 540.846163 504.408956 
L 555.212958 506.766763 
L 566.171191 507.777438 
L 597.947715 510.690868 
L 607.368019 510.925486 
L 614.300008 510.540879 
L 622.636364 511.150019 
" style="fill:none;stroke:#17becf;stroke-linecap:square;stroke-width:1.5;"/>
   </g>
   <g id="line2d_25">
    <path clip-path="url(#p02ef41be74)" d="M 115.363636 480.743307 
L 236.390727 480.743307 
L 279.301616 480.743307 
L 282.670661 480.743307 
L 285.575207 480.743307 
L 325.709504 480.743307 
L 328.815357 480.743307 
L 340.498353 480.743307 
L 367.57119 480.743307 
L 395.980847 483.632122 
L 406.024811 484.559407 
L 465.741416 488.68472 
L 488.653272 489.573623 
L 511.654955 491.226256 
L 540.846163 493.290668 
L 555.212958 493.996835 
L 566.171191 495.008887 
L 597.947715 495.652666 
L 607.368019 495.762636 
L 614.300008 496.094836 
L 622.636364 495.867879 
" style="fill:none;stroke:#1f77b4;stroke-linecap:square;stroke-width:1.5;"/>
   </g>
   <g id="line2d_26">
    <path clip-path="url(#p02ef41be74)" d="M 115.363636 480.743307 
L 236.390727 480.743307 
L 279.301616 480.743307 
L 282.670661 480.743307 
L 285.575207 480.743307 
L 325.709504 480.743307 
L 328.815357 480.743307 
L 340.498353 480.743307 
L 367.57119 491.031219 
L 395.980847 501.515826 
L 406.024811 504.947721 
L 465.741416 524.454514 
L 488.653272 531.276687 
L 511.654955 536.979284 
L 540.846163 543.898948 
L 555.212958 547.237975 
L 566.171191 549.554387 
L 597.947715 556.015167 
L 607.368019 558.279698 
L 614.300008 560.208952 
L 622.636364 560.446882 
" style="fill:none;stroke:#ff7f0e;stroke-linecap:square;stroke-width:1.5;"/>
   </g>
   <g id="line2d_27">
    <path clip-path="url(#p02ef41be74)" d="M 115.363636 480.743307 
L 236.390727 480.743307 
L 279.301616 480.743307 
L 282.670661 480.743307 
L 285.575207 480.743307 
L 325.709504 480.743307 
L 328.815357 480.743307 
L 340.498353 480.743307 
L 367.57119 480.743307 
L 395.980847 480.743307 
L 406.024811 480.743307 
L 465.741416 480.743307 
L 488.653272 480.743307 
L 511.654955 480.743307 
L 540.846163 480.743307 
L 555.212958 480.743307 
L 566.171191 480.743307 
L 597.947715 480.743307 
L 607.368019 478.007104 
L 614.300008 475.827248 
L 622.636364 475.388523 
" style="fill:none;stroke:#2ca02c;stroke-linecap:square;stroke-width:1.5;"/>
   </g>
   <g id="line2d_28">
    <path clip-path="url(#p02ef41be74)" d="M 115.363636 480.743307 
L 236.390727 480.743307 
L 279.301616 480.743307 
L 282.670661 480.743307 
L 285.575207 480.743307 
L 325.709504 480.743307 
L 328.815357 480.743307 
L 340.498353 480.743307 
L 367.57119 480.743307 
L 395.980847 480.743307 
L 406.024811 482.284505 
L 465.741416 491.311738 
L 488.653272 495.618799 
L 511.654955 499.434365 
L 540.846163 503.871629 
L 555.212958 506.125195 
L 566.171191 507.389056 
L 597.947715 510.015169 
L 607.368019 510.965101 
L 614.300008 511.594723 
L 622.636364 511.874197 
" style="fill:none;stroke:#d62728;stroke-linecap:square;stroke-width:1.5;"/>
   </g>
   <g id="line2d_29">
    <path clip-path="url(#p02ef41be74)" d="M 115.363636 480.743307 
L 236.390727 480.743307 
L 279.301616 480.743307 
L 282.670661 480.743307 
L 285.575207 482.448004 
L 325.709504 506.802999 
L 328.815357 508.677353 
L 340.498353 512.336899 
L 367.57119 518.180988 
L 395.980847 524.313771 
L 406.024811 526.370744 
L 465.741416 538.214222 
L 488.653272 541.797575 
L 511.654955 545.262024 
L 540.846163 549.441921 
L 555.212958 551.459654 
L 566.171191 552.548082 
L 597.947715 556.386502 
L 607.368019 557.206634 
L 614.300008 557.966132 
L 622.636364 557.991512 
" style="fill:none;stroke:#9467bd;stroke-linecap:square;stroke-width:1.5;"/>
   </g>
   <g id="line2d_30">
    <path clip-path="url(#p02ef41be74)" d="M 115.363636 480.743307 
L 236.390727 480.743307 
L 279.301616 480.743307 
L 282.670661 480.743307 
L 285.575207 480.743307 
L 325.709504 480.743307 
L 328.815357 480.743307 
L 340.498353 475.236646 
L 367.57119 465.069843 
L 395.980847 454.50903 
L 406.024811 451.310264 
L 465.741416 430.829863 
L 488.653272 423.858927 
L 511.654955 417.073424 
L 540.846163 408.363952 
L 555.212958 404.315172 
L 566.171191 401.347895 
L 597.947715 392.036455 
L 607.368019 389.72557 
L 614.300008 388.033703 
L 622.636364 387.514024 
" style="fill:none;stroke:#8c564b;stroke-linecap:square;stroke-width:1.5;"/>
   </g>
   <g id="line2d_31">
    <path clip-path="url(#p02ef41be74)" d="M 115.363636 480.743307 
L 236.390727 480.743307 
L 279.301616 480.743307 
L 282.670661 483.42134 
L 285.575207 484.594859 
L 325.709504 499.677015 
L 328.815357 500.616957 
L 340.498353 505.27498 
L 367.57119 512.548408 
L 395.980847 519.339413 
L 406.024811 521.648758 
L 465.741416 536.702662 
L 488.653272 542.179044 
L 511.654955 547.259854 
L 540.846163 553.98466 
L 555.212958 557.027874 
L 566.171191 559.000889 
L 597.947715 564.04017 
L 607.368019 565.265628 
L 614.300008 566.263261 
L 622.636364 566.438407 
" style="fill:none;stroke:#e377c2;stroke-linecap:square;stroke-width:1.5;"/>
   </g>
   <g id="line2d_32">
    <path clip-path="url(#p02ef41be74)" d="M 115.363636 480.743307 
L 236.390727 480.743307 
L 279.301616 480.743307 
L 282.670661 480.743307 
L 285.575207 480.743307 
L 325.709504 480.743307 
L 328.815357 480.743307 
L 340.498353 480.743307 
L 367.57119 480.743307 
L 395.980847 480.743307 
L 406.024811 480.743307 
L 465.741416 480.743307 
L 488.653272 480.743307 
L 511.654955 480.743307 
L 540.846163 478.09051 
L 555.212958 476.875199 
L 566.171191 476.237197 
L 597.947715 474.354178 
L 607.368019 474.072011 
L 614.300008 473.719123 
L 622.636364 473.801973 
" style="fill:none;stroke:#7f7f7f;stroke-linecap:square;stroke-width:1.5;"/>
   </g>
   <g id="patch_3">
    <path d="M 90 630 
L 90 86.4 
" style="fill:none;stroke:#000000;stroke-linecap:square;stroke-linejoin:miter;stroke-width:0.8;"/>
   </g>
   <g id="patch_4">
    <path d="M 648 630 
L 648 86.4 
" style="fill:none;stroke:#000000;stroke-linecap:square;stroke-linejoin:miter;stroke-width:0.8;"/>
   </g>
   <g id="patch_5">
    <path d="M 90 630 
L 648 630 
" style="fill:none;stroke:#000000;stroke-linecap:square;stroke-linejoin:miter;stroke-width:0.8;"/>
   </g>
   <g id="patch_6">
    <path d="M 90 86.4 
L 648 86.4 
" style="fill:none;stroke:#000000;stroke-linecap:square;stroke-linejoin:miter;stroke-width:0.8;"/>
   </g>
   <g id="text_17">
    <!-- LASSO Path -->
    <defs>
     <path d="M 9.8125 72.90625 
L 19.671875 72.90625 
L 19.671875 8.296875 
L 55.171875 8.296875 
L 55.171875 0 
L 9.8125 0 
z
" id="DejaVuSans-76"/>
     <path d="M 34.1875 63.1875 
L 20.796875 26.90625 
L 47.609375 26.90625 
z
M 28.609375 72.90625 
L 39.796875 72.90625 
L 67.578125 0 
L 57.328125 0 
L 50.6875 18.703125 
L 17.828125 18.703125 
L 11.1875 0 
L 0.78125 0 
z
" id="DejaVuSans-65"/>
     <path d="M 53.515625 70.515625 
L 53.515625 60.890625 
Q 47.90625 63.578125 42.921875 64.890625 
Q 37.9375 66.21875 33.296875 66.21875 
Q 25.25 66.21875 20.875 63.09375 
Q 16.5 59.96875 16.5 54.203125 
Q 16.5 49.359375 19.40625 46.890625 
Q 22.3125 44.4375 30.421875 42.921875 
L 36.375 41.703125 
Q 47.40625 39.59375 52.65625 34.296875 
Q 57.90625 29 57.90625 20.125 
Q 57.90625 9.515625 50.796875 4.046875 
Q 43.703125 -1.421875 29.984375 -1.421875 
Q 24.8125 -1.421875 18.96875 -0.25 
Q 13.140625 0.921875 6.890625 3.21875 
L 6.890625 13.375 
Q 12.890625 10.015625 18.65625 8.296875 
Q 24.421875 6.59375 29.984375 6.59375 
Q 38.421875 6.59375 43.015625 9.90625 
Q 47.609375 13.234375 47.609375 19.390625 
Q 47.609375 24.75 44.3125 27.78125 
Q 41.015625 30.8125 33.5 32.328125 
L 27.484375 33.5 
Q 16.453125 35.6875 11.515625 40.375 
Q 6.59375 45.0625 6.59375 53.421875 
Q 6.59375 63.09375 13.40625 68.65625 
Q 20.21875 74.21875 32.171875 74.21875 
Q 37.3125 74.21875 42.625 73.28125 
Q 47.953125 72.359375 53.515625 70.515625 
z
" id="DejaVuSans-83"/>
     <path d="M 39.40625 66.21875 
Q 28.65625 66.21875 22.328125 58.203125 
Q 16.015625 50.203125 16.015625 36.375 
Q 16.015625 22.609375 22.328125 14.59375 
Q 28.65625 6.59375 39.40625 6.59375 
Q 50.140625 6.59375 56.421875 14.59375 
Q 62.703125 22.609375 62.703125 36.375 
Q 62.703125 50.203125 56.421875 58.203125 
Q 50.140625 66.21875 39.40625 66.21875 
z
M 39.40625 74.21875 
Q 54.734375 74.21875 63.90625 63.9375 
Q 73.09375 53.65625 73.09375 36.375 
Q 73.09375 19.140625 63.90625 8.859375 
Q 54.734375 -1.421875 39.40625 -1.421875 
Q 24.03125 -1.421875 14.8125 8.828125 
Q 5.609375 19.09375 5.609375 36.375 
Q 5.609375 53.65625 14.8125 63.9375 
Q 24.03125 74.21875 39.40625 74.21875 
z
" id="DejaVuSans-79"/>
     <path d="M 19.671875 64.796875 
L 19.671875 37.40625 
L 32.078125 37.40625 
Q 38.96875 37.40625 42.71875 40.96875 
Q 46.484375 44.53125 46.484375 51.125 
Q 46.484375 57.671875 42.71875 61.234375 
Q 38.96875 64.796875 32.078125 64.796875 
z
M 9.8125 72.90625 
L 32.078125 72.90625 
Q 44.34375 72.90625 50.609375 67.359375 
Q 56.890625 61.8125 56.890625 51.125 
Q 56.890625 40.328125 50.609375 34.8125 
Q 44.34375 29.296875 32.078125 29.296875 
L 19.671875 29.296875 
L 19.671875 0 
L 9.8125 0 
z
" id="DejaVuSans-80"/>
     <path d="M 54.890625 33.015625 
L 54.890625 0 
L 45.90625 0 
L 45.90625 32.71875 
Q 45.90625 40.484375 42.875 44.328125 
Q 39.84375 48.1875 33.796875 48.1875 
Q 26.515625 48.1875 22.3125 43.546875 
Q 18.109375 38.921875 18.109375 30.90625 
L 18.109375 0 
L 9.078125 0 
L 9.078125 75.984375 
L 18.109375 75.984375 
L 18.109375 46.1875 
Q 21.34375 51.125 25.703125 53.5625 
Q 30.078125 56 35.796875 56 
Q 45.21875 56 50.046875 50.171875 
Q 54.890625 44.34375 54.890625 33.015625 
z
" id="DejaVuSans-104"/>
    </defs>
    <g transform="translate(333.856875 80.4)scale(0.12 -0.12)">
     <use xlink:href="#DejaVuSans-76"/>
     <use x="55.744141" xlink:href="#DejaVuSans-65"/>
     <use x="124.152344" xlink:href="#DejaVuSans-83"/>
     <use x="187.628906" xlink:href="#DejaVuSans-83"/>
     <use x="251.105469" xlink:href="#DejaVuSans-79"/>
     <use x="329.816406" xlink:href="#DejaVuSans-32"/>
     <use x="361.603516" xlink:href="#DejaVuSans-80"/>
     <use x="421.84375" xlink:href="#DejaVuSans-97"/>
     <use x="483.123047" xlink:href="#DejaVuSans-116"/>
     <use x="522.332031" xlink:href="#DejaVuSans-104"/>
    </g>
   </g>
   <g id="legend_1">
    <g id="patch_7">
     <path d="M 97 361.94375 
L 352.342188 361.94375 
Q 354.342188 361.94375 354.342188 359.94375 
L 354.342188 93.4 
Q 354.342188 91.4 352.342188 91.4 
L 97 91.4 
Q 95 91.4 95 93.4 
L 95 359.94375 
Q 95 361.94375 97 361.94375 
z
" style="fill:#ffffff;opacity:0.8;stroke:#cccccc;stroke-linejoin:miter;"/>
    </g>
    <g id="line2d_33">
     <path d="M 99 99.498437 
L 119 99.498437 
" style="fill:none;stroke:#000000;stroke-linecap:square;stroke-width:1.5;"/>
    </g>
    <g id="line2d_34"/>
    <g id="text_18">
     <!-- Student_Count_Total -->
     <defs>
      <path d="M 8.5 21.578125 
L 8.5 54.6875 
L 17.484375 54.6875 
L 17.484375 21.921875 
Q 17.484375 14.15625 20.5 10.265625 
Q 23.53125 6.390625 29.59375 6.390625 
Q 36.859375 6.390625 41.078125 11.03125 
Q 45.3125 15.671875 45.3125 23.6875 
L 45.3125 54.6875 
L 54.296875 54.6875 
L 54.296875 0 
L 45.3125 0 
L 45.3125 8.40625 
Q 42.046875 3.421875 37.71875 1 
Q 33.40625 -1.421875 27.6875 -1.421875 
Q 18.265625 -1.421875 13.375 4.4375 
Q 8.5 10.296875 8.5 21.578125 
z
M 31.109375 56 
z
" id="DejaVuSans-117"/>
      <path d="M 45.40625 46.390625 
L 45.40625 75.984375 
L 54.390625 75.984375 
L 54.390625 0 
L 45.40625 0 
L 45.40625 8.203125 
Q 42.578125 3.328125 38.25 0.953125 
Q 33.9375 -1.421875 27.875 -1.421875 
Q 17.96875 -1.421875 11.734375 6.484375 
Q 5.515625 14.40625 5.515625 27.296875 
Q 5.515625 40.1875 11.734375 48.09375 
Q 17.96875 56 27.875 56 
Q 33.9375 56 38.25 53.625 
Q 42.578125 51.265625 45.40625 46.390625 
z
M 14.796875 27.296875 
Q 14.796875 17.390625 18.875 11.75 
Q 22.953125 6.109375 30.078125 6.109375 
Q 37.203125 6.109375 41.296875 11.75 
Q 45.40625 17.390625 45.40625 27.296875 
Q 45.40625 37.203125 41.296875 42.84375 
Q 37.203125 48.484375 30.078125 48.484375 
Q 22.953125 48.484375 18.875 42.84375 
Q 14.796875 37.203125 14.796875 27.296875 
z
" id="DejaVuSans-100"/>
      <path d="M 50.984375 -16.609375 
L 50.984375 -23.578125 
L -0.984375 -23.578125 
L -0.984375 -16.609375 
z
" id="DejaVuSans-95"/>
      <path d="M -0.296875 72.90625 
L 61.375 72.90625 
L 61.375 64.59375 
L 35.5 64.59375 
L 35.5 0 
L 25.59375 0 
L 25.59375 64.59375 
L -0.296875 64.59375 
z
" id="DejaVuSans-84"/>
      <path d="M 9.421875 75.984375 
L 18.40625 75.984375 
L 18.40625 0 
L 9.421875 0 
z
" id="DejaVuSans-108"/>
     </defs>
     <g transform="translate(127 102.998437)scale(0.1 -0.1)">
      <use xlink:href="#DejaVuSans-83"/>
      <use x="63.476562" xlink:href="#DejaVuSans-116"/>
      <use x="102.685547" xlink:href="#DejaVuSans-117"/>
      <use x="166.064453" xlink:href="#DejaVuSans-100"/>
      <use x="229.541016" xlink:href="#DejaVuSans-101"/>
      <use x="291.064453" xlink:href="#DejaVuSans-110"/>
      <use x="354.443359" xlink:href="#DejaVuSans-116"/>
      <use x="393.652344" xlink:href="#DejaVuSans-95"/>
      <use x="443.652344" xlink:href="#DejaVuSans-67"/>
      <use x="513.476562" xlink:href="#DejaVuSans-111"/>
      <use x="574.658203" xlink:href="#DejaVuSans-117"/>
      <use x="638.037109" xlink:href="#DejaVuSans-110"/>
      <use x="701.416016" xlink:href="#DejaVuSans-116"/>
      <use x="740.625" xlink:href="#DejaVuSans-95"/>
      <use x="790.625" xlink:href="#DejaVuSans-84"/>
      <use x="851.443359" xlink:href="#DejaVuSans-111"/>
      <use x="912.625" xlink:href="#DejaVuSans-116"/>
      <use x="951.833984" xlink:href="#DejaVuSans-97"/>
      <use x="1013.113281" xlink:href="#DejaVuSans-108"/>
     </g>
    </g>
    <g id="line2d_35">
     <path d="M 99 114.454687 
L 119 114.454687 
" style="fill:none;stroke:#ff7f0e;stroke-linecap:square;stroke-width:1.5;"/>
    </g>
    <g id="line2d_36"/>
    <g id="text_19">
     <!-- Zip_Mean_Income -->
     <defs>
      <path d="M 5.609375 72.90625 
L 62.890625 72.90625 
L 62.890625 65.375 
L 16.796875 8.296875 
L 64.015625 8.296875 
L 64.015625 0 
L 4.5 0 
L 4.5 7.515625 
L 50.59375 64.59375 
L 5.609375 64.59375 
z
" id="DejaVuSans-90"/>
      <path d="M 18.109375 8.203125 
L 18.109375 -20.796875 
L 9.078125 -20.796875 
L 9.078125 54.6875 
L 18.109375 54.6875 
L 18.109375 46.390625 
Q 20.953125 51.265625 25.265625 53.625 
Q 29.59375 56 35.59375 56 
Q 45.5625 56 51.78125 48.09375 
Q 58.015625 40.1875 58.015625 27.296875 
Q 58.015625 14.40625 51.78125 6.484375 
Q 45.5625 -1.421875 35.59375 -1.421875 
Q 29.59375 -1.421875 25.265625 0.953125 
Q 20.953125 3.328125 18.109375 8.203125 
z
M 48.6875 27.296875 
Q 48.6875 37.203125 44.609375 42.84375 
Q 40.53125 48.484375 33.40625 48.484375 
Q 26.265625 48.484375 22.1875 42.84375 
Q 18.109375 37.203125 18.109375 27.296875 
Q 18.109375 17.390625 22.1875 11.75 
Q 26.265625 6.109375 33.40625 6.109375 
Q 40.53125 6.109375 44.609375 11.75 
Q 48.6875 17.390625 48.6875 27.296875 
z
" id="DejaVuSans-112"/>
      <path d="M 9.8125 72.90625 
L 24.515625 72.90625 
L 43.109375 23.296875 
L 61.8125 72.90625 
L 76.515625 72.90625 
L 76.515625 0 
L 66.890625 0 
L 66.890625 64.015625 
L 48.09375 14.015625 
L 38.1875 14.015625 
L 19.390625 64.015625 
L 19.390625 0 
L 9.8125 0 
z
" id="DejaVuSans-77"/>
      <path d="M 9.8125 72.90625 
L 19.671875 72.90625 
L 19.671875 0 
L 9.8125 0 
z
" id="DejaVuSans-73"/>
     </defs>
     <g transform="translate(127 117.954687)scale(0.1 -0.1)">
      <use xlink:href="#DejaVuSans-90"/>
      <use x="68.505859" xlink:href="#DejaVuSans-105"/>
      <use x="96.289062" xlink:href="#DejaVuSans-112"/>
      <use x="159.765625" xlink:href="#DejaVuSans-95"/>
      <use x="209.765625" xlink:href="#DejaVuSans-77"/>
      <use x="296.044922" xlink:href="#DejaVuSans-101"/>
      <use x="357.568359" xlink:href="#DejaVuSans-97"/>
      <use x="418.847656" xlink:href="#DejaVuSans-110"/>
      <use x="482.226562" xlink:href="#DejaVuSans-95"/>
      <use x="532.226562" xlink:href="#DejaVuSans-73"/>
      <use x="561.71875" xlink:href="#DejaVuSans-110"/>
      <use x="625.097656" xlink:href="#DejaVuSans-99"/>
      <use x="680.078125" xlink:href="#DejaVuSans-111"/>
      <use x="741.259766" xlink:href="#DejaVuSans-109"/>
      <use x="838.671875" xlink:href="#DejaVuSans-101"/>
     </g>
    </g>
    <g id="line2d_37">
     <path d="M 99 129.410937 
L 119 129.410937 
" style="fill:none;stroke:#2ca02c;stroke-linecap:square;stroke-width:1.5;"/>
    </g>
    <g id="line2d_38"/>
    <g id="text_20">
     <!-- Fully Accessible -->
     <defs>
      <path d="M 9.8125 72.90625 
L 51.703125 72.90625 
L 51.703125 64.59375 
L 19.671875 64.59375 
L 19.671875 43.109375 
L 48.578125 43.109375 
L 48.578125 34.8125 
L 19.671875 34.8125 
L 19.671875 0 
L 9.8125 0 
z
" id="DejaVuSans-70"/>
      <path d="M 32.171875 -5.078125 
Q 28.375 -14.84375 24.75 -17.8125 
Q 21.140625 -20.796875 15.09375 -20.796875 
L 7.90625 -20.796875 
L 7.90625 -13.28125 
L 13.1875 -13.28125 
Q 16.890625 -13.28125 18.9375 -11.515625 
Q 21 -9.765625 23.484375 -3.21875 
L 25.09375 0.875 
L 2.984375 54.6875 
L 12.5 54.6875 
L 29.59375 11.921875 
L 46.6875 54.6875 
L 56.203125 54.6875 
z
" id="DejaVuSans-121"/>
      <path d="M 48.6875 27.296875 
Q 48.6875 37.203125 44.609375 42.84375 
Q 40.53125 48.484375 33.40625 48.484375 
Q 26.265625 48.484375 22.1875 42.84375 
Q 18.109375 37.203125 18.109375 27.296875 
Q 18.109375 17.390625 22.1875 11.75 
Q 26.265625 6.109375 33.40625 6.109375 
Q 40.53125 6.109375 44.609375 11.75 
Q 48.6875 17.390625 48.6875 27.296875 
z
M 18.109375 46.390625 
Q 20.953125 51.265625 25.265625 53.625 
Q 29.59375 56 35.59375 56 
Q 45.5625 56 51.78125 48.09375 
Q 58.015625 40.1875 58.015625 27.296875 
Q 58.015625 14.40625 51.78125 6.484375 
Q 45.5625 -1.421875 35.59375 -1.421875 
Q 29.59375 -1.421875 25.265625 0.953125 
Q 20.953125 3.328125 18.109375 8.203125 
L 18.109375 0 
L 9.078125 0 
L 9.078125 75.984375 
L 18.109375 75.984375 
z
" id="DejaVuSans-98"/>
     </defs>
     <g transform="translate(127 132.910937)scale(0.1 -0.1)">
      <use xlink:href="#DejaVuSans-70"/>
      <use x="57.441406" xlink:href="#DejaVuSans-117"/>
      <use x="120.820312" xlink:href="#DejaVuSans-108"/>
      <use x="148.603516" xlink:href="#DejaVuSans-108"/>
      <use x="176.386719" xlink:href="#DejaVuSans-121"/>
      <use x="235.566406" xlink:href="#DejaVuSans-32"/>
      <use x="267.353516" xlink:href="#DejaVuSans-65"/>
      <use x="335.746094" xlink:href="#DejaVuSans-99"/>
      <use x="390.726562" xlink:href="#DejaVuSans-99"/>
      <use x="445.707031" xlink:href="#DejaVuSans-101"/>
      <use x="507.230469" xlink:href="#DejaVuSans-115"/>
      <use x="559.330078" xlink:href="#DejaVuSans-115"/>
      <use x="611.429688" xlink:href="#DejaVuSans-105"/>
      <use x="639.212891" xlink:href="#DejaVuSans-98"/>
      <use x="702.689453" xlink:href="#DejaVuSans-108"/>
      <use x="730.472656" xlink:href="#DejaVuSans-101"/>
     </g>
    </g>
    <g id="line2d_39">
     <path d="M 99 144.089062 
L 119 144.089062 
" style="fill:none;stroke:#ffc0cb;stroke-linecap:square;stroke-width:1.5;"/>
    </g>
    <g id="line2d_40"/>
    <g id="text_21">
     <!-- Student_Count_Black_perc -->
     <defs>
      <path d="M 19.671875 34.8125 
L 19.671875 8.109375 
L 35.5 8.109375 
Q 43.453125 8.109375 47.28125 11.40625 
Q 51.125 14.703125 51.125 21.484375 
Q 51.125 28.328125 47.28125 31.5625 
Q 43.453125 34.8125 35.5 34.8125 
z
M 19.671875 64.796875 
L 19.671875 42.828125 
L 34.28125 42.828125 
Q 41.5 42.828125 45.03125 45.53125 
Q 48.578125 48.25 48.578125 53.8125 
Q 48.578125 59.328125 45.03125 62.0625 
Q 41.5 64.796875 34.28125 64.796875 
z
M 9.8125 72.90625 
L 35.015625 72.90625 
Q 46.296875 72.90625 52.390625 68.21875 
Q 58.5 63.53125 58.5 54.890625 
Q 58.5 48.1875 55.375 44.234375 
Q 52.25 40.28125 46.1875 39.3125 
Q 53.46875 37.75 57.5 32.78125 
Q 61.53125 27.828125 61.53125 20.40625 
Q 61.53125 10.640625 54.890625 5.3125 
Q 48.25 0 35.984375 0 
L 9.8125 0 
z
" id="DejaVuSans-66"/>
      <path d="M 9.078125 75.984375 
L 18.109375 75.984375 
L 18.109375 31.109375 
L 44.921875 54.6875 
L 56.390625 54.6875 
L 27.390625 29.109375 
L 57.625 0 
L 45.90625 0 
L 18.109375 26.703125 
L 18.109375 0 
L 9.078125 0 
z
" id="DejaVuSans-107"/>
      <path d="M 41.109375 46.296875 
Q 39.59375 47.171875 37.8125 47.578125 
Q 36.03125 48 33.890625 48 
Q 26.265625 48 22.1875 43.046875 
Q 18.109375 38.09375 18.109375 28.8125 
L 18.109375 0 
L 9.078125 0 
L 9.078125 54.6875 
L 18.109375 54.6875 
L 18.109375 46.1875 
Q 20.953125 51.171875 25.484375 53.578125 
Q 30.03125 56 36.53125 56 
Q 37.453125 56 38.578125 55.875 
Q 39.703125 55.765625 41.0625 55.515625 
z
" id="DejaVuSans-114"/>
     </defs>
     <g transform="translate(127 147.589062)scale(0.1 -0.1)">
      <use xlink:href="#DejaVuSans-83"/>
      <use x="63.476562" xlink:href="#DejaVuSans-116"/>
      <use x="102.685547" xlink:href="#DejaVuSans-117"/>
      <use x="166.064453" xlink:href="#DejaVuSans-100"/>
      <use x="229.541016" xlink:href="#DejaVuSans-101"/>
      <use x="291.064453" xlink:href="#DejaVuSans-110"/>
      <use x="354.443359" xlink:href="#DejaVuSans-116"/>
      <use x="393.652344" xlink:href="#DejaVuSans-95"/>
      <use x="443.652344" xlink:href="#DejaVuSans-67"/>
      <use x="513.476562" xlink:href="#DejaVuSans-111"/>
      <use x="574.658203" xlink:href="#DejaVuSans-117"/>
      <use x="638.037109" xlink:href="#DejaVuSans-110"/>
      <use x="701.416016" xlink:href="#DejaVuSans-116"/>
      <use x="740.625" xlink:href="#DejaVuSans-95"/>
      <use x="790.625" xlink:href="#DejaVuSans-66"/>
      <use x="859.228516" xlink:href="#DejaVuSans-108"/>
      <use x="887.011719" xlink:href="#DejaVuSans-97"/>
      <use x="948.291016" xlink:href="#DejaVuSans-99"/>
      <use x="1003.271484" xlink:href="#DejaVuSans-107"/>
      <use x="1061.181641" xlink:href="#DejaVuSans-95"/>
      <use x="1111.181641" xlink:href="#DejaVuSans-112"/>
      <use x="1174.658203" xlink:href="#DejaVuSans-101"/>
      <use x="1236.181641" xlink:href="#DejaVuSans-114"/>
      <use x="1277.263672" xlink:href="#DejaVuSans-99"/>
     </g>
    </g>
    <g id="line2d_41">
     <path d="M 99 159.045312 
L 119 159.045312 
" style="fill:none;stroke:#ffd700;stroke-linecap:square;stroke-width:1.5;"/>
    </g>
    <g id="line2d_42"/>
    <g id="text_22">
     <!-- Student_Count_English_Learners_perc -->
     <defs>
      <path d="M 9.8125 72.90625 
L 55.90625 72.90625 
L 55.90625 64.59375 
L 19.671875 64.59375 
L 19.671875 43.015625 
L 54.390625 43.015625 
L 54.390625 34.71875 
L 19.671875 34.71875 
L 19.671875 8.296875 
L 56.78125 8.296875 
L 56.78125 0 
L 9.8125 0 
z
" id="DejaVuSans-69"/>
      <path d="M 45.40625 27.984375 
Q 45.40625 37.75 41.375 43.109375 
Q 37.359375 48.484375 30.078125 48.484375 
Q 22.859375 48.484375 18.828125 43.109375 
Q 14.796875 37.75 14.796875 27.984375 
Q 14.796875 18.265625 18.828125 12.890625 
Q 22.859375 7.515625 30.078125 7.515625 
Q 37.359375 7.515625 41.375 12.890625 
Q 45.40625 18.265625 45.40625 27.984375 
z
M 54.390625 6.78125 
Q 54.390625 -7.171875 48.1875 -13.984375 
Q 42 -20.796875 29.203125 -20.796875 
Q 24.46875 -20.796875 20.265625 -20.09375 
Q 16.0625 -19.390625 12.109375 -17.921875 
L 12.109375 -9.1875 
Q 16.0625 -11.328125 19.921875 -12.34375 
Q 23.78125 -13.375 27.78125 -13.375 
Q 36.625 -13.375 41.015625 -8.765625 
Q 45.40625 -4.15625 45.40625 5.171875 
L 45.40625 9.625 
Q 42.625 4.78125 38.28125 2.390625 
Q 33.9375 0 27.875 0 
Q 17.828125 0 11.671875 7.65625 
Q 5.515625 15.328125 5.515625 27.984375 
Q 5.515625 40.671875 11.671875 48.328125 
Q 17.828125 56 27.875 56 
Q 33.9375 56 38.28125 53.609375 
Q 42.625 51.21875 45.40625 46.390625 
L 45.40625 54.6875 
L 54.390625 54.6875 
z
" id="DejaVuSans-103"/>
     </defs>
     <g transform="translate(127 162.545312)scale(0.1 -0.1)">
      <use xlink:href="#DejaVuSans-83"/>
      <use x="63.476562" xlink:href="#DejaVuSans-116"/>
      <use x="102.685547" xlink:href="#DejaVuSans-117"/>
      <use x="166.064453" xlink:href="#DejaVuSans-100"/>
      <use x="229.541016" xlink:href="#DejaVuSans-101"/>
      <use x="291.064453" xlink:href="#DejaVuSans-110"/>
      <use x="354.443359" xlink:href="#DejaVuSans-116"/>
      <use x="393.652344" xlink:href="#DejaVuSans-95"/>
      <use x="443.652344" xlink:href="#DejaVuSans-67"/>
      <use x="513.476562" xlink:href="#DejaVuSans-111"/>
      <use x="574.658203" xlink:href="#DejaVuSans-117"/>
      <use x="638.037109" xlink:href="#DejaVuSans-110"/>
      <use x="701.416016" xlink:href="#DejaVuSans-116"/>
      <use x="740.625" xlink:href="#DejaVuSans-95"/>
      <use x="790.625" xlink:href="#DejaVuSans-69"/>
      <use x="853.808594" xlink:href="#DejaVuSans-110"/>
      <use x="917.1875" xlink:href="#DejaVuSans-103"/>
      <use x="980.664062" xlink:href="#DejaVuSans-108"/>
      <use x="1008.447266" xlink:href="#DejaVuSans-105"/>
      <use x="1036.230469" xlink:href="#DejaVuSans-115"/>
      <use x="1088.330078" xlink:href="#DejaVuSans-104"/>
      <use x="1151.708984" xlink:href="#DejaVuSans-95"/>
      <use x="1201.708984" xlink:href="#DejaVuSans-76"/>
      <use x="1257.40625" xlink:href="#DejaVuSans-101"/>
      <use x="1318.929688" xlink:href="#DejaVuSans-97"/>
      <use x="1380.208984" xlink:href="#DejaVuSans-114"/>
      <use x="1421.306641" xlink:href="#DejaVuSans-110"/>
      <use x="1484.685547" xlink:href="#DejaVuSans-101"/>
      <use x="1546.208984" xlink:href="#DejaVuSans-114"/>
      <use x="1587.322266" xlink:href="#DejaVuSans-115"/>
      <use x="1639.421875" xlink:href="#DejaVuSans-95"/>
      <use x="1689.421875" xlink:href="#DejaVuSans-112"/>
      <use x="1752.898438" xlink:href="#DejaVuSans-101"/>
      <use x="1814.421875" xlink:href="#DejaVuSans-114"/>
      <use x="1855.503906" xlink:href="#DejaVuSans-99"/>
     </g>
    </g>
    <g id="line2d_43">
     <path d="M 99 174.001562 
L 119 174.001562 
" style="fill:none;stroke:#000080;stroke-linecap:square;stroke-width:1.5;"/>
    </g>
    <g id="line2d_44"/>
    <g id="text_23">
     <!-- Student_Count_Ethnicity_Not_Available_perc -->
     <defs>
      <path d="M 9.8125 72.90625 
L 23.09375 72.90625 
L 55.421875 11.921875 
L 55.421875 72.90625 
L 64.984375 72.90625 
L 64.984375 0 
L 51.703125 0 
L 19.390625 60.984375 
L 19.390625 0 
L 9.8125 0 
z
" id="DejaVuSans-78"/>
      <path d="M 2.984375 54.6875 
L 12.5 54.6875 
L 29.59375 8.796875 
L 46.6875 54.6875 
L 56.203125 54.6875 
L 35.6875 0 
L 23.484375 0 
z
" id="DejaVuSans-118"/>
     </defs>
     <g transform="translate(127 177.501562)scale(0.1 -0.1)">
      <use xlink:href="#DejaVuSans-83"/>
      <use x="63.476562" xlink:href="#DejaVuSans-116"/>
      <use x="102.685547" xlink:href="#DejaVuSans-117"/>
      <use x="166.064453" xlink:href="#DejaVuSans-100"/>
      <use x="229.541016" xlink:href="#DejaVuSans-101"/>
      <use x="291.064453" xlink:href="#DejaVuSans-110"/>
      <use x="354.443359" xlink:href="#DejaVuSans-116"/>
      <use x="393.652344" xlink:href="#DejaVuSans-95"/>
      <use x="443.652344" xlink:href="#DejaVuSans-67"/>
      <use x="513.476562" xlink:href="#DejaVuSans-111"/>
      <use x="574.658203" xlink:href="#DejaVuSans-117"/>
      <use x="638.037109" xlink:href="#DejaVuSans-110"/>
      <use x="701.416016" xlink:href="#DejaVuSans-116"/>
      <use x="740.625" xlink:href="#DejaVuSans-95"/>
      <use x="790.625" xlink:href="#DejaVuSans-69"/>
      <use x="853.808594" xlink:href="#DejaVuSans-116"/>
      <use x="893.017578" xlink:href="#DejaVuSans-104"/>
      <use x="956.396484" xlink:href="#DejaVuSans-110"/>
      <use x="1019.775391" xlink:href="#DejaVuSans-105"/>
      <use x="1047.558594" xlink:href="#DejaVuSans-99"/>
      <use x="1102.539062" xlink:href="#DejaVuSans-105"/>
      <use x="1130.322266" xlink:href="#DejaVuSans-116"/>
      <use x="1169.53125" xlink:href="#DejaVuSans-121"/>
      <use x="1228.710938" xlink:href="#DejaVuSans-95"/>
      <use x="1278.710938" xlink:href="#DejaVuSans-78"/>
      <use x="1353.515625" xlink:href="#DejaVuSans-111"/>
      <use x="1414.697266" xlink:href="#DejaVuSans-116"/>
      <use x="1453.90625" xlink:href="#DejaVuSans-95"/>
      <use x="1503.90625" xlink:href="#DejaVuSans-65"/>
      <use x="1572.236328" xlink:href="#DejaVuSans-118"/>
      <use x="1631.416016" xlink:href="#DejaVuSans-97"/>
      <use x="1692.695312" xlink:href="#DejaVuSans-105"/>
      <use x="1720.478516" xlink:href="#DejaVuSans-108"/>
      <use x="1748.261719" xlink:href="#DejaVuSans-97"/>
      <use x="1809.541016" xlink:href="#DejaVuSans-98"/>
      <use x="1873.017578" xlink:href="#DejaVuSans-108"/>
      <use x="1900.800781" xlink:href="#DejaVuSans-101"/>
      <use x="1962.324219" xlink:href="#DejaVuSans-95"/>
      <use x="2012.324219" xlink:href="#DejaVuSans-112"/>
      <use x="2075.800781" xlink:href="#DejaVuSans-101"/>
      <use x="2137.324219" xlink:href="#DejaVuSans-114"/>
      <use x="2178.40625" xlink:href="#DejaVuSans-99"/>
     </g>
    </g>
    <g id="line2d_45">
     <path d="M 99 188.957812 
L 119 188.957812 
" style="fill:none;stroke:#00ff00;stroke-linecap:square;stroke-width:1.5;"/>
    </g>
    <g id="line2d_46"/>
    <g id="text_24">
     <!-- Student_Count_Hispanic_perc -->
     <defs>
      <path d="M 9.8125 72.90625 
L 19.671875 72.90625 
L 19.671875 43.015625 
L 55.515625 43.015625 
L 55.515625 72.90625 
L 65.375 72.90625 
L 65.375 0 
L 55.515625 0 
L 55.515625 34.71875 
L 19.671875 34.71875 
L 19.671875 0 
L 9.8125 0 
z
" id="DejaVuSans-72"/>
     </defs>
     <g transform="translate(127 192.457812)scale(0.1 -0.1)">
      <use xlink:href="#DejaVuSans-83"/>
      <use x="63.476562" xlink:href="#DejaVuSans-116"/>
      <use x="102.685547" xlink:href="#DejaVuSans-117"/>
      <use x="166.064453" xlink:href="#DejaVuSans-100"/>
      <use x="229.541016" xlink:href="#DejaVuSans-101"/>
      <use x="291.064453" xlink:href="#DejaVuSans-110"/>
      <use x="354.443359" xlink:href="#DejaVuSans-116"/>
      <use x="393.652344" xlink:href="#DejaVuSans-95"/>
      <use x="443.652344" xlink:href="#DejaVuSans-67"/>
      <use x="513.476562" xlink:href="#DejaVuSans-111"/>
      <use x="574.658203" xlink:href="#DejaVuSans-117"/>
      <use x="638.037109" xlink:href="#DejaVuSans-110"/>
      <use x="701.416016" xlink:href="#DejaVuSans-116"/>
      <use x="740.625" xlink:href="#DejaVuSans-95"/>
      <use x="790.625" xlink:href="#DejaVuSans-72"/>
      <use x="865.820312" xlink:href="#DejaVuSans-105"/>
      <use x="893.603516" xlink:href="#DejaVuSans-115"/>
      <use x="945.703125" xlink:href="#DejaVuSans-112"/>
      <use x="1009.179688" xlink:href="#DejaVuSans-97"/>
      <use x="1070.458984" xlink:href="#DejaVuSans-110"/>
      <use x="1133.837891" xlink:href="#DejaVuSans-105"/>
      <use x="1161.621094" xlink:href="#DejaVuSans-99"/>
      <use x="1216.601562" xlink:href="#DejaVuSans-95"/>
      <use x="1266.601562" xlink:href="#DejaVuSans-112"/>
      <use x="1330.078125" xlink:href="#DejaVuSans-101"/>
      <use x="1391.601562" xlink:href="#DejaVuSans-114"/>
      <use x="1432.683594" xlink:href="#DejaVuSans-99"/>
     </g>
    </g>
    <g id="line2d_47">
     <path d="M 99 203.914062 
L 119 203.914062 
" style="fill:none;stroke:#800080;stroke-linecap:square;stroke-width:1.5;"/>
    </g>
    <g id="line2d_48"/>
    <g id="text_25">
     <!-- Student_Count_Low_Income_perc -->
     <defs>
      <path d="M 4.203125 54.6875 
L 13.1875 54.6875 
L 24.421875 12.015625 
L 35.59375 54.6875 
L 46.1875 54.6875 
L 57.421875 12.015625 
L 68.609375 54.6875 
L 77.59375 54.6875 
L 63.28125 0 
L 52.6875 0 
L 40.921875 44.828125 
L 29.109375 0 
L 18.5 0 
z
" id="DejaVuSans-119"/>
     </defs>
     <g transform="translate(127 207.414062)scale(0.1 -0.1)">
      <use xlink:href="#DejaVuSans-83"/>
      <use x="63.476562" xlink:href="#DejaVuSans-116"/>
      <use x="102.685547" xlink:href="#DejaVuSans-117"/>
      <use x="166.064453" xlink:href="#DejaVuSans-100"/>
      <use x="229.541016" xlink:href="#DejaVuSans-101"/>
      <use x="291.064453" xlink:href="#DejaVuSans-110"/>
      <use x="354.443359" xlink:href="#DejaVuSans-116"/>
      <use x="393.652344" xlink:href="#DejaVuSans-95"/>
      <use x="443.652344" xlink:href="#DejaVuSans-67"/>
      <use x="513.476562" xlink:href="#DejaVuSans-111"/>
      <use x="574.658203" xlink:href="#DejaVuSans-117"/>
      <use x="638.037109" xlink:href="#DejaVuSans-110"/>
      <use x="701.416016" xlink:href="#DejaVuSans-116"/>
      <use x="740.625" xlink:href="#DejaVuSans-95"/>
      <use x="790.625" xlink:href="#DejaVuSans-76"/>
      <use x="846.322266" xlink:href="#DejaVuSans-111"/>
      <use x="907.503906" xlink:href="#DejaVuSans-119"/>
      <use x="989.291016" xlink:href="#DejaVuSans-95"/>
      <use x="1039.291016" xlink:href="#DejaVuSans-73"/>
      <use x="1068.783203" xlink:href="#DejaVuSans-110"/>
      <use x="1132.162109" xlink:href="#DejaVuSans-99"/>
      <use x="1187.142578" xlink:href="#DejaVuSans-111"/>
      <use x="1248.324219" xlink:href="#DejaVuSans-109"/>
      <use x="1345.736328" xlink:href="#DejaVuSans-101"/>
      <use x="1407.259766" xlink:href="#DejaVuSans-95"/>
      <use x="1457.259766" xlink:href="#DejaVuSans-112"/>
      <use x="1520.736328" xlink:href="#DejaVuSans-101"/>
      <use x="1582.259766" xlink:href="#DejaVuSans-114"/>
      <use x="1623.341797" xlink:href="#DejaVuSans-99"/>
     </g>
    </g>
    <g id="line2d_49">
     <path d="M 99 218.870312 
L 119 218.870312 
" style="fill:none;stroke:#bcbd22;stroke-linecap:square;stroke-width:1.5;"/>
    </g>
    <g id="line2d_50"/>
    <g id="text_26">
     <!-- Student_Count_Special_Ed_perc -->
     <g transform="translate(127 222.370312)scale(0.1 -0.1)">
      <use xlink:href="#DejaVuSans-83"/>
      <use x="63.476562" xlink:href="#DejaVuSans-116"/>
      <use x="102.685547" xlink:href="#DejaVuSans-117"/>
      <use x="166.064453" xlink:href="#DejaVuSans-100"/>
      <use x="229.541016" xlink:href="#DejaVuSans-101"/>
      <use x="291.064453" xlink:href="#DejaVuSans-110"/>
      <use x="354.443359" xlink:href="#DejaVuSans-116"/>
      <use x="393.652344" xlink:href="#DejaVuSans-95"/>
      <use x="443.652344" xlink:href="#DejaVuSans-67"/>
      <use x="513.476562" xlink:href="#DejaVuSans-111"/>
      <use x="574.658203" xlink:href="#DejaVuSans-117"/>
      <use x="638.037109" xlink:href="#DejaVuSans-110"/>
      <use x="701.416016" xlink:href="#DejaVuSans-116"/>
      <use x="740.625" xlink:href="#DejaVuSans-95"/>
      <use x="790.625" xlink:href="#DejaVuSans-83"/>
      <use x="854.101562" xlink:href="#DejaVuSans-112"/>
      <use x="917.578125" xlink:href="#DejaVuSans-101"/>
      <use x="979.101562" xlink:href="#DejaVuSans-99"/>
      <use x="1034.082031" xlink:href="#DejaVuSans-105"/>
      <use x="1061.865234" xlink:href="#DejaVuSans-97"/>
      <use x="1123.144531" xlink:href="#DejaVuSans-108"/>
      <use x="1150.927734" xlink:href="#DejaVuSans-95"/>
      <use x="1200.927734" xlink:href="#DejaVuSans-69"/>
      <use x="1264.111328" xlink:href="#DejaVuSans-100"/>
      <use x="1327.587891" xlink:href="#DejaVuSans-95"/>
      <use x="1377.587891" xlink:href="#DejaVuSans-112"/>
      <use x="1441.064453" xlink:href="#DejaVuSans-101"/>
      <use x="1502.587891" xlink:href="#DejaVuSans-114"/>
      <use x="1543.669922" xlink:href="#DejaVuSans-99"/>
     </g>
    </g>
    <g id="line2d_51">
     <path d="M 99 233.826562 
L 119 233.826562 
" style="fill:none;stroke:#17becf;stroke-linecap:square;stroke-width:1.5;"/>
    </g>
    <g id="line2d_52"/>
    <g id="text_27">
     <!-- Classroom_Languages_count -->
     <g transform="translate(127 237.326562)scale(0.1 -0.1)">
      <use xlink:href="#DejaVuSans-67"/>
      <use x="69.824219" xlink:href="#DejaVuSans-108"/>
      <use x="97.607422" xlink:href="#DejaVuSans-97"/>
      <use x="158.886719" xlink:href="#DejaVuSans-115"/>
      <use x="210.986328" xlink:href="#DejaVuSans-115"/>
      <use x="263.085938" xlink:href="#DejaVuSans-114"/>
      <use x="304.167969" xlink:href="#DejaVuSans-111"/>
      <use x="365.349609" xlink:href="#DejaVuSans-111"/>
      <use x="426.53125" xlink:href="#DejaVuSans-109"/>
      <use x="523.943359" xlink:href="#DejaVuSans-95"/>
      <use x="573.943359" xlink:href="#DejaVuSans-76"/>
      <use x="629.65625" xlink:href="#DejaVuSans-97"/>
      <use x="690.935547" xlink:href="#DejaVuSans-110"/>
      <use x="754.314453" xlink:href="#DejaVuSans-103"/>
      <use x="817.791016" xlink:href="#DejaVuSans-117"/>
      <use x="881.169922" xlink:href="#DejaVuSans-97"/>
      <use x="942.449219" xlink:href="#DejaVuSans-103"/>
      <use x="1005.925781" xlink:href="#DejaVuSans-101"/>
      <use x="1067.449219" xlink:href="#DejaVuSans-115"/>
      <use x="1119.548828" xlink:href="#DejaVuSans-95"/>
      <use x="1169.548828" xlink:href="#DejaVuSans-99"/>
      <use x="1224.529297" xlink:href="#DejaVuSans-111"/>
      <use x="1285.710938" xlink:href="#DejaVuSans-117"/>
      <use x="1349.089844" xlink:href="#DejaVuSans-110"/>
      <use x="1412.46875" xlink:href="#DejaVuSans-116"/>
     </g>
    </g>
    <g id="line2d_53">
     <path d="M 99 248.782812 
L 119 248.782812 
" style="fill:none;stroke:#1f77b4;stroke-linecap:square;stroke-width:1.5;"/>
    </g>
    <g id="line2d_54"/>
    <g id="text_28">
     <!-- Blue -->
     <g transform="translate(127 252.282812)scale(0.1 -0.1)">
      <use xlink:href="#DejaVuSans-66"/>
      <use x="68.603516" xlink:href="#DejaVuSans-108"/>
      <use x="96.386719" xlink:href="#DejaVuSans-117"/>
      <use x="159.765625" xlink:href="#DejaVuSans-101"/>
     </g>
    </g>
    <g id="line2d_55">
     <path d="M 99 263.460937 
L 119 263.460937 
" style="fill:none;stroke:#ff7f0e;stroke-linecap:square;stroke-width:1.5;"/>
    </g>
    <g id="line2d_56"/>
    <g id="text_29">
     <!-- Green -->
     <defs>
      <path d="M 59.515625 10.40625 
L 59.515625 29.984375 
L 43.40625 29.984375 
L 43.40625 38.09375 
L 69.28125 38.09375 
L 69.28125 6.78125 
Q 63.578125 2.734375 56.6875 0.65625 
Q 49.8125 -1.421875 42 -1.421875 
Q 24.90625 -1.421875 15.25 8.5625 
Q 5.609375 18.5625 5.609375 36.375 
Q 5.609375 54.25 15.25 64.234375 
Q 24.90625 74.21875 42 74.21875 
Q 49.125 74.21875 55.546875 72.453125 
Q 61.96875 70.703125 67.390625 67.28125 
L 67.390625 56.78125 
Q 61.921875 61.421875 55.765625 63.765625 
Q 49.609375 66.109375 42.828125 66.109375 
Q 29.4375 66.109375 22.71875 58.640625 
Q 16.015625 51.171875 16.015625 36.375 
Q 16.015625 21.625 22.71875 14.15625 
Q 29.4375 6.6875 42.828125 6.6875 
Q 48.046875 6.6875 52.140625 7.59375 
Q 56.25 8.5 59.515625 10.40625 
z
" id="DejaVuSans-71"/>
     </defs>
     <g transform="translate(127 266.960937)scale(0.1 -0.1)">
      <use xlink:href="#DejaVuSans-71"/>
      <use x="77.490234" xlink:href="#DejaVuSans-114"/>
      <use x="118.572266" xlink:href="#DejaVuSans-101"/>
      <use x="180.095703" xlink:href="#DejaVuSans-101"/>
      <use x="241.619141" xlink:href="#DejaVuSans-110"/>
     </g>
    </g>
    <g id="line2d_57">
     <path d="M 99 278.139062 
L 119 278.139062 
" style="fill:none;stroke:#2ca02c;stroke-linecap:square;stroke-width:1.5;"/>
    </g>
    <g id="line2d_58"/>
    <g id="text_30">
     <!-- Purple -->
     <g transform="translate(127 281.639062)scale(0.1 -0.1)">
      <use xlink:href="#DejaVuSans-80"/>
      <use x="60.287109" xlink:href="#DejaVuSans-117"/>
      <use x="123.666016" xlink:href="#DejaVuSans-114"/>
      <use x="164.779297" xlink:href="#DejaVuSans-112"/>
      <use x="228.255859" xlink:href="#DejaVuSans-108"/>
      <use x="256.039062" xlink:href="#DejaVuSans-101"/>
     </g>
    </g>
    <g id="line2d_59">
     <path d="M 99 292.817187 
L 119 292.817187 
" style="fill:none;stroke:#d62728;stroke-linecap:square;stroke-width:1.5;"/>
    </g>
    <g id="line2d_60"/>
    <g id="text_31">
     <!-- Red -->
     <defs>
      <path d="M 44.390625 34.1875 
Q 47.5625 33.109375 50.5625 29.59375 
Q 53.5625 26.078125 56.59375 19.921875 
L 66.609375 0 
L 56 0 
L 46.6875 18.703125 
Q 43.0625 26.03125 39.671875 28.421875 
Q 36.28125 30.8125 30.421875 30.8125 
L 19.671875 30.8125 
L 19.671875 0 
L 9.8125 0 
L 9.8125 72.90625 
L 32.078125 72.90625 
Q 44.578125 72.90625 50.734375 67.671875 
Q 56.890625 62.453125 56.890625 51.90625 
Q 56.890625 45.015625 53.6875 40.46875 
Q 50.484375 35.9375 44.390625 34.1875 
z
M 19.671875 64.796875 
L 19.671875 38.921875 
L 32.078125 38.921875 
Q 39.203125 38.921875 42.84375 42.21875 
Q 46.484375 45.515625 46.484375 51.90625 
Q 46.484375 58.296875 42.84375 61.546875 
Q 39.203125 64.796875 32.078125 64.796875 
z
" id="DejaVuSans-82"/>
     </defs>
     <g transform="translate(127 296.317187)scale(0.1 -0.1)">
      <use xlink:href="#DejaVuSans-82"/>
      <use x="69.419922" xlink:href="#DejaVuSans-101"/>
      <use x="130.943359" xlink:href="#DejaVuSans-100"/>
     </g>
    </g>
    <g id="line2d_61">
     <path d="M 99 307.495312 
L 119 307.495312 
" style="fill:none;stroke:#9467bd;stroke-linecap:square;stroke-width:1.5;"/>
    </g>
    <g id="line2d_62"/>
    <g id="text_32">
     <!-- Dress_Code_dummie -->
     <defs>
      <path d="M 19.671875 64.796875 
L 19.671875 8.109375 
L 31.59375 8.109375 
Q 46.6875 8.109375 53.6875 14.9375 
Q 60.6875 21.78125 60.6875 36.53125 
Q 60.6875 51.171875 53.6875 57.984375 
Q 46.6875 64.796875 31.59375 64.796875 
z
M 9.8125 72.90625 
L 30.078125 72.90625 
Q 51.265625 72.90625 61.171875 64.09375 
Q 71.09375 55.28125 71.09375 36.53125 
Q 71.09375 17.671875 61.125 8.828125 
Q 51.171875 0 30.078125 0 
L 9.8125 0 
z
" id="DejaVuSans-68"/>
     </defs>
     <g transform="translate(127 310.995312)scale(0.1 -0.1)">
      <use xlink:href="#DejaVuSans-68"/>
      <use x="77.001953" xlink:href="#DejaVuSans-114"/>
      <use x="118.083984" xlink:href="#DejaVuSans-101"/>
      <use x="179.607422" xlink:href="#DejaVuSans-115"/>
      <use x="231.707031" xlink:href="#DejaVuSans-115"/>
      <use x="283.806641" xlink:href="#DejaVuSans-95"/>
      <use x="333.806641" xlink:href="#DejaVuSans-67"/>
      <use x="403.630859" xlink:href="#DejaVuSans-111"/>
      <use x="464.8125" xlink:href="#DejaVuSans-100"/>
      <use x="528.289062" xlink:href="#DejaVuSans-101"/>
      <use x="589.8125" xlink:href="#DejaVuSans-95"/>
      <use x="639.8125" xlink:href="#DejaVuSans-100"/>
      <use x="703.289062" xlink:href="#DejaVuSans-117"/>
      <use x="766.667969" xlink:href="#DejaVuSans-109"/>
      <use x="864.080078" xlink:href="#DejaVuSans-109"/>
      <use x="961.492188" xlink:href="#DejaVuSans-105"/>
      <use x="989.275391" xlink:href="#DejaVuSans-101"/>
     </g>
    </g>
    <g id="line2d_63">
     <path d="M 99 322.451562 
L 119 322.451562 
" style="fill:none;stroke:#8c564b;stroke-linecap:square;stroke-width:1.5;"/>
    </g>
    <g id="line2d_64"/>
    <g id="text_33">
     <!-- grades_offered_count -->
     <g transform="translate(127 325.951562)scale(0.1 -0.1)">
      <use xlink:href="#DejaVuSans-103"/>
      <use x="63.476562" xlink:href="#DejaVuSans-114"/>
      <use x="104.589844" xlink:href="#DejaVuSans-97"/>
      <use x="165.869141" xlink:href="#DejaVuSans-100"/>
      <use x="229.345703" xlink:href="#DejaVuSans-101"/>
      <use x="290.869141" xlink:href="#DejaVuSans-115"/>
      <use x="342.96875" xlink:href="#DejaVuSans-95"/>
      <use x="392.96875" xlink:href="#DejaVuSans-111"/>
      <use x="454.150391" xlink:href="#DejaVuSans-102"/>
      <use x="489.355469" xlink:href="#DejaVuSans-102"/>
      <use x="524.560547" xlink:href="#DejaVuSans-101"/>
      <use x="586.083984" xlink:href="#DejaVuSans-114"/>
      <use x="627.166016" xlink:href="#DejaVuSans-101"/>
      <use x="688.689453" xlink:href="#DejaVuSans-100"/>
      <use x="752.166016" xlink:href="#DejaVuSans-95"/>
      <use x="802.166016" xlink:href="#DejaVuSans-99"/>
      <use x="857.146484" xlink:href="#DejaVuSans-111"/>
      <use x="918.328125" xlink:href="#DejaVuSans-117"/>
      <use x="981.707031" xlink:href="#DejaVuSans-110"/>
      <use x="1045.085938" xlink:href="#DejaVuSans-116"/>
     </g>
    </g>
    <g id="line2d_65">
     <path d="M 99 337.407812 
L 119 337.407812 
" style="fill:none;stroke:#e377c2;stroke-linecap:square;stroke-width:1.5;"/>
    </g>
    <g id="line2d_66"/>
    <g id="text_34">
     <!-- charter -->
     <g transform="translate(127 340.907812)scale(0.1 -0.1)">
      <use xlink:href="#DejaVuSans-99"/>
      <use x="54.980469" xlink:href="#DejaVuSans-104"/>
      <use x="118.359375" xlink:href="#DejaVuSans-97"/>
      <use x="179.638672" xlink:href="#DejaVuSans-114"/>
      <use x="220.751953" xlink:href="#DejaVuSans-116"/>
      <use x="259.960938" xlink:href="#DejaVuSans-101"/>
      <use x="321.484375" xlink:href="#DejaVuSans-114"/>
     </g>
    </g>
    <g id="line2d_67">
     <path d="M 99 352.085937 
L 119 352.085937 
" style="fill:none;stroke:#7f7f7f;stroke-linecap:square;stroke-width:1.5;"/>
    </g>
    <g id="line2d_68"/>
    <g id="text_35">
     <!-- gender_f_bn -->
     <g transform="translate(127 355.585937)scale(0.1 -0.1)">
      <use xlink:href="#DejaVuSans-103"/>
      <use x="63.476562" xlink:href="#DejaVuSans-101"/>
      <use x="125" xlink:href="#DejaVuSans-110"/>
      <use x="188.378906" xlink:href="#DejaVuSans-100"/>
      <use x="251.855469" xlink:href="#DejaVuSans-101"/>
      <use x="313.378906" xlink:href="#DejaVuSans-114"/>
      <use x="354.492188" xlink:href="#DejaVuSans-95"/>
      <use x="404.492188" xlink:href="#DejaVuSans-102"/>
      <use x="439.697266" xlink:href="#DejaVuSans-95"/>
      <use x="489.697266" xlink:href="#DejaVuSans-98"/>
      <use x="553.173828" xlink:href="#DejaVuSans-110"/>
     </g>
    </g>
   </g>
  </g>
 </g>
 <defs>
  <clipPath id="p02ef41be74">
   <rect height="543.6" width="558" x="90" y="86.4"/>
  </clipPath>
 </defs>
</svg>
